<svg width="50" height="50" viewBox="0 0 50 50" fill="none" xmlns="http://www.w3.org/2000/svg">
<path d="M47.7535 23.4551C48.8314 21.8141 49.397 19.9226 49.397 17.9339C49.397 15.2934 48.3843 12.7962 46.5453 10.9022C45.0077 9.31865 43.0319 8.29893 40.8848 7.96104C40.9784 7.51602 41.0256 7.06074 41.0256 6.59854C41.0257 2.96016 38.0655 0 34.4271 0C30.7885 0 27.8284 2.96016 27.8284 6.59854C27.8284 7.37773 27.9631 8.13828 28.2243 8.85478C23.1656 9.15137 19.1406 13.3608 19.1406 18.4926C19.1406 20.8856 19.9992 23.1316 21.5741 24.8986C20.8717 26.1482 20.5036 27.5514 20.5036 29.0007C20.5036 33.6297 24.2695 37.3956 28.8986 37.3956C30.9341 37.3956 32.8721 36.6511 34.375 35.3585V48.0469H24.0234V44.4308C25.1739 43.9086 25.9766 42.7497 25.9766 41.4062C25.9766 39.5754 24.4871 38.0859 22.6562 38.0859H3.32031C1.48945 38.0859 0 39.5754 0 41.4062C0 42.7498 0.802637 43.9087 1.95312 44.4308V49.0234C1.95312 49.5628 2.39043 50 2.92969 50H6.83594C7.3752 50 7.8125 49.5628 7.8125 49.0234V44.7266H18.1641V48.0469H17.2363C16.6971 48.0469 16.2598 48.4841 16.2598 49.0234C16.2598 49.5628 16.6971 50 17.2363 50H39.7461C40.2854 50 40.7227 49.5628 40.7227 49.0234C40.7227 48.4841 40.2854 48.0469 39.7461 48.0469H36.3281V35.3903C37.8078 36.6632 39.7151 37.3957 41.7253 37.3957C46.2881 37.3957 50 33.6837 50 29.121C50 27.0028 49.1906 24.983 47.7535 23.4551ZM3.32031 40.0391H22.6562C23.4102 40.0391 24.0234 40.6523 24.0234 41.4062C24.0234 42.1602 23.4102 42.7734 22.6562 42.7734H19.1406H6.83594H3.32031C2.56641 42.7734 1.95312 42.1602 1.95312 41.4062C1.95312 40.6523 2.56641 40.0391 3.32031 40.0391ZM5.85938 48.0469H3.90625V44.7266H5.85938V48.0469ZM20.1172 48.0469V44.7266H22.0703V48.0469H20.1172ZM41.7253 35.4426C39.5189 35.4426 37.4742 34.287 36.3281 32.4107V27.8614C36.3361 27.854 36.3444 27.8474 36.3522 27.8396L41.9022 22.2896C42.2836 21.9083 42.2836 21.2899 41.9022 20.9085C41.5209 20.5272 40.9027 20.5271 40.5211 20.9085L36.3281 25.1016V15.9898C36.3281 15.4505 35.8908 15.0133 35.3516 15.0133C34.8123 15.0133 34.375 15.4505 34.375 15.9898V18.524L33.5969 17.7459C33.2156 17.3646 32.5975 17.3646 32.2157 17.7459C31.8344 18.1272 31.8344 18.7456 32.2157 19.127L34.375 21.2861V27.5493L31.7031 24.8775C31.7022 24.8767 31.7014 24.8757 31.7005 24.8748L29.3404 22.5147C28.959 22.1334 28.3408 22.1334 27.9593 22.5147C27.5779 22.8961 27.5779 23.5145 27.9593 23.8958L29.4099 25.3463L26.7587 26.7955C26.2854 27.0542 26.1115 27.6476 26.3702 28.1208C26.5476 28.4454 26.8824 28.6292 27.2279 28.6292C27.3862 28.6292 27.5469 28.5906 27.6955 28.5093L30.849 26.7854L34.375 30.3115V32.39C33.2031 34.2788 31.127 35.4425 28.8986 35.4425C25.3466 35.4425 22.4567 32.5527 22.4567 29.0007C22.4567 27.68 22.8549 26.4097 23.608 25.3272C23.883 24.9321 23.829 24.3954 23.4807 24.063C21.9415 22.594 21.0938 20.6157 21.0938 18.4926C21.0938 14.2461 24.5485 10.7913 28.795 10.7913C29.1026 10.7913 29.4138 10.8112 29.746 10.8521C30.1318 10.8994 30.5082 10.7143 30.7058 10.3802C30.9034 10.046 30.8845 9.62656 30.6573 9.31172C30.0844 8.51729 29.7814 7.5791 29.7814 6.59873C29.7814 4.03721 31.8654 1.95332 34.427 1.95332C36.9884 1.95332 39.0724 4.03721 39.0724 6.59873C39.0724 7.23506 38.9456 7.85195 38.6958 8.43252C38.5681 8.7293 38.5954 9.06992 38.7687 9.34248C38.9419 9.61504 39.2388 9.78438 39.5617 9.79463C43.9815 9.93555 47.4438 13.5107 47.4438 17.9339C47.4438 19.7789 46.84 21.5201 45.698 22.9695C45.3737 23.3812 45.432 23.9754 45.8303 24.316C47.2391 25.5208 48.0469 27.2722 48.0469 29.1209C48.0469 32.6067 45.211 35.4426 41.7253 35.4426Z" fill="white"/>
<path d="M43.749 48.0469C43.4921 48.0469 43.2401 48.1514 43.0586 48.333C42.877 48.5146 42.7725 48.7666 42.7725 49.0234C42.7725 49.2803 42.8769 49.5322 43.0586 49.7139C43.2401 49.8955 43.4921 50 43.749 50C44.0059 50 44.2578 49.8955 44.4394 49.7139C44.621 49.5322 44.7256 49.2803 44.7256 49.0234C44.7256 48.7666 44.6211 48.5146 44.4394 48.333C44.2578 48.1514 44.0059 48.0469 43.749 48.0469Z" fill="white"/>
<path d="M2.88169 18.6652C3.3854 18.5138 3.91802 18.5674 4.3813 18.8164C4.84468 19.0654 5.18326 19.48 5.33482 19.9837C5.45894 20.3965 5.83902 20.679 6.26997 20.679C6.70093 20.679 7.08101 20.3965 7.20513 19.9838C7.51802 18.944 8.61851 18.3525 9.65835 18.6653C10.1749 18.8207 10.7194 18.528 10.8749 18.0115C11.0302 17.495 10.7375 16.9504 10.221 16.795C8.77046 16.3587 7.2604 16.8058 6.27173 17.8248C5.99322 17.5371 5.6688 17.2912 5.30601 17.0962C4.38316 16.6001 3.32222 16.4932 2.319 16.795C1.80259 16.9504 1.50982 17.495 1.66519 18.0115C1.82046 18.5278 2.36529 18.8204 2.88169 18.6652Z" fill="white"/>
<path d="M9.11169 11.4624C9.61511 11.311 10.1478 11.3645 10.6112 11.6136C11.0746 11.8626 11.4133 12.2772 11.5648 12.781C11.6889 13.1937 12.069 13.4762 12.5 13.4762C12.9309 13.4762 13.311 13.1937 13.4352 12.781C13.5867 12.2773 13.9254 11.8627 14.3888 11.6136C14.8521 11.3646 15.3846 11.311 15.8883 11.4624C16.4047 11.6177 16.9492 11.325 17.1048 10.8086C17.2602 10.2921 16.9675 9.7475 16.451 9.59203C15.448 9.29027 14.387 9.39711 13.4641 9.8931C13.1019 10.0877 12.7781 10.3331 12.5 10.6201C12.2219 10.3331 11.898 10.0877 11.5359 9.8931C10.613 9.39701 9.55183 9.29018 8.54899 9.59203C8.03248 9.7474 7.73981 10.292 7.89518 10.8086C8.05055 11.3251 8.59557 11.6176 9.11169 11.4624Z" fill="white"/>
<path d="M28.7948 12.7773H28.7872C28.2479 12.7773 27.8145 13.2145 27.8145 13.7538C27.8145 14.2932 28.2556 14.7304 28.7948 14.7304C29.3341 14.7304 29.7714 14.2932 29.7714 13.7538C29.7714 13.2145 29.3342 12.7773 28.7948 12.7773Z" fill="white"/>
<path d="M24.6571 14.5493C23.6395 15.6168 23.0791 17.0172 23.0791 18.4924C23.0791 19.0317 23.5164 19.4689 24.0557 19.4689C24.5949 19.4689 25.0323 19.0317 25.0323 18.4924C25.0323 17.5213 25.401 16.5995 26.0708 15.8969C26.443 15.5065 26.4282 14.8883 26.0377 14.5163C25.6474 14.144 25.0291 14.1589 24.6571 14.5493Z" fill="white"/>
</svg>
