<svg width="50" height="47" viewBox="0 0 50 47" fill="none" xmlns="http://www.w3.org/2000/svg">
<path d="M33.682 27.5673H38.7727V25.037C38.7727 24.7041 38.4937 24.5043 38.1451 24.5043H34.2399C33.961 24.5043 33.682 24.7041 33.682 25.037V27.5673ZM39.5398 29.0988H32.9149C32.4268 29.0988 32.0781 28.7659 32.0781 28.2998V25.037C32.0781 23.905 33.0544 22.9728 34.2399 22.9728H38.1451C39.3306 22.9728 40.3069 23.905 40.3069 25.037V28.2998C40.3069 28.7659 39.9582 29.0988 39.5398 29.0988Z" fill="white"/>
<path d="M38.2845 24.5043H34.1702C33.7518 24.5043 33.4031 24.1713 33.4031 23.7052V4.3282C33.4031 3.92867 33.7518 3.59573 34.1702 3.59573C34.5886 3.59573 34.9372 3.92867 34.9372 4.3282V22.9727H37.4477V0.732464C37.4477 0.332938 37.7964 0 38.2845 0C38.7029 0 39.0516 0.332938 39.0516 0.732464V23.7052C39.0516 24.1713 38.7029 24.5043 38.2845 24.5043Z" fill="white"/>
<path d="M11.646 30.1641H15.6209V28.1665C15.6209 28.0333 15.4814 27.8336 15.2722 27.8336H11.9947C11.7855 27.8336 11.646 28.0333 11.646 28.1665V30.1641ZM16.388 31.6957H10.8789C10.4605 31.6957 10.1118 31.3627 10.1118 30.9632V28.1665C10.1118 27.1677 10.9486 26.3687 11.9947 26.3687H15.2722C16.3182 26.3687 17.2248 27.1677 17.2248 28.1665V30.9632C17.2248 31.3627 16.8761 31.6957 16.388 31.6957Z" fill="white"/>
<path d="M12.6919 26.3687H14.5747V15.1154C14.5747 14.5827 14.1563 14.1831 13.6682 14.1831C13.1103 14.1831 12.6919 14.5827 12.6919 15.1154V26.3687ZM15.3418 27.8336H11.9248C11.5064 27.8336 11.1577 27.5007 11.1577 27.1011V15.1154C11.1577 13.7836 12.2735 12.7182 13.6682 12.7182C14.9931 12.7182 16.1089 13.7836 16.1089 15.1154V27.1011C16.1089 27.5007 15.7602 27.8336 15.3418 27.8336Z" fill="white"/>
<path d="M35.9832 46.0786C35.6346 46.0786 35.2859 45.8788 35.2161 45.4793L34.2399 40.3521L32.4267 45.6125C32.357 45.8788 32.0781 46.0786 31.7294 46.0786H26.4993C26.2901 46.0786 26.0809 46.012 25.9414 45.8123C25.7322 45.6125 25.7322 45.4127 25.7322 45.213L29.9163 28.1665C29.986 27.8336 30.265 27.5672 30.6834 27.5672H41.7712C42.1199 27.5672 42.4686 27.8336 42.5383 28.1665L46.6527 45.213C46.7224 45.4127 46.6527 45.6125 46.5132 45.8123C46.3737 46.012 46.1645 46.0786 45.8856 46.0786H41.1436C40.7949 46.0786 40.4463 45.8788 40.3765 45.5459L38.7726 40.685C38.6332 40.2855 38.9121 39.886 39.3305 39.7528C39.7489 39.6196 40.1673 39.886 40.3068 40.2189L41.7015 44.6137H44.9093L41.1436 29.0987H31.311L27.5453 44.6137H31.1018L33.682 37.0227C33.7517 36.6897 34.1004 36.49 34.4491 36.49C34.7977 36.5566 35.1464 36.7563 35.1464 37.0893L36.7503 45.213C36.8898 45.6125 36.6108 46.012 36.1227 46.0786C36.1227 46.0786 36.053 46.0786 35.9832 46.0786Z" fill="white"/>
<path d="M4.46295 44.6136H22.8033L21.3388 33.6267C21.1993 32.4947 20.2231 31.6956 19.0376 31.6956H8.22864C7.04314 31.6956 6.06685 32.4947 5.92738 33.6267L4.46295 44.6136ZM23.7098 46.0786H3.55639C3.34719 46.0786 3.13798 46.012 2.99851 45.8788C2.85904 45.679 2.78931 45.4793 2.78931 45.2795L4.32348 33.4269C4.60242 31.5625 6.27606 30.1641 8.22864 30.1641H19.0376C20.9901 30.1641 22.6638 31.5625 22.9427 33.4269L24.4769 45.2795C24.4769 45.4793 24.4072 45.679 24.2677 45.8788C24.1282 46.012 23.919 46.0786 23.7098 46.0786Z" fill="white"/>
<path d="M8.2289 39.9526C8.2289 39.9526 8.2289 39.9526 8.15916 39.9526C7.74075 39.886 7.39208 39.4865 7.46181 39.087L7.88022 35.9573C8.01969 34.7588 9.13545 33.8265 10.4604 33.8265H16.8063C18.1313 33.8265 19.247 34.7588 19.3865 35.9573L19.8049 39.087C19.8746 39.4865 19.526 39.886 19.1076 39.9526C18.6891 40.0192 18.2707 39.6863 18.201 39.2867L17.8523 36.1571C17.7826 35.691 17.2944 35.2915 16.8063 35.2915H10.4604C9.97227 35.2915 9.48413 35.691 9.48413 36.1571L9.06572 39.2867C8.99598 39.6863 8.64731 39.9526 8.2289 39.9526Z" fill="white"/>
<path d="M49.2329 46.0787H0.767085C0.348675 46.0787 0 45.7458 0 45.3463C0 44.9467 0.348675 44.6138 0.767085 44.6138H49.2329C49.6513 44.6138 50 44.9467 50 45.3463C50 45.7458 49.6513 46.0787 49.2329 46.0787Z" fill="white"/>
</svg>
