<svg width="50" height="59" viewBox="0 0 50 59" fill="none" xmlns="http://www.w3.org/2000/svg">
<g clip-path="url(#clip0)">
<path d="M21.5872 56.9651L16.4925 34.3989L19.2031 33.817L24.2978 56.3832L22.9262 58.0643L21.5872 56.9651ZM24.2978 56.3832C24.4611 57.1268 24.0039 57.8704 23.2528 58.032C22.5016 58.1936 21.7505 57.7087 21.5872 56.9651L24.2978 56.3832ZM1.40431 55.284H22.9262V58.0643H1.40431L0 56.6741L1.40431 55.284ZM1.40431 58.0643C0.62051 58.0643 0 57.4501 0 56.6741C0 55.8982 0.62051 55.284 1.40431 55.284V58.0643ZM0.0326584 45.4557L2.80862 45.7143V45.682L2.84128 45.6497V45.7143L2.80862 45.8437V46.0053V46.1993V46.4256V46.7166V47.0075V47.3308V47.6865V48.0744V48.4624V48.8827V49.303V49.7232V50.1759V50.6285V51.1134V51.566V52.0187V52.4713V52.9562V53.3765V53.8291V54.2494V54.6697V55.0577V55.4456V55.7689V56.1245V56.4155V56.6741H0V56.4155V56.0922V55.7689V55.4133V55.0577V54.6697V54.2494V53.8291V53.3765V52.9239V52.4713V52.0187V51.566V51.0811V50.6285V50.1759V49.7232L0.0326584 49.303V48.8503V48.4624V48.0421V47.6865V47.3308V47.0075V46.6842V46.4256V46.1993V45.973V45.8113V45.682V45.585V45.4557ZM0.0326584 45.4557C0.0979752 44.6798 0.783801 44.1302 1.5676 44.1948C2.31875 44.2595 2.9066 44.9384 2.80862 45.682L0.0326584 45.4557ZM19.2031 33.817L16.4925 34.3989L18.6153 35.2718L17.9295 35.6921L17.2436 36.0801L16.5251 36.468L15.8393 36.7913L15.1208 37.0823L14.4024 37.3733L13.7165 37.5996L13.0307 37.8582L12.3449 38.0845L11.659 38.2785L11.0059 38.4725L10.3527 38.6664L9.7322 38.8604L9.11169 39.0544L8.52384 39.2484L7.93599 39.4747L7.41346 39.6687L6.89092 39.895L6.40105 40.1213L5.94383 40.3799L5.51927 40.6386L5.12737 40.9295L4.76813 41.2528L4.44154 41.5761L4.14762 41.9318L3.85369 42.3197L3.62508 42.74L3.39647 43.2249L3.20052 43.7422L3.03723 44.3242L2.9066 44.9708L2.80862 45.7143L0.0326584 45.4557L0.163292 44.5505L0.326584 43.7099L0.555193 42.9017L0.81646 42.1581L1.14304 41.4791L1.50229 40.8325L1.92685 40.2506L2.38406 39.701L2.87394 39.2161L3.39647 38.7634L3.95167 38.3755L4.50686 38.0199L5.12737 37.6966L5.71522 37.3733L6.33573 37.1146L6.95624 36.8883L7.57675 36.662L8.22992 36.4357L8.88308 36.2417L9.53625 36.0154L10.1894 35.8214L10.8426 35.6274L11.4958 35.4335L12.1489 35.2395L12.8021 35.0132L13.4226 34.7869L14.0758 34.5282L14.6963 34.2696L15.2841 33.9786L15.9046 33.6553L16.4925 33.332L17.0477 32.9764L19.2031 33.817ZM17.0477 32.9764C17.7008 32.5561 18.55 32.7178 19.0072 33.332C19.4317 33.9786 19.2685 34.8192 18.6153 35.2718L17.0477 32.9764ZM24.853 33.7846H25.2123L25.147 36.5327H24.7877L23.6773 34.3666L24.853 33.7846ZM24.7877 36.5327C24.0039 36.5004 23.4161 35.8861 23.4161 35.1102C23.4487 34.3666 24.1019 33.7523 24.853 33.7846L24.7877 36.5327ZM21.8158 37.1146L23.6773 34.3666L25.9961 35.9184L24.1346 38.6664L21.5545 37.9875L21.8158 37.1146ZM24.1346 38.6664C23.6773 39.2807 22.8282 39.4424 22.1751 39.0221C21.5545 38.6018 21.3586 37.7289 21.8158 37.1146L24.1346 38.6664ZM21.6199 38.6664L21.5545 37.9875L24.3632 37.7935L24.3958 38.4725L22.0118 39.5394L21.6199 38.6664ZM24.3958 38.4725C24.4611 39.2484 23.8733 39.895 23.0895 39.9596C22.3383 39.992 21.6525 39.4424 21.6199 38.6664L24.3958 38.4725ZM23.5467 41.0912L22.0118 39.5394L24.0039 37.5996L25.5389 39.1514L25.7348 40.8649L23.5467 41.0912ZM25.5389 39.1514C26.0941 39.701 26.0941 40.5739 25.5389 41.1235C24.9837 41.6408 24.1019 41.6408 23.5467 41.0912L25.5389 39.1514ZM21.6525 42.1581L23.3508 39.3777L25.7348 40.8649L24.0039 43.6129L21.4239 42.934L21.6525 42.1581ZM24.0039 43.6129C23.612 44.2595 22.7302 44.4535 22.0771 44.0332C21.4239 43.6452 21.228 42.8047 21.6525 42.1581L24.0039 43.6129ZM22.0771 56.7388L21.4239 42.934L24.2325 42.8047L24.853 56.6095L23.4814 58.0643L22.0771 56.7388ZM24.853 56.6095C24.9184 57.3854 24.2978 58.032 23.5467 58.0643C22.7629 58.0967 22.1097 57.5147 22.0771 56.7388L24.853 56.6095ZM26.6166 58.0643H23.4814V55.284H26.6166L27.9882 56.7388L26.6166 58.0643ZM26.6166 55.284C27.3677 55.284 27.9882 55.8982 27.9882 56.6741C27.9882 57.4501 27.3677 58.0643 26.6166 58.0643V55.284ZM28.5761 42.934L27.9882 56.7388L25.2123 56.6095L25.8001 42.837L28.3801 42.1581L28.5761 42.934ZM25.8001 42.837C25.8328 42.0611 26.4533 41.4791 27.2371 41.5115C28.0209 41.5438 28.6088 42.1904 28.5761 42.934L25.8001 42.837ZM26.6493 39.41L28.3801 42.1581L25.9961 43.6129L24.2652 40.8649L24.4611 39.1514L26.6493 39.41ZM24.2652 40.8649C23.8733 40.2183 24.0692 39.3777 24.7224 38.9574C25.3756 38.5695 26.2247 38.7634 26.6493 39.41L24.2652 40.8649ZM27.9882 39.5717L26.4533 41.0912L24.4611 39.1514L25.9961 37.6319L28.3801 38.6664L27.9882 39.5717ZM25.9961 37.6319C26.5513 37.0823 27.4331 37.0823 27.9882 37.5996C28.5108 38.1492 28.5434 39.0221 27.9882 39.5717L25.9961 37.6319ZM28.4455 37.9875L28.3801 38.6664L25.6042 38.5048L25.6368 37.7935L28.1842 37.1146L28.4455 37.9875ZM25.6368 37.7935C25.7022 37.05 26.3553 36.468 27.1391 36.5004C27.8903 36.565 28.4781 37.2116 28.4455 37.9875L25.6368 37.7935ZM26.3227 34.3989L28.1842 37.1146L25.8981 38.6664L24.0039 35.9507L25.2123 33.7846L26.3227 34.3989ZM24.0039 35.9507C23.5794 35.3041 23.7427 34.4636 24.3958 34.011C25.0163 33.5907 25.8981 33.7523 26.3227 34.3989L24.0039 35.9507ZM24.0039 35.9507C23.5794 35.3041 23.7427 34.4636 24.3958 34.011C25.0163 33.5907 25.8981 33.7523 26.3227 34.3989L24.0039 35.9507ZM23.2528 2.1661L20.6074 3.039L21.6199 1.22853L21.8485 1.1962L22.0444 1.16387L22.2404 1.13154L22.469 1.06688L22.6649 1.03455L22.8935 1.00222H23.0895L23.3181 0.969894L23.514 0.937564L23.7427 0.905235H23.9386H24.1346L24.3632 0.872905H24.5918H24.7877H25.0163H25.2123H25.4409H25.6368L25.8654 0.905235H26.0614H26.29L26.486 0.937564L26.7146 0.969894L26.9105 1.00222H27.1065L27.3351 1.03455L27.531 1.06688L27.7596 1.13154L27.9556 1.16387L28.1515 1.1962L28.3801 1.22853L27.7596 3.94424L27.5637 3.91191L27.4004 3.87958L27.2371 3.84725L27.0738 3.81492L26.9105 3.78259L26.7472 3.75026L26.5513 3.71793H26.388L26.2247 3.6856H26.0287L25.8654 3.65327H25.7022H25.5389L25.3429 3.62094H25.1796H25.0163H24.8204H24.6571L24.4938 3.65327H24.2978H24.1346L23.9713 3.6856H23.7753L23.612 3.71793H23.4487L23.2854 3.75026L23.0895 3.78259L22.9262 3.81492L22.7629 3.84725L22.5996 3.87958L22.4363 3.91191L22.273 3.94424L23.2528 2.1661ZM22.273 3.94424C21.5219 4.10589 20.7707 3.65327 20.5748 2.90968C20.4115 2.1661 20.8687 1.42251 21.6199 1.22853L22.273 3.94424ZM22.8935 9.82826L20.6074 3.039L23.2528 2.1661L25.5715 8.95536L24.2325 10.7658L22.8935 9.82826ZM25.5715 8.95536C25.8001 9.66661 25.4082 10.4425 24.6897 10.7012C23.9386 10.9275 23.1548 10.5395 22.8935 9.82826L25.5715 8.95536ZM25.7675 10.7658H24.2325V8.01779H25.7675L27.1065 9.82826L25.7675 10.7658ZM25.7675 8.01779C26.5513 8.01779 27.1718 8.63206 27.1718 9.37564C27.1718 10.1516 26.5513 10.7658 25.7675 10.7658V8.01779ZM29.3926 3.039L27.1065 9.82826L24.4611 8.95536L26.7472 2.1661L28.3801 1.22853L29.3926 3.039ZM26.7472 2.1661C26.9758 1.42251 27.7596 1.03455 28.5108 1.29319C29.2293 1.5195 29.6212 2.29542 29.3926 3.039L26.7472 2.1661ZM26.7472 2.1661C26.9758 1.42251 27.7596 1.03455 28.5108 1.29319C29.2293 1.5195 29.6212 2.29542 29.3926 3.039L26.7472 2.1661ZM35.0751 13.7078L35.7609 11.0245L34.03 12.4146L33.9974 11.962L33.9321 11.5094L33.8668 11.0568L33.7688 10.6042L33.6708 10.1516L33.5402 9.69894L33.3769 9.27865L33.2136 8.82604L33.0176 8.40575L32.8217 7.98546L32.5931 7.56517L32.3318 7.17722L32.0705 6.78926L31.8093 6.43363L31.5154 6.04567L31.2214 5.72238L30.8948 5.36675L30.5683 5.07578L30.209 4.75248L29.8824 4.49384L29.4905 4.2352L29.1313 3.97657L28.7394 3.75026L28.3475 3.55628L27.9556 3.3623L27.5637 3.23298L27.1391 3.07133L26.7146 2.97434L26.29 2.87735L25.8654 2.81269L25.4409 2.78036H25.0163V0L25.6042 0.0323298L26.2247 0.0646596L26.8125 0.161649L27.4004 0.290968L27.9556 0.420287L28.5108 0.614266L29.066 0.840575L29.5885 1.06688L30.111 1.32552L30.6009 1.64882L31.0908 1.93979L31.5807 2.29542L32.0052 2.65104L32.4624 3.039L32.887 3.42696L33.2789 3.84725L33.6708 4.29986L34.03 4.75248L34.3566 5.2051L34.6832 5.69005L35.0098 6.20732L35.2711 6.69227L35.5323 7.24188L35.7936 7.75915L35.9896 8.30876L36.1855 8.85837L36.3488 9.40797L36.5121 9.98991L36.6101 10.5718L36.708 11.1538L36.7734 11.7357L36.806 12.3177L35.0751 13.7078ZM36.806 12.3177C36.8387 13.0612 36.2508 13.7078 35.467 13.7402C34.6832 13.7725 34.0627 13.1582 34.03 12.4146L36.806 12.3177ZM34.6179 13.6432V10.8951H34.6506H34.6832H34.7159H34.7485H34.7812H34.8138H34.8465H34.9118H34.9445H34.9771H35.0098H35.0425H35.0751H35.1078L35.1404 10.9275H35.1731H35.2384H35.2711H35.3037H35.3364H35.369L35.4017 10.9598H35.4344H35.467H35.4997H35.5323L35.565 10.9921H35.6303H35.663H35.6956L35.7283 11.0245H35.7609L35.0751 13.7078H35.0425L35.0098 13.6755H34.9771H34.9445H34.9118H34.8792H34.8465V13.6432H34.8138H34.7812H34.7485H34.7159H34.6832H34.6506H34.6179ZM34.6179 13.6432C33.8341 13.6432 33.2136 13.0289 33.2136 12.253C33.2136 11.5094 33.8341 10.8951 34.6179 10.8951V13.6432ZM15.4148 10.8951H34.6179V13.6432H15.4148V10.8951ZM15.4148 13.6432C14.631 13.6432 14.0105 13.0289 14.0105 12.253C14.0105 11.5094 14.631 10.8951 15.4148 10.8951V13.6432ZM13.194 12.3177L15.97 12.4146L14.2391 11.0245H14.2717L14.3044 10.9921H14.3697H14.4024H14.435L14.4677 10.9598H14.5003H14.533H14.5656H14.5983L14.631 10.9275H14.6636H14.6963H14.7616H14.7943H14.8269H14.8596L14.8922 10.8951H14.9249H14.9575H14.9902H15.0229H15.0882H15.1208H15.1535H15.1862H15.2188H15.2515H15.2841H15.3168H15.3494H15.4148V13.6432H15.3821H15.3494H15.3168H15.2841H15.2515H15.2188H15.1862H15.1535V13.6755H15.1208H15.0882H15.0555H15.0229H14.9902L14.9575 13.7078H14.9249L13.194 12.3177ZM14.9249 13.7078C14.1737 13.8695 13.4226 13.4492 13.2266 12.7056C13.0307 11.962 13.4879 11.2184 14.2391 11.0245L14.9249 13.7078ZM25.0163 0V2.78036H24.5591L24.1346 2.81269L23.71 2.87735L23.2854 2.97434L22.8609 3.07133L22.4363 3.23298L22.0444 3.3623L21.6525 3.55628L21.2606 3.75026L20.8687 3.97657L20.5095 4.2352L20.1502 4.49384L19.791 4.75248L19.4317 5.07578L19.1052 5.36675L18.8112 5.72238L18.4847 6.04567L18.1907 6.43363L17.9295 6.78926L17.6682 7.17722L17.4396 7.56517L17.211 7.98546L16.9824 8.40575L16.7864 8.82604L16.6231 9.27865L16.4598 9.69894L16.3292 10.1516L16.2312 10.6042L16.1332 11.0568L16.0679 11.5094L16.0026 11.962L15.97 12.4146L13.194 12.3177L13.2266 11.7357L13.292 11.1538L13.3899 10.5718L13.4879 9.98991L13.6512 9.40797L13.8145 8.85837L14.0105 8.30876L14.2064 7.75915L14.4677 7.24188L14.7289 6.69227L14.9902 6.20732L15.3168 5.69005L15.6434 5.2051L15.97 4.75248L16.3292 4.29986L16.7211 3.84725L17.113 3.42696L17.5376 3.039L17.9948 2.65104L18.452 2.29542L18.9092 1.93979L19.3991 1.64882L19.889 1.32552L20.4115 1.06688L20.934 0.840575L21.4892 0.614266L22.0444 0.420287L22.6323 0.290968L23.1875 0.161649L23.808 0.0646596L24.3958 0.0323298L25.0163 0ZM25.0163 0C25.7675 0 26.388 0.614266 26.388 1.39018C26.388 2.13377 25.7675 2.78036 25.0163 2.78036V0ZM25.0163 0C25.7675 0 26.388 0.614266 26.388 1.39018C26.388 2.13377 25.7675 2.78036 25.0163 2.78036V0ZM15.3821 14.5807H12.6061V14.4191V14.2898L12.6388 14.1281V13.9988L12.6715 13.8695L12.7368 13.7078L12.7694 13.5785L12.8347 13.4492L12.9001 13.3199L12.998 13.1906L13.0634 13.0612L13.1613 12.9319L13.2593 12.8349L13.3573 12.7379L13.4879 12.641L13.5859 12.544L13.6839 12.4793L13.8145 12.4146L13.9451 12.35L14.0431 12.2853L14.1737 12.253L14.2717 12.1883L14.4024 12.156L14.5003 12.1237L14.631 12.0913H14.7289L14.8596 12.059H14.9575L15.0882 12.0267H15.1862H15.2841H15.4148V14.8071H15.3494H15.3168H15.2841H15.2515H15.2188V14.7747H15.2515L15.2841 14.7424L15.3168 14.7101L15.3494 14.6777V14.6454V14.6131H15.3821V14.5807ZM15.3821 14.5807C15.3821 15.3243 14.7616 15.9709 13.9778 15.9709C13.2266 15.9709 12.6061 15.3243 12.6061 14.5807H15.3821ZM34.6179 14.5807H37.3939L37.2632 15.389L36.8713 16.1002L36.3815 16.6175L35.7936 17.0378L35.1731 17.3611L34.4546 17.6521L33.7035 17.9107L32.887 18.137L32.0379 18.2987L31.1234 18.4603L30.1764 18.622L29.1639 18.719L28.1515 18.7836L27.1065 18.8483L26.0614 18.8806L25.0163 18.9129H23.9386L22.8935 18.8483L21.8485 18.8159L20.8361 18.719L19.8236 18.622L18.8766 18.4926L17.9621 18.331L17.113 18.137L16.2965 17.9107L15.5454 17.6844L14.8269 17.3934L14.2064 17.0378L13.6186 16.6175L13.1287 16.1002L12.7368 15.389L12.6061 14.5807H15.3821V14.4838L15.3494 14.4514L15.4474 14.5484L15.676 14.7101L16.0353 14.8717L16.5251 15.098L17.0803 15.2597L17.7662 15.4536L18.5173 15.6153L19.3011 15.7446L20.1829 15.8739L21.0973 15.9709L22.0444 16.0356L23.0242 16.1002L24.0039 16.1326H25.0163H25.9961L26.9758 16.1002L27.9556 16.0356L28.9027 15.9709L29.8171 15.8739L30.6989 15.7446L31.4827 15.6153L32.2338 15.4536L32.9197 15.2597L33.5075 15.0657L33.9647 14.8717L34.324 14.6777L34.5526 14.5161L34.6506 14.4514L34.6179 14.4838V14.5807ZM34.6179 14.5807C34.6179 13.8048 35.2384 13.1906 36.0222 13.1906C36.7734 13.1906 37.3939 13.8048 37.3939 14.5807H34.6179ZM34.6179 14.8071V12.0267H34.7159H34.8138H34.9118L35.0425 12.059H35.1404L35.2711 12.0913H35.369L35.4997 12.1237L35.5976 12.156L35.7283 12.1883L35.8263 12.253L35.9569 12.2853L36.0875 12.35L36.1855 12.4146L36.3161 12.4793L36.4141 12.544L36.5121 12.641L36.6427 12.7379L36.7407 12.8349L36.8387 12.9319L36.9366 13.0612L37.002 13.1906L37.0999 13.3199L37.1653 13.4492L37.2306 13.5785L37.2632 13.7078L37.3285 13.8695L37.3612 13.9988V14.1281L37.3939 14.2898V14.4191V14.5807H34.6179V14.6131H34.6506V14.6454V14.6777L34.6832 14.7101H34.7159V14.7424L34.7485 14.7747H34.7812V14.8071H34.7485H34.7159H34.6832H34.6506H34.6179ZM34.6179 14.8071C33.8341 14.8071 33.2136 14.1605 33.2136 13.4169C33.2136 12.641 33.8341 12.0267 34.6179 12.0267V14.8071ZM15.4148 12.0267H34.6179V14.8071H15.4148V12.0267ZM15.4148 14.8071C14.631 14.8071 14.0105 14.1605 14.0105 13.4169C14.0105 12.641 14.631 12.0267 15.4148 12.0267V14.8071ZM15.4148 14.8071C14.631 14.8071 14.0105 14.1605 14.0105 13.4169C14.0105 12.641 14.631 12.0267 15.4148 12.0267V14.8071ZM49.9347 45.4557L47.1587 45.7143L47.0934 44.9708L46.9628 44.3242L46.7995 43.7422L46.6035 43.2249L46.3749 42.74L46.1137 42.3197L45.8524 41.9318L45.5585 41.5761L45.2319 41.2528L44.8726 40.9295L44.4807 40.6386L44.0562 40.3799L43.599 40.1213L43.1091 39.895L42.5865 39.6687L42.0314 39.4747L41.4762 39.2484L40.8883 39.0544L40.2678 38.8604L39.6473 38.6664L38.9941 38.4725L38.341 38.2785L37.6551 38.0845L36.9693 37.8582L36.2835 37.5996L35.565 37.3733L34.8792 37.0823L34.1607 36.7913L33.4422 36.468L32.7564 36.0801L32.0705 35.6921L31.3521 35.2718L32.9197 32.9764L33.5075 33.332L34.0954 33.6553L34.6832 33.9786L35.3037 34.2696L35.9242 34.5282L36.5774 34.7869L37.1979 35.0132L37.8511 35.2395L38.5042 35.4335L39.1574 35.6274L39.8106 35.8214L40.4637 36.0154L41.1169 36.2417L41.7701 36.4357L42.3906 36.662L43.0438 36.8883L43.6643 37.1146L44.2848 37.3733L44.8726 37.6966L45.4605 38.0199L46.0483 38.3755L46.6035 38.7634L47.1261 39.2161L47.6159 39.701L48.0732 40.2506L48.4977 40.8325L48.857 41.4791L49.1835 42.1581L49.4448 42.9017L49.6734 43.7099L49.8367 44.5505L49.9347 45.4557ZM49.9347 45.4557C50.0327 46.1993 49.4448 46.8782 48.6937 46.9429C47.9099 47.0075 47.2567 46.4579 47.1587 45.7143L49.9347 45.4557ZM48.5957 58.0643V55.284L47.1914 56.6741V56.4155V56.1245V55.7689V55.4456V55.0577V54.6697V54.2494V53.8291V53.3765V52.9562V52.4713V52.0187V51.566V51.1134V50.6285V50.1759V49.7232V49.303V48.8827V48.4624V48.0744V47.6865V47.3308V47.0075V46.7166L47.1587 46.4256V46.1993V46.0053V45.8437V45.7143L49.9347 45.4557L49.9673 45.585V45.682V45.8113V45.973V46.1993V46.4256V46.6842V47.0075V47.3308V47.6865V48.0421V48.4624V48.8503V49.303V49.7232V50.1759V50.6285V51.0811V51.566L50 52.0187V52.4713V52.9239V53.3765V53.8291V54.2494V54.6697V55.0577V55.4133V55.7689V56.0922V56.4155V56.6741L48.5957 58.0643ZM50 56.6741C50 57.4501 49.3795 58.0643 48.5957 58.0643C47.8445 58.0643 47.1914 57.4501 47.1914 56.6741H50ZM27.0738 55.284H48.5957V58.0643H27.0738L25.7022 56.3832L27.0738 55.284ZM27.0738 58.0643C26.29 58.0643 25.6695 57.4501 25.6695 56.6741C25.6695 55.8982 26.29 55.284 27.0738 55.284V58.0643ZM33.5075 34.3989L28.4128 56.9651L25.7022 56.3832L30.7969 33.817L32.9197 32.9764L33.5075 34.3989ZM30.7969 33.817C30.9602 33.0734 31.7113 32.5884 32.4624 32.7501C33.2136 32.9441 33.6708 33.6553 33.5075 34.3989L30.7969 33.817ZM30.7969 33.817C30.9602 33.0734 31.7113 32.5884 32.4624 32.7501C33.2136 32.9441 33.6708 33.6553 33.5075 34.3989L30.7969 33.817ZM25.049 32.7501V30.0021H25.0163L25.2776 32.7501H25.2449H25.2123H25.1796H25.147H25.1143H25.0816H25.049ZM25.049 32.7501C24.2652 32.7501 23.6447 32.1358 23.6447 31.3922C23.6447 30.6163 24.2652 30.0021 25.049 30.0021V32.7501ZM21.9464 32.3621L23.0568 29.8081L23.0895 29.8404H23.1221L23.1548 29.8727H23.1875H23.2201L23.2854 29.9051H23.3181H23.3508H23.3834L23.4161 29.9374H23.4487H23.514H23.5467L23.612 29.9697H23.6447H23.71H23.7427H23.808H23.8733L23.9386 30.0021H24.0039H24.1019H24.1672H24.2325H24.3305H24.4285H24.5265H24.6244H24.7224H24.8204H24.9184H25.049V32.7501H24.951L24.8204 32.7824H24.7224H24.5918L24.4938 32.7501H24.3958H24.2978H24.1999H24.1019H24.0039H23.9059H23.808H23.71H23.612L23.514 32.7178H23.4161H23.3181L23.2528 32.6854H23.1548H23.0568L22.9589 32.6531H22.8609L22.7629 32.6208L22.6976 32.5884H22.5996L22.5016 32.5561L22.4037 32.5238L22.3057 32.4915L22.2404 32.4591L22.1424 32.4268L22.0444 32.3945L21.9464 32.3621ZM21.9464 32.3621C21.2606 32.0712 20.934 31.2629 21.228 30.5517C21.5219 29.8404 22.3383 29.5171 23.0568 29.8081L21.9464 32.3621ZM19.6604 30.3254L21.6199 28.3209L21.6852 28.4179L21.7831 28.5149L21.8811 28.5795L21.9464 28.6765L22.0444 28.7735L22.1097 28.8382L22.1751 28.9352L22.273 28.9998L22.3383 29.0645L22.371 29.1292L22.4363 29.2261L22.5016 29.2908L22.5669 29.3231L22.5996 29.3878L22.6649 29.4525L22.6976 29.4848L22.7302 29.5494L22.7956 29.5818L22.8282 29.6141L22.8609 29.6464L22.8935 29.6788L22.9262 29.7111V29.7434H22.9589L22.9915 29.7758L23.0242 29.8081H23.0568L21.9464 32.3621L21.8485 32.2975L21.7505 32.2651L21.6199 32.2005L21.5219 32.1358L21.4239 32.0712L21.3586 32.0065L21.2606 31.9418L21.1626 31.8772L21.0973 31.8125L21.032 31.7479L20.934 31.6832L20.8687 31.6185L20.8034 31.5539L20.7381 31.4892L20.6728 31.4246L20.6401 31.3599L20.5748 31.2953L20.5095 31.2306L20.4442 31.1659L20.4115 31.1013L20.3462 31.0366L20.2809 30.972L20.2155 30.9073L20.1829 30.8426L20.1176 30.778L20.0523 30.7133L19.9869 30.6487L19.9216 30.584L19.889 30.5193L19.791 30.4547L19.7257 30.39L19.6604 30.3254ZM19.6604 30.3254C19.1052 29.7758 19.1052 28.9028 19.6277 28.3532C20.1502 27.8036 21.0647 27.8036 21.6199 28.3209L19.6604 30.3254ZM16.8844 27.5773L19.4644 26.5104V26.5428L19.4971 26.5751L19.5297 26.6074L19.5624 26.6398L19.595 26.6721L19.6277 26.7367L19.693 26.7691L19.7583 26.8337L19.8236 26.8984L19.889 26.9307L19.9543 26.9954L20.0196 27.06L20.1176 27.1247L20.1829 27.1894L20.2809 27.254L20.3462 27.3187L20.4442 27.3833L20.5421 27.448L20.6401 27.545L20.7381 27.6097L20.8361 27.6743L20.934 27.739L21.032 27.836L21.13 27.9006L21.228 27.9976L21.3259 28.0623L21.4239 28.1593L21.5219 28.2239L21.6199 28.3209L19.6604 30.3254L19.6277 30.2607L19.5624 30.2284L19.4971 30.1637L19.4317 30.099L19.3664 30.0667L19.2685 30.0021L19.2031 29.9374L19.1052 29.8727L19.0398 29.8081L18.9419 29.7434L18.8439 29.6788L18.7459 29.5818L18.6806 29.5171L18.5826 29.4525L18.4847 29.3878L18.3867 29.2908L18.2887 29.2261L18.1581 29.1292L18.0601 29.0645L17.9621 28.9675L17.8641 28.8705L17.7662 28.8059L17.6682 28.7089L17.5702 28.6119L17.4722 28.4826L17.3743 28.3856L17.2763 28.2886L17.211 28.1593L17.113 28.0299L17.015 27.9006L16.9497 27.739L16.8844 27.5773ZM16.8844 27.5773C16.5905 26.8661 16.917 26.0578 17.6355 25.7669C18.354 25.4759 19.1705 25.8315 19.4644 26.5104L16.8844 27.5773ZM18.354 24.8293L17.015 22.4046L19.0725 23.4714V23.6008L19.1052 23.7301V23.8917L19.1378 24.021V24.1504V24.2797L19.1705 24.409V24.5383V24.6353V24.7646L19.2031 24.8616V24.9909V25.0879V25.1849V25.2819L19.2358 25.3789V25.4759V25.5729L19.2685 25.6699V25.7345V25.8315L19.3011 25.8962V25.9608V26.0578L19.3338 26.1225V26.1871L19.3664 26.2518V26.2841L19.3991 26.3488V26.4135L19.4317 26.4781L19.4644 26.5104L16.8844 27.5773L16.8191 27.448L16.7864 27.3187L16.7211 27.1894L16.6884 27.06L16.6558 26.9631L16.6231 26.8337L16.5905 26.7044L16.5578 26.5751V26.4458L16.5251 26.3165V26.2195L16.4925 26.0902V25.9608L16.4598 25.8638V25.7345L16.4272 25.6375V25.5082V25.3789V25.2819L16.3945 25.1526V25.0556V24.9263V24.8293V24.7323L16.3619 24.603V24.4737V24.3767L16.3292 24.2474V24.1504V24.021L16.2965 23.9241V23.7947L18.354 24.8293ZM16.2965 23.7947C16.1986 23.0512 16.7538 22.3399 17.5049 22.2429C18.2887 22.1782 18.9745 22.6955 19.0725 23.4714L16.2965 23.7947ZM14.6963 21.661L17.4069 21.0467H17.4396V21.079V21.1114L17.4722 21.176V21.2407L17.5049 21.3053L17.5376 21.4023L17.5702 21.467V21.564L17.6355 21.6286L17.6682 21.7256L17.7008 21.8226L17.7335 21.8873L17.7662 21.9843L17.7988 22.0489L17.8315 22.1459L17.8968 22.2106L17.9295 22.2752L17.9621 22.3399L17.9948 22.4046L18.0274 22.4369L17.9621 22.4046L17.8315 22.3722L17.7008 22.3076H17.5376H17.3416L17.1457 22.3399L17.015 22.4046L18.354 24.8293L18.0601 24.9586L17.7335 25.0556H17.4069L17.113 25.0233L16.8517 24.9263L16.6231 24.8293L16.4272 24.7L16.2639 24.5707L16.1006 24.4413L15.97 24.312L15.872 24.1827L15.774 24.0534L15.676 23.9241L15.5781 23.7947L15.5127 23.6654L15.4474 23.5361L15.3821 23.4068L15.2841 23.2775L15.2515 23.1481L15.1862 23.0188L15.1208 22.8895L15.0555 22.7602L15.0229 22.6309L14.9575 22.5015L14.9249 22.4046L14.8922 22.2752L14.8596 22.1782L14.7943 22.0489V21.9519L14.7616 21.8549L14.7289 21.758L14.6963 21.661ZM14.6963 21.661C14.533 20.9174 14.9902 20.1738 15.7413 20.0121C16.4925 19.8182 17.2436 20.3031 17.4396 21.0467L14.6963 21.661ZM13.5532 17.8784L16.2639 17.3288L16.2965 17.4258L16.3292 17.4904V17.5874L16.3619 17.6844L16.3945 17.7814L16.4272 17.9107L16.4598 18.0077L16.4925 18.1047L16.5251 18.234L16.5578 18.3633L16.5905 18.4603L16.6231 18.5896L16.6884 18.719L16.7211 18.8483L16.7538 18.9453L16.8191 19.0746L16.8517 19.2039L16.8844 19.3332L16.9497 19.4625L16.9824 19.5919L17.015 19.7212L17.0803 19.8505L17.113 19.9475L17.1457 20.0768L17.1783 20.2061L17.211 20.3354L17.2763 20.4324L17.3089 20.5618L17.3416 20.6911L17.3743 20.7881L17.4069 20.9174V21.0467L14.6963 21.661V21.5963L14.6636 21.4993L14.631 21.4347V21.3377L14.5983 21.2407L14.5656 21.1437L14.533 21.0467L14.5003 20.9174L14.4677 20.8204L14.4024 20.7234L14.3697 20.5941L14.337 20.4648L14.3044 20.3354L14.2391 20.2385L14.2064 20.1091L14.1737 19.9798L14.1084 19.8505L14.0758 19.7212L14.0431 19.5919L13.9778 19.4625L13.9451 19.3332L13.9125 19.2039L13.8472 19.0746L13.8145 18.9129L13.7818 18.7836L13.7492 18.6543L13.6839 18.525L13.6512 18.3957L13.6186 18.2663L13.5859 18.137L13.5532 18.0077V17.8784ZM13.5532 17.8784C13.3899 17.1348 13.8798 16.3912 14.631 16.2619C15.3821 16.1002 16.1332 16.5852 16.2639 17.3288L13.5532 17.8784ZM15.4801 15.8739L14.2391 18.3633L16.2312 17.0701V17.1025H16.2639V17.1348V17.1671V17.1995V17.2318V17.2641V17.2964V17.3288L13.5532 17.8784L13.5206 17.8461V17.8137V17.7814V17.7491V17.7167V17.6844L13.4879 17.6521V17.6197V17.5874V17.5551V17.5228V17.4904V17.4581V17.4258H13.4553V17.3934V17.3611V17.3288V17.2964V17.2641V17.2318V17.1995V17.1671L15.4801 15.8739ZM13.4553 17.1671C13.4226 16.4235 14.0431 15.7769 14.7943 15.7446C15.5781 15.7123 16.2312 16.2942 16.2312 17.0701L13.4553 17.1671ZM25.0163 17.2964V20.0445H24.8204H24.6244H24.3958H24.1346H23.8733H23.612H23.3181L23.0242 20.0121H22.6976L22.371 19.9798H22.0118L21.6852 19.9475L21.3259 19.9152L20.9667 19.8828L20.5748 19.8505L20.2155 19.8182L19.8236 19.7858L19.4317 19.7212L19.0398 19.6889L18.6806 19.6242L18.2887 19.5595L17.8968 19.4949L17.5049 19.3979L17.113 19.3332L16.7538 19.2362L16.3619 19.1392L16.0026 19.0423L15.6107 18.9129L15.2515 18.7836L14.9249 18.6543L14.5656 18.525L14.2391 18.3633L15.4801 15.8739L15.7087 16.0033L15.97 16.1002L16.2312 16.1972L16.4925 16.2942L16.7864 16.3912L17.113 16.4559L17.4069 16.5529L17.7335 16.6175L18.0601 16.7145L18.4193 16.7792L18.7459 16.8438L19.1052 16.8762L19.4644 16.9408L19.791 16.9731L20.1502 17.0378L20.5095 17.0701L20.8361 17.1025L21.1953 17.1348L21.5219 17.1671L21.8811 17.1995H22.2077L22.5016 17.2318H22.8282L23.1221 17.2641H23.4161H23.6773L23.9386 17.2964H24.1999H24.4285H24.6244H24.8204H25.0163ZM25.0163 17.2964C25.7675 17.2964 26.388 17.9107 26.388 18.6866C26.388 19.4302 25.7675 20.0445 25.0163 20.0445V17.2964ZM36.5121 17.1671L33.7361 17.0701L35.7609 18.3633L35.4017 18.525L35.0751 18.6543L34.7159 18.7836L34.3566 18.9129L33.9974 19.0423L33.6055 19.1392L33.2462 19.2362L32.8543 19.3332L32.4951 19.3979L32.1032 19.4625L31.7113 19.5595L31.3194 19.6242L30.9275 19.6565L30.5356 19.7212L30.1764 19.7858L29.7845 19.8182L29.4252 19.8505L29.0333 19.8828L28.6741 19.9152L28.3148 19.9475L27.9882 19.9798H27.629L27.3024 20.0121H27.0085H26.6819L26.388 20.0445H26.1267H25.8654H25.6368H25.4082H25.1796H25.0163V17.2964H25.1796H25.3756H25.5715H25.8001L26.0614 17.2641H26.3227H26.5839H26.8779L27.1718 17.2318H27.4984L27.7923 17.1995H28.1189L28.4455 17.1671L28.8047 17.1348L29.1313 17.1025L29.4905 17.0701L29.8498 17.0378L30.1764 16.9731L30.5356 16.9408L30.8948 16.8762L31.2214 16.8115L31.5807 16.7468L31.9073 16.6822L32.2338 16.6175L32.5604 16.5529L32.887 16.4559L33.1809 16.3912L33.4749 16.2942L33.7688 16.1972L34.03 16.1002L34.2913 16.0033L34.5199 15.8739L36.5121 17.1671ZM34.5199 15.8739C35.2057 15.5506 36.0549 15.8416 36.3815 16.5205C36.7407 17.1995 36.4468 18.04 35.7609 18.3633L34.5199 15.8739ZM36.4468 17.8784L33.7035 17.3288V17.2964V17.2641V17.2318H33.7361V17.1995V17.1671V17.1348V17.1025V17.0701L36.5121 17.1671V17.1995V17.2318V17.2641V17.2964V17.3288V17.3611V17.3934V17.4258V17.4581V17.4904V17.5228V17.5551H36.4794V17.5874V17.6197V17.6521V17.6844V17.7167V17.7491H36.4468V17.7814V17.8137V17.8461V17.8784ZM36.4468 17.8784C36.2835 18.622 35.565 19.1069 34.8138 18.9776C34.0627 18.8159 33.5402 18.1047 33.7035 17.3288L36.4468 17.8784ZM35.2711 21.661L32.5604 21.0467L32.5931 20.9174L32.6257 20.8204L32.6584 20.6911L32.6911 20.5618L32.7237 20.4324L32.7564 20.3354L32.789 20.2061L32.8217 20.0768L32.887 19.9475L32.9197 19.8505L32.9523 19.7212L33.0176 19.5919L33.0503 19.4625L33.083 19.3332L33.1483 19.2039L33.1809 19.0746L33.2136 18.9453L33.2462 18.8483L33.3116 18.719L33.3442 18.5896L33.3769 18.4603L33.4095 18.3633L33.4749 18.234L33.5075 18.1047L33.5402 18.0077L33.5728 17.9107L33.6055 17.7814V17.6844L33.6381 17.5874L33.6708 17.4904V17.4258L33.7035 17.3288L36.4468 17.8784L36.4141 18.0077L36.3815 18.137L36.3488 18.2663L36.3161 18.3957L36.2835 18.525L36.2508 18.6543L36.2182 18.7836L36.1528 18.9129L36.1202 19.0746L36.0875 19.2039L36.0549 19.3332L35.9896 19.4625L35.9569 19.5919L35.8916 19.7212L35.8589 19.8505L35.8263 19.9798L35.7609 20.1091L35.7283 20.2385L35.6956 20.3354L35.6303 20.4648L35.5976 20.5941L35.565 20.7234L35.5323 20.8204L35.4997 20.9174L35.467 21.0467L35.4344 21.1437L35.4017 21.2407L35.369 21.3377L35.3364 21.4347L35.3037 21.4993V21.5963L35.2711 21.661ZM35.2711 21.661C35.1078 22.4046 34.3566 22.8572 33.6055 22.6955C32.8543 22.5339 32.3971 21.7903 32.5604 21.0467L35.2711 21.661ZM33.7035 23.7947L30.9275 23.4714L32.9197 22.4046L32.7564 22.3399L32.5604 22.3076H32.3971L32.2338 22.3399L32.1032 22.3722L32.0052 22.4046L31.9726 22.4369L32.0052 22.3722L32.0379 22.3399L32.0705 22.2752L32.1032 22.2106L32.1359 22.1136L32.1685 22.0489L32.2338 21.9843L32.2665 21.8873L32.2992 21.7903L32.3318 21.7256L32.3645 21.6286L32.3971 21.5317L32.4298 21.467L32.4624 21.37L32.4951 21.3053V21.2407L32.5278 21.176V21.1114L32.5604 21.079V21.0467L35.2711 21.661V21.758L35.2384 21.8549L35.2057 21.9519L35.1731 22.0489L35.1404 22.1459L35.1078 22.2752L35.0751 22.3722L35.0098 22.5015L34.9771 22.6309L34.9118 22.7602L34.8792 22.8895L34.8138 23.0188L34.7485 23.1481L34.6832 23.2775L34.6179 23.4068L34.5526 23.5361L34.4873 23.6654L34.4219 23.7947L34.324 23.9241L34.226 24.0534L34.128 24.1827L34.03 24.2797L33.8994 24.409L33.7688 24.5383L33.6055 24.6676L33.4422 24.797L33.2136 24.8939L32.9523 24.9909L32.6584 25.0556H32.3318L32.0379 24.9909L31.7113 24.8939L33.7035 23.7947ZM31.7113 24.8939C31.0255 24.5707 30.7315 23.7301 31.0581 23.0512C31.3847 22.3722 32.2338 22.0489 32.9197 22.4046L31.7113 24.8939ZM33.1483 27.5127L30.5683 26.4458L30.6009 26.4135V26.3488L30.6336 26.2841V26.2195L30.6662 26.1871V26.1225L30.6989 26.0578V25.9932L30.7315 25.9285V25.8315V25.7669L30.7642 25.7022V25.6052V25.5082L30.7969 25.4436V25.3466V25.2496V25.1526L30.8295 25.0556V24.9586V24.8616V24.7323V24.6353L30.8622 24.506V24.409V24.2797V24.1504L30.8948 24.021V23.8917V23.7624L30.9275 23.6331V23.4714L33.7035 23.7947V23.9241V24.021L33.6708 24.1504V24.2474V24.3767L33.6381 24.4737V24.5707V24.7V24.797L33.6055 24.9263V25.0233V25.1526V25.2496V25.3466L33.5728 25.4759V25.5729V25.7022L33.5402 25.7992V25.9285V26.0578L33.5075 26.1548L33.4749 26.2841V26.3811L33.4422 26.5104L33.4095 26.6398V26.7691L33.3769 26.8984L33.3116 26.9954L33.2789 27.1247L33.2462 27.254L33.2136 27.3833L33.1483 27.5127ZM33.1483 27.5127C32.8543 28.2239 32.0379 28.5472 31.3194 28.2563C30.6009 27.9653 30.2743 27.157 30.5683 26.4458L33.1483 27.5127ZM30.3723 30.2607L28.4128 28.2886L28.5108 28.1916L28.6088 28.0946L28.7067 28.0299L28.8047 27.933L28.9027 27.8683L29.0007 27.7713L29.0986 27.7066L29.1966 27.6097L29.2946 27.545L29.3926 27.4803L29.4905 27.4157L29.5885 27.351L29.6538 27.254L29.7518 27.1894L29.8498 27.1247L29.9151 27.06L29.9804 26.9954L30.0784 26.9307L30.1437 26.8984L30.209 26.8337L30.2743 26.7691L30.3396 26.7044L30.3723 26.6721L30.4376 26.6074L30.4703 26.5751L30.5029 26.5428L30.5356 26.5104V26.4781L30.5683 26.4458L33.1483 27.5127L33.083 27.6743L32.985 27.8036L32.9197 27.9653L32.8217 28.0623L32.7237 28.1916L32.6584 28.3209L32.5604 28.4179L32.4624 28.5149L32.3645 28.6119L32.2665 28.7089L32.1685 28.8059L32.0705 28.9028L31.9726 28.9675L31.8746 29.0645L31.7766 29.1292L31.6786 29.2261L31.5807 29.2908L31.4827 29.3878L31.3847 29.4525L31.2867 29.5171L31.1888 29.5818L31.0908 29.6788L31.0255 29.7434L30.9275 29.8081L30.8295 29.8727L30.7642 29.9374L30.6989 30.0021L30.6009 30.0344L30.5356 30.099L30.5029 30.1637L30.4376 30.196L30.3723 30.2607ZM30.3723 30.2607C29.8171 30.778 28.9353 30.778 28.4128 30.2284C27.8576 29.6788 27.8903 28.8059 28.4128 28.2886L30.3723 30.2607ZM28.0862 32.3298L26.9758 29.7758H27.0085H27.0412V29.7434H27.0738V29.7111H27.1065L27.1391 29.6788V29.6464L27.1718 29.6141L27.2044 29.5818L27.2698 29.5494L27.3024 29.5171L27.3351 29.4525L27.3677 29.4201L27.4331 29.3555L27.4657 29.2908L27.531 29.2261L27.5963 29.1615L27.6617 29.0968L27.727 29.0322L27.7923 28.9675L27.8576 28.8705L27.9229 28.8059L27.9882 28.7089L28.0862 28.6442L28.1515 28.5472L28.2495 28.4502L28.3475 28.3856L28.4128 28.2886L30.3723 30.2607L30.307 30.3254L30.2417 30.39L30.1764 30.4547L30.111 30.5193L30.0457 30.584L29.9804 30.6487L29.9477 30.7133L29.8824 30.778L29.8171 30.8426L29.7518 30.9073L29.7191 30.972L29.6538 31.0366L29.5885 31.1013L29.5558 31.1659L29.4905 31.2306L29.4252 31.2953L29.3599 31.3599L29.2946 31.4246L29.2293 31.4892L29.1639 31.5539L29.0986 31.6185L29.0333 31.6832L28.968 31.7802L28.87 31.8449L28.8047 31.9095L28.7067 31.9742L28.6414 32.0388L28.5434 32.1035L28.4455 32.1682L28.3148 32.2005L28.2169 32.2651L28.1189 32.3298H28.0862ZM28.1189 32.3298C27.4004 32.6208 26.5839 32.3298 26.2573 31.6185C25.9634 30.9073 26.2573 30.099 26.9758 29.8081L28.1189 32.3298ZM25.2776 32.7501L25.0163 30.0021H25.147H25.2449H25.3429H25.4409H25.5389H25.6042H25.7022H25.8001H25.8654L25.9308 29.9697H25.9961H26.0614H26.1267H26.192H26.2573H26.3227L26.3553 29.9374H26.4206H26.4533H26.5186H26.5513L26.5839 29.9051H26.6166H26.6493L26.7146 29.8727H26.7472H26.7799H26.8125L26.8452 29.8404H26.8779L26.9105 29.8081H26.9432L26.9758 29.7758L28.0862 32.3298L28.0209 32.3621L27.9229 32.3945L27.8576 32.4268L27.7596 32.4591L27.6617 32.4915L27.5963 32.5238H27.4984L27.4004 32.5561L27.3351 32.5884H27.2371L27.1391 32.6208L27.0738 32.6531H26.9758L26.8779 32.6854H26.7799H26.7146L26.6166 32.7178H26.5186H26.4206H26.3553L26.2573 32.7501H26.1594H26.0614H25.9634H25.8654H25.7675H25.6695H25.5715H25.4735H25.3756H25.2449H25.147H25.2776ZM25.147 32.7501C24.3958 32.7501 23.7427 32.1358 23.7427 31.3922C23.7427 30.6163 24.3632 30.0021 25.147 30.0021V32.7501ZM25.147 32.7501C24.3958 32.7501 23.7427 32.1358 23.7427 31.3922C23.7427 30.6163 24.3632 30.0021 25.147 30.0021V32.7501Z" fill="white"/>
</g>
<defs>
<clipPath id="clip0">
<rect width="50" height="58.0645" fill="white"/>
</clipPath>
</defs>
</svg>
