<svg width="50" height="52" viewBox="0 0 50 52" fill="none" xmlns="http://www.w3.org/2000/svg">
<path fill-rule="evenodd" clip-rule="evenodd" d="M9.50266 9.08385V10.3307H21.048V9.08385H9.50266ZM8.17052 11.0431H10.8348V13.0024H19.7158V11.0431H22.3801V10.5978H8.17052V11.0431ZM19.7158 33.8418V33.3965H10.8348V33.8418H19.7158ZM10.8348 31.1701V32.0607H19.7158V31.1701H10.8348ZM10.8348 28.8546V29.6561H19.7158V28.8546H10.8348ZM10.8348 26.45V27.2516H19.7158V26.45H10.8348ZM10.8348 24.0455V24.847H19.7158V24.0455H10.8348ZM10.8348 21.6409V22.5315H19.7158V21.6409H10.8348ZM10.8348 19.3254V20.127H19.7158V19.3254H10.8348ZM10.8348 16.9209V17.7224H19.7158V16.9209H10.8348ZM10.8348 14.5164V15.3179H19.7158V14.5164H10.8348ZM20.1599 11.4884V34.0199H23.9787V11.4884H20.1599ZM6.57194 11.4884V34.0199H10.3908V11.4884H6.57194ZM5.95027 34.5543V37.6713H24.6004V34.5543H5.95027ZM6.2167 3.02795H43.7833C45.4707 3.02795 46.9805 4.45287 46.9805 6.23402V45.4193C46.9805 47.2004 45.4707 48.6253 43.7833 48.6253H6.2167C4.4405 48.6253 3.01954 47.2004 3.01954 45.4193V6.23402C3.01954 4.45287 4.4405 3.02795 6.2167 3.02795ZM6.2167 0H43.7833C47.1581 0 50 2.76078 50 6.23402V45.4193C50 48.8925 47.1581 51.6533 43.7833 51.6533H6.2167C2.75311 51.6533 0 48.8925 0 45.4193V6.23402C0 2.76078 2.75311 0 6.2167 0ZM6.03908 42.3913H44.0497V44.8849H6.03908V42.3913ZM26.643 33.5746H44.0497V36.0682H26.643V33.5746ZM26.643 24.6689H44.0497V27.1625H26.643V24.6689ZM26.643 15.8522H44.0497V18.3458H26.643V15.8522ZM26.4654 7.12459H43.8721V9.6182H26.4654V7.12459ZM8.61456 8.72762H21.9361V7.65893H8.61456V8.72762Z" fill="white"/>
</svg>
