<svg width="50" height="52" fill="none" xmlns="http://www.w3.org/2000/svg"><path fill-rule="evenodd" clip-rule="evenodd" d="M9.503 9.084v1.247h11.545V9.084H9.503zm-1.332 1.96h2.664v1.958h8.88v-1.959h2.665v-.445H8.17v.445zm11.545 22.798v-.445h-8.881v.445h8.88zm-8.881-2.672v.89h8.88v-.89h-8.88zm0-2.315v.801h8.88v-.801h-8.88zm0-2.405v.802h8.88v-.802h-8.88zm0-2.404v.801h8.88v-.802h-8.88zm0-2.405v.89h8.88v-.89h-8.88zm0-2.316v.802h8.88v-.802h-8.88zm0-2.404v.801h8.88v-.801h-8.88zm0-2.405v.802h8.88v-.802h-8.88zm9.325-3.028V34.02h3.819V11.488h-3.82zm-13.588 0V34.02h3.819V11.488H6.57zM5.95 34.554v3.117H24.6v-3.117H5.95zm.267-31.526h37.566c1.688 0 3.197 1.425 3.197 3.206v39.185c0 1.781-1.51 3.206-3.197 3.206H6.217A3.188 3.188 0 013.02 45.42V6.234a3.188 3.188 0 013.197-3.206zm0-3.028h37.566C47.158 0 50 2.76 50 6.234v39.185c0 3.474-2.842 6.234-6.217 6.234H6.217C2.753 51.653 0 48.893 0 45.42V6.234C0 2.761 2.753 0 6.217 0zm-.178 42.391h38.01v2.494H6.04V42.39zm20.604-8.816H44.05v2.493H26.643v-2.493zm0-8.906H44.05v2.494H26.643v-2.494zm0-8.817H44.05v2.494H26.643v-2.494zm-.178-8.727h17.407v2.493H26.465V7.125zM8.615 8.728h13.321v-1.07H8.615v1.07z" fill="#fff"/></svg>