<svg width="50" height="59" fill="none" xmlns="http://www.w3.org/2000/svg"><g clip-path="url(#clip0)"><path d="M21.587 56.965L16.492 34.4l2.711-.582 5.095 22.566-1.372 1.681-1.339-1.099zm2.71-.582a1.375 1.375 0 01-1.044 1.649 1.41 1.41 0 01-1.666-1.067l2.71-.582zM1.405 55.284h21.522v2.78H1.404L0 56.674l1.404-1.39zm0 2.78A1.387 1.387 0 010 56.674c0-.776.62-1.39 1.404-1.39v2.78zM.033 45.456l2.776.258v-.032l.032-.032v.064l-.032.13v10.831H0v-6.953l.033-.42v-3.847zm0 0c.065-.776.75-1.326 1.535-1.261.75.065 1.339.743 1.24 1.487l-2.775-.226zm19.17-11.639l-2.71.582 2.122.873-.685.42-.686.388-.719.388-.686.323-.718.291-.719.291-.685.227-.686.258-.686.227-.686.194-.653.193-.653.194-.62.194-.621.194-.588.194-.588.227-.523.194-.522.226-.49.226-.457.259-.425.259-.392.29-.359.324-.326.323-.294.356-.294.388-.229.42-.229.485-.195.517-.164.582-.13.647-.098.743-2.776-.258.13-.906.164-.84.228-.808.261-.744.327-.679.36-.646.424-.582.457-.55.49-.485.522-.453.556-.387.555-.356.62-.323.588-.324.62-.258.621-.227.62-.226.654-.226.653-.194.653-.227.653-.194.654-.194.653-.194.653-.194.653-.226.62-.226.654-.259.62-.258.588-.291.62-.324.588-.323.556-.356 2.155.841zm-2.155-.84a1.453 1.453 0 011.96.355c.424.647.26 1.487-.393 1.94l-1.567-2.296zm7.805.808h.36l-.066 2.748h-.36l-1.11-2.166 1.176-.582zm-.065 2.748a1.407 1.407 0 01-1.372-1.423c.033-.743.686-1.358 1.437-1.325l-.065 2.748zm-2.972.582l1.861-2.748 2.32 1.551-1.862 2.748-2.58-.678.26-.873zm2.319 1.551a1.453 1.453 0 01-1.96.356c-.62-.42-.816-1.293-.36-1.907l2.32 1.551zm-2.515 0l-.066-.678 2.81-.194.032.678-2.384 1.067-.392-.873zm2.776-.194c.065.776-.523 1.423-1.306 1.488-.752.032-1.438-.518-1.47-1.294l2.776-.194zm-.85 2.62l-1.534-1.553 1.992-1.94 1.535 1.552.196 1.714-2.188.226zm1.993-1.94a1.375 1.375 0 010 1.971 1.44 1.44 0 01-1.992-.032l1.992-1.94zm-3.887 3.006l1.699-2.78 2.384 1.487-1.731 2.748-2.58-.679.229-.776zm2.352 1.455c-.392.647-1.274.84-1.927.42a1.32 1.32 0 01-.425-1.875l2.352 1.455zm-1.927 13.126l-.653-13.805 2.809-.13.62 13.805-1.372 1.455-1.404-1.325zm2.776-.13c.065.776-.555 1.423-1.306 1.455-.784.033-1.437-.55-1.47-1.325l2.776-.13zm1.764 1.455H23.48v-2.78h3.136l1.371 1.455-1.371 1.325zm0-2.78a1.38 1.38 0 011.371 1.39c0 .776-.62 1.39-1.371 1.39v-2.78zm1.96-12.35l-.589 13.805-2.776-.13.588-13.772 2.58-.679.196.776zm-2.777-.097a1.361 1.361 0 011.437-1.326c.784.033 1.372.68 1.34 1.423l-2.777-.097zm.85-3.427l1.73 2.748-2.384 1.455-1.73-2.748.195-1.714 2.188.259zm-2.385 1.455a1.4 1.4 0 01.457-1.908 1.431 1.431 0 011.927.453l-2.384 1.455zm3.723-1.293l-1.535 1.52-1.992-1.94 1.535-1.52 2.384 1.034-.392.906zm-1.992-1.94a1.44 1.44 0 011.992-.032c.523.55.555 1.422 0 1.972l-1.992-1.94zm2.45.355l-.066.68-2.776-.162.033-.712 2.547-.678.261.872zm-2.81-.194A1.437 1.437 0 0127.14 36.5a1.432 1.432 0 011.306 1.487l-2.808-.194zm.687-3.394l1.861 2.716-2.286 1.551-1.894-2.715 1.208-2.166 1.11.614zm-2.32 1.552c-.424-.647-.26-1.487.393-1.94a1.39 1.39 0 011.927.388l-2.32 1.552zm0 0c-.424-.647-.26-1.487.393-1.94a1.39 1.39 0 011.927.388l-2.32 1.552zm-.75-33.785l-2.646.873 1.013-1.81.229-.033.195-.032.196-.032.229-.065.196-.032.229-.033h.196l.228-.032.196-.032.229-.033h.392l.228-.032h1.274l.228.032h.425l.196.033.229.032.195.032h.197l.228.033.196.032.229.065.196.032.195.032.23.033-.621 2.715-.196-.032-.164-.032-.163-.033-.163-.032-.164-.032-.163-.033-.196-.032h-.163l-.163-.032h-.196l-.164-.033h-.326l-.196-.032h-.686l-.163.032h-.359l-.164.033h-.196l-.163.032h-.163l-.164.032-.195.033-.164.032-.163.032-.163.033-.164.032-.163.032.98-1.778zm-.98 1.778a1.44 1.44 0 01-1.698-1.034 1.424 1.424 0 011.045-1.681l.653 2.715zm.62 5.884L20.607 3.04l2.646-.873 2.319 6.79-1.34 1.81-1.338-.938zm2.678-.873c.23.712-.163 1.488-.881 1.746-.751.226-1.535-.162-1.797-.873l2.678-.873zm.196 1.81h-1.534V8.019h1.534l1.34 1.81-1.34.938zm0-2.747c.784 0 1.405.614 1.405 1.358 0 .776-.62 1.39-1.405 1.39V8.018zm3.626-4.979l-2.287 6.79-2.645-.874 2.286-6.789 1.633-.937 1.013 1.81zm-2.646-.873c.229-.743 1.013-1.131 1.764-.873.718.227 1.11 1.002.882 1.746l-2.646-.873zm0 0c.229-.743 1.013-1.131 1.764-.873.718.227 1.11 1.002.882 1.746l-2.646-.873zm8.328 11.542l.686-2.684-1.731 1.39-.033-.452-.065-.453-.065-.452-.098-.453-.098-.452-.13-.453-.164-.42-.163-.453-.196-.42-.196-.42-.229-.42-.261-.389-.261-.388-.262-.355-.294-.388-.294-.324-.326-.355-.327-.291-.359-.324-.327-.258-.392-.259-.359-.258-.392-.227-.392-.194-.391-.194-.392-.129-.425-.162-.424-.097-.425-.097-.425-.064-.424-.033h-.425V0l.588.032.62.033.588.097.588.129.556.13.555.193.555.227.523.226.522.259.49.323.49.29.49.356.424.356.457.388.425.388.392.42.392.453.359.452.327.453.326.485.327.517.261.485.261.55.262.517.196.55.195.55.164.549.163.582.098.582.098.582.065.582.033.582-1.73 1.39zm1.731-1.39c.033.743-.555 1.39-1.339 1.422a1.382 1.382 0 01-1.437-1.325l2.776-.097zm-2.188 1.325v-2.748h.49l.032.033h.229l.033.032h.13l.033.032h.131l.032.032h.033l-.686 2.684h-.033l-.032-.033h-.163v-.032h-.229zm0 0a1.387 1.387 0 01-1.404-1.39c0-.744.62-1.358 1.404-1.358v2.748zm-19.203-2.748h19.203v2.748H15.415v-2.748zm0 2.748a1.387 1.387 0 01-1.404-1.39c0-.744.62-1.358 1.404-1.358v2.748zm-2.221-1.325l2.776.097-1.73-1.39h.032l.032-.033h.131l.033-.032h.13l.033-.033h.229l.032-.032h.523v2.748h-.262v.032h-.163l-.033.033h-.032l-1.731-1.39zm1.73 1.39c-.75.162-1.501-.259-1.697-1.002-.196-.744.26-1.488 1.012-1.681l.686 2.683zM25.017 0v2.78h-.457l-.424.033-.425.064-.425.097-.424.097-.425.162-.392.13-.392.193-.391.194-.392.227-.36.258-.359.259-.359.258-.36.324-.326.29-.294.356-.326.324-.294.388-.261.355-.262.388-.228.388-.229.42-.229.42-.196.421-.163.453-.163.42-.13.453-.099.452-.098.453-.065.452-.065.453-.033.453-2.776-.097.033-.582.065-.582.098-.582.098-.582.163-.582.164-.55.196-.55.195-.549.262-.517.26-.55.262-.485.327-.517.326-.485.327-.453.36-.452.391-.453.392-.42.425-.388.457-.388.457-.356.457-.355.49-.291.49-.323.523-.26.522-.225.555-.227.555-.194.588-.129.555-.13.621-.096.588-.033.62-.032zm0 0a1.38 1.38 0 011.372 1.39c0 .744-.62 1.39-1.372 1.39V0zm0 0a1.38 1.38 0 011.372 1.39c0 .744-.62 1.39-1.372 1.39V0zm-9.634 14.58h-2.776v-.29l.033-.162v-.13l.033-.128.065-.162.032-.13.066-.129.065-.13.098-.128.065-.13.098-.13.098-.096.098-.097.13-.097.099-.097.098-.065.13-.064.131-.065.098-.065.13-.032.099-.065.13-.032.098-.032.131-.033h.098l.13-.032h.098l.131-.032h.326v2.78h-.195v-.032h.033l.032-.033.033-.032.032-.032v-.065h.033v-.032zm0 0c0 .744-.62 1.39-1.404 1.39-.751 0-1.372-.646-1.372-1.39h2.776zm19.236 0h2.776l-.13.809-.393.711-.49.517-.587.42-.62.324-.72.291-.75.259-.817.226-.85.162-.914.161-.947.162-1.012.097-1.013.065-1.044.064-1.046.033-1.045.032H23.94l-1.046-.065-1.044-.032-1.013-.097-1.012-.097-.947-.13-.915-.161-.849-.194-.816-.226-.752-.227-.718-.29-.62-.356-.588-.42-.49-.518-.392-.711-.13-.808h2.775v-.097l-.033-.033.098.097.229.162.36.162.49.226.554.162.686.194.751.161.784.13.882.129.914.097.947.065.98.064.98.033h1.992l.98-.033.98-.064.947-.065.914-.097.882-.13.784-.129.75-.161.687-.194.587-.194.458-.194.359-.194.229-.162.098-.065-.033.033v.097zm0 0c0-.775.62-1.39 1.404-1.39a1.38 1.38 0 011.372 1.39h-2.776zm0 .227v-2.78h.293l.13.032h.098l.131.032h.098l.13.033.099.032.13.032.098.065.13.032.131.065.098.065.131.064.098.065.098.097.13.097.099.097.098.097.098.13.065.129.098.129.065.13.066.129.032.129.066.162.032.129v.13l.033.16v.293h-2.776v.032h.033v.065l.032.032h.033v.032l.032.033h.033v.032h-.163zm0 0a1.408 1.408 0 01-1.404-1.39c0-.776.62-1.39 1.404-1.39v2.78zm-19.203-2.78h19.203v2.78H15.415v-2.78zm0 2.78a1.408 1.408 0 01-1.404-1.39c0-.776.62-1.39 1.404-1.39v2.78zm0 0a1.408 1.408 0 01-1.404-1.39c0-.776.62-1.39 1.404-1.39v2.78zm34.52 30.649l-2.776.258-.066-.743-.13-.647-.163-.582-.197-.517-.228-.485-.261-.42-.262-.388-.293-.356-.327-.323-.36-.324-.391-.29-.425-.26-.457-.258-.49-.226-.523-.226-.555-.194-.555-.227-.588-.194-.62-.194-.62-.194-.654-.194-.653-.194-.686-.194-.686-.226-.686-.258-.718-.227-.686-.29-.718-.292-.719-.323-.686-.388-.685-.388-.719-.42 1.568-2.296.587.356.588.323.588.324.62.29.621.26.653.258.62.226.654.227.653.194.653.193.654.194.653.194.653.227.653.194.62.226.654.226.62.227.62.258.589.324.588.323.587.355.555.388.523.453.49.485.457.55.425.582.359.646.327.68.26.743.23.808.163.84.098.906zm0 0c.098.743-.49 1.422-1.241 1.487a1.415 1.415 0 01-1.535-1.229l2.776-.258zm-1.34 12.608v-2.78l-1.404 1.39v-9.957l-.032-.291v-.712l2.776-.258.032.129v5.981l.033.453v4.655l-1.404 1.39zM50 56.674c0 .776-.62 1.39-1.404 1.39-.752 0-1.405-.614-1.405-1.39H50zm-22.926-1.39h21.522v2.78H27.074l-1.372-1.68 1.372-1.1zm0 2.78a1.387 1.387 0 01-1.405-1.39c0-.776.621-1.39 1.405-1.39v2.78zM33.507 34.4l-5.094 22.566-2.71-.582 5.094-22.566 2.123-.84.587 1.422zm-2.71-.582a1.41 1.41 0 011.665-1.067c.752.194 1.209.905 1.045 1.649l-2.71-.582zm0 0a1.41 1.41 0 011.665-1.067c.752.194 1.209.905 1.045 1.649l-2.71-.582zm-5.748-1.067v-2.748h-.033l.262 2.748h-.229zm0 0c-.784 0-1.404-.614-1.404-1.358 0-.776.62-1.39 1.404-1.39v2.748zm-3.103-.388l1.11-2.554.034.032h.032l.033.033h.065l.065.032h.098l.033.032h.131l.065.033h.261l.066.032h1.11v2.748h-.098l-.13.032h-.229l-.098-.032h-.882l-.098-.032h-.196l-.065-.033h-.196l-.098-.032h-.098l-.098-.032-.065-.033H22.6l-.098-.032-.098-.032-.098-.032-.066-.033-.098-.032-.098-.032-.098-.033zm0 0c-.685-.29-1.012-1.1-.718-1.81.294-.712 1.11-1.035 1.829-.744l-1.11 2.554zm-2.286-2.037l1.96-2.004.065.097.098.097.098.064.065.098.098.096.066.065.065.097.098.065.065.064.033.065.065.097.066.065.065.032.033.065.065.064.033.033.032.064.066.033.032.032.033.032.032.033.033.032v.032h.033l.032.033.033.032h.033l-1.11 2.554-.098-.065-.099-.032-.13-.065-.098-.064-.098-.065-.065-.064-.098-.065-.098-.065-.066-.064-.065-.065-.098-.065-.065-.064-.066-.065-.065-.065-.065-.064-.033-.065-.065-.065-.066-.064-.065-.065-.032-.065-.066-.064-.065-.065-.066-.065-.032-.064-.065-.065-.066-.065-.065-.064-.065-.065-.033-.065-.098-.064-.065-.065-.066-.065zm0 0a1.406 1.406 0 01-.032-1.972c.522-.55 1.437-.55 1.992-.032l-1.96 2.004zm-2.776-2.748l2.58-1.067v.033l.033.032.033.032.032.033.033.032.033.065.065.032.065.065.066.064.065.033.065.064.066.065.098.065.065.064.098.065.065.065.098.064.098.065.098.097.098.065.098.064.098.065.098.097.098.065.098.097.098.064.098.097.098.065.098.097-1.96 2.004-.032-.064-.066-.033-.065-.064-.065-.065-.066-.032-.098-.065-.065-.065-.098-.064-.065-.065-.098-.065-.098-.064-.098-.097-.065-.065-.098-.064-.098-.065-.098-.097-.098-.065-.13-.097-.099-.065-.098-.096-.098-.098-.098-.064-.098-.097-.098-.097-.098-.13-.098-.096-.098-.097-.065-.13-.098-.13-.098-.128-.065-.162-.066-.162zm0 0a1.374 1.374 0 01.752-1.81 1.426 1.426 0 011.828.743l-2.58 1.067zm1.47-2.748l-1.339-2.424 2.058 1.066v.13l.032.13v.16l.033.13v.259l.032.129v.356l.033.097v.419l.033.097v.194l.032.097v.161l.033.065v.162l.033.064v.065l.032.065v.032l.033.065v.064l.033.065.032.032-2.58 1.067-.065-.129-.033-.13-.065-.129-.033-.129-.032-.097-.033-.13-.033-.129-.032-.129v-.13l-.033-.128v-.098l-.032-.129v-.13l-.033-.096v-.13l-.033-.097v-.355l-.032-.13v-.419l-.033-.129v-.226l-.033-.13v-.226l-.032-.097v-.13l2.057 1.035zm-2.057-1.034c-.098-.744.457-1.455 1.208-1.552.784-.065 1.47.453 1.568 1.228l-2.776.324zm-1.6-2.134l2.71-.614h.033v.064l.032.065v.065l.033.064.033.097.032.065v.097l.066.065.032.097.033.097.032.064.033.097.033.065.032.097.066.065.033.064.032.065.033.065.032.032-.065-.032-.13-.033-.131-.064h-.359l-.196.032-.131.065 1.339 2.424-.294.13-.326.097h-.327l-.294-.033-.261-.097-.229-.097-.196-.129-.163-.13-.163-.129-.131-.129-.098-.13-.098-.129-.098-.129-.098-.13-.065-.129-.066-.129-.065-.13-.098-.128-.033-.13-.065-.13-.065-.128-.066-.13-.032-.13-.066-.128-.032-.097-.033-.13-.032-.097-.066-.13v-.096l-.032-.097-.033-.097-.033-.097zm0 0a1.375 1.375 0 011.044-1.649c.752-.194 1.503.291 1.699 1.035l-2.744.614zm-1.144-3.783l2.71-.55.034.098.032.064v.097l.033.097.033.097.032.13.033.097.032.097.033.129.033.13.032.096.033.13.065.129.033.13.033.096.065.13.033.129.032.13.066.128.032.13.033.13.065.128.033.098.033.129.032.13.033.128.065.097.033.13.033.13.032.096.033.13v.129l-2.71.614v-.065l-.033-.097-.033-.064v-.097l-.033-.097-.032-.097-.033-.097-.033-.13-.032-.097-.066-.097-.032-.129-.033-.13-.033-.129-.065-.097-.033-.129-.032-.13-.066-.128-.032-.13-.033-.13-.065-.129-.033-.129-.033-.13-.065-.128-.032-.162-.033-.13-.033-.129-.065-.129-.033-.13-.032-.129-.033-.129-.033-.13v-.129zm0 0a1.349 1.349 0 011.078-1.616c.751-.162 1.502.323 1.633 1.067l-2.71.55zm1.927-2.004l-1.24 2.49 1.991-1.294v.032h.033v.227l-2.71.55-.033-.033v-.162l-.033-.032v-.226h-.033v-.259l2.025-1.293zm-2.025 1.293c-.032-.744.588-1.39 1.34-1.422.783-.033 1.436.55 1.436 1.325l-2.776.097zm11.561.13v2.747h-1.698l-.294-.032h-.326l-.327-.032h-.36l-.326-.032-.36-.033-.358-.032-.392-.032-.36-.033-.391-.032-.392-.065-.392-.032-.36-.065-.391-.064-.392-.065-.392-.097-.392-.065-.36-.097-.391-.097-.36-.097-.391-.13-.36-.128-.326-.13-.36-.129-.326-.162 1.241-2.49.229.13.261.097.261.097.261.097.294.097.327.065.294.097.326.064.327.098.36.064.326.065.36.032.358.065.327.032.36.065.358.032.327.032.36.033.326.032.36.032h.326l.294.033h.326l.294.032h.555l.262.032h1.077zm0 0a1.373 1.373 0 010 2.748v-2.749zm11.496-.13l-2.776-.097 2.025 1.293-.36.162-.326.13-.36.129-.358.129-.36.13-.392.096-.359.097-.392.097-.359.065-.392.064-.392.098-.392.064-.392.033-.391.064-.36.065-.391.032-.36.032-.392.033-.359.032-.36.033-.326.032h-.359l-.327.032h-.62l-.294.032h-1.372v-2.748h.785l.26-.032h.817l.294-.032h.326l.294-.032h.327l.326-.033.36-.032.326-.033.36-.032.359-.032.326-.065.36-.032.359-.065.326-.065.36-.064.326-.065.327-.064.326-.065.327-.097.294-.065.294-.097.294-.097.261-.097.261-.097.229-.13 1.992 1.294zm-1.992-1.293c.686-.323 1.535-.032 1.861.646.36.68.066 1.52-.62 1.843l-1.241-2.49zm1.927 2.004l-2.744-.55v-.096h.033v-.162l2.776.097v.387h-.033v.194h-.032v.129zm0 0a1.425 1.425 0 01-1.633 1.1c-.751-.162-1.274-.873-1.11-1.65l2.743.55zm-1.176 3.783l-2.71-.614.032-.13.033-.097.032-.129.033-.13.033-.129.032-.097.033-.129.033-.13.065-.128.033-.098.032-.129.066-.13.032-.129.033-.129.065-.13.033-.128.033-.13.032-.097.066-.129.032-.13.033-.129.032-.097.066-.129.032-.13.033-.096.033-.097.032-.13v-.097l.033-.097.033-.097v-.064l.032-.097 2.744.55-.033.129-.032.129-.033.13-.033.129-.033.129-.032.13-.033.129-.065.129-.033.162-.032.129-.033.13-.065.128-.033.13-.065.13-.033.128-.033.13-.065.13-.033.128-.032.097-.066.13-.032.13-.033.128-.033.097-.032.097-.033.13-.033.097-.032.097-.033.097-.033.097-.032.064v.097l-.033.065zm0 0c-.163.744-.914 1.196-1.666 1.034a1.375 1.375 0 01-1.045-1.648l2.711.614zm-1.568 2.134l-2.776-.324 1.993-1.066-.164-.065-.196-.032h-.163l-.163.032-.13.032-.099.033-.032.032.032-.065.033-.032.033-.065.032-.064.033-.097.032-.065.066-.065.032-.097.033-.097.033-.064.032-.097.033-.097.033-.065.032-.097.033-.065v-.064l.033-.065v-.065l.032-.032v-.032l2.711.614v.097l-.033.097-.032.097-.033.097-.033.097-.032.13-.033.096-.065.13-.033.129-.065.13-.033.129-.065.129-.066.13-.065.128-.065.13-.065.13-.066.128-.065.13-.098.13-.098.128-.098.13-.098.097-.13.129-.131.13-.163.129-.164.129-.228.097-.262.097-.294.065h-.326l-.294-.065-.327-.097 1.992-1.1zm-1.992 1.099a1.389 1.389 0 01-.653-1.843c.327-.679 1.176-1.002 1.862-.646l-1.209 2.489zm1.437 2.619l-2.58-1.067.033-.033v-.064l.033-.065v-.064l.032-.033v-.065l.033-.064v-.065l.032-.064v-.162l.033-.065v-.194l.033-.064v-.292l.032-.097v-.421l.033-.129v-.356l.033-.129v-.259l.032-.129v-.162l2.776.324v.226l-.032.13v.226l-.033.097v.323l-.032.13v.419l-.033.129v.227l-.033.096v.259l-.032.097-.033.13v.096l-.033.13-.032.129v.13l-.033.128-.065.097-.033.13-.033.129-.032.13-.066.129zm0 0c-.294.71-1.11 1.034-1.829.743a1.374 1.374 0 01-.75-1.81l2.58 1.067zm-2.776 2.748l-1.96-1.972.099-.097.098-.097.098-.065.098-.097.098-.065.098-.097.098-.064.098-.097.098-.065.098-.065.098-.064.098-.065.065-.097.098-.065.098-.064.065-.065.065-.065.098-.064.066-.033.065-.064.065-.065.066-.065.032-.032.066-.065.032-.032.033-.032.033-.033v-.032l.032-.032 2.58 1.067-.065.161-.098.13-.065.161-.098.097-.098.13-.066.129-.098.097-.098.097-.098.097-.097.097-.099.097-.097.097-.098.065-.098.096-.098.065-.098.097-.098.065-.098.097-.098.064-.098.065-.098.065-.098.097-.066.064-.098.065-.098.065-.065.064-.065.065-.098.032-.065.065-.033.065-.065.032-.066.065zm0 0c-.555.517-1.437.517-1.96-.033a1.366 1.366 0 010-1.94l1.96 1.973zm-2.286 2.069l-1.11-2.554h.065v-.033h.033v-.032h.032l.033-.032v-.033l.033-.032.032-.032.066-.033.032-.032.033-.064.033-.033.065-.065.033-.064.065-.065.065-.064.066-.065.065-.065.065-.064.066-.098.065-.064.065-.097.098-.065.066-.097.098-.097.098-.064.065-.097 1.96 1.972-.066.064-.065.065-.066.065-.065.064-.065.065-.066.065-.032.064-.066.065-.065.065-.065.064-.033.065-.065.065-.066.064-.032.065-.066.065-.065.064-.065.065-.065.065-.066.064-.065.065-.065.065-.066.064-.065.097-.098.065-.065.065-.098.064-.066.065-.098.064-.098.065-.13.032-.098.065-.098.065h-.033zm.033 0c-.719.29-1.535 0-1.862-.711-.294-.712 0-1.52.719-1.81l1.143 2.52zm-2.841.42l-.262-2.748h.849l.066-.032h.392l.032-.033h.196l.033-.032h.065l.066-.032h.097l.033-.033h.033l.032-.032h.033l.033-.032 1.11 2.554-.065.032-.098.032-.065.033-.098.032-.098.032-.066.033h-.098l-.098.032-.065.032h-.098l-.098.033-.065.032h-.098l-.098.032h-.163l-.098.033h-.262l-.098.032h-1.11.13zm-.131 0c-.751 0-1.404-.614-1.404-1.358 0-.776.62-1.39 1.404-1.39v2.748zm0 0c-.751 0-1.404-.614-1.404-1.358 0-.776.62-1.39 1.404-1.39v2.748z" fill="#fff"/></g><defs><clipPath id="clip0"><path fill="#fff" d="M0 0h50v58.065H0z"/></clipPath></defs></svg>