<svg width="50" height="50" fill="none" xmlns="http://www.w3.org/2000/svg"><path d="M47.754 23.455a9.981 9.981 0 001.643-5.521c0-2.64-1.013-5.138-2.852-7.032a10.044 10.044 0 00-5.66-2.941A6.606 6.606 0 0034.427 0a6.606 6.606 0 00-6.203 8.855c-5.058.296-9.083 4.506-9.083 9.638 0 2.393.858 4.639 2.433 6.406A8.343 8.343 0 0020.504 29c0 4.629 3.765 8.395 8.395 8.395a8.407 8.407 0 005.476-2.038v12.689H24.023V44.43a3.324 3.324 0 001.954-3.025c0-1.83-1.49-3.32-3.32-3.32H3.32c-1.83 0-3.32 1.49-3.32 3.32 0 1.344.803 2.503 1.953 3.025v4.592c0 .54.437.977.977.977h3.906c.54 0 .976-.437.976-.977v-4.296h10.352v3.32h-.928a.977.977 0 000 1.953h22.51a.977.977 0 000-1.953h-3.418V35.39a8.277 8.277 0 005.397 2.006c4.563 0 8.275-3.712 8.275-8.275 0-2.118-.81-4.138-2.246-5.666zM3.32 40.04h19.336a1.368 1.368 0 010 2.734H3.32a1.369 1.369 0 01-1.367-1.367c0-.754.613-1.367 1.367-1.367zm2.54 8.008H3.905v-3.32H5.86v3.32zm14.257 0v-3.32h1.953v3.32h-1.953zm21.608-12.604a6.331 6.331 0 01-5.397-3.032v-4.55l.024-.021 5.55-5.55a.977.977 0 10-1.38-1.381l-4.194 4.193V15.99a.977.977 0 00-1.953 0v2.534l-.778-.778a.977.977 0 00-1.381 1.381l2.159 2.16v6.262l-2.672-2.671-.002-.003-2.36-2.36a.977.977 0 00-1.382 1.38l1.45 1.451-2.65 1.45a.977.977 0 10.936 1.713l3.154-1.724 3.526 3.526v2.079a6.46 6.46 0 01-5.476 3.053A6.45 6.45 0 0122.457 29c0-1.321.398-2.591 1.151-3.674a.976.976 0 00-.127-1.264 7.634 7.634 0 01-2.387-5.57c0-4.247 3.454-7.702 7.701-7.702.308 0 .619.02.951.061a.976.976 0 00.911-1.54 4.61 4.61 0 01-.876-2.713 4.65 4.65 0 014.646-4.646 4.65 4.65 0 014.269 6.48.977.977 0 00.866 1.362 8.107 8.107 0 017.882 8.139 8.06 8.06 0 01-1.746 5.035.977.977 0 00.132 1.347 6.316 6.316 0 012.217 4.805 6.329 6.329 0 01-6.322 6.322zm2.024 12.603a.984.984 0 00-.69.286.984.984 0 00-.286.69c0 .257.104.51.286.69a.984.984 0 00.69.287.984.984 0 00.69-.286.984.984 0 00.287-.69.984.984 0 00-.287-.691.984.984 0 00-.69-.286zM2.882 18.665a1.957 1.957 0 011.5.151c.463.25.801.664.953 1.168a.976.976 0 001.87 0 1.972 1.972 0 012.453-1.319.977.977 0 10.563-1.87 3.927 3.927 0 00-3.95 1.03 3.933 3.933 0 00-.965-.729 3.897 3.897 0 00-2.987-.301.977.977 0 00.563 1.87zm6.23-7.203a1.957 1.957 0 011.5.152c.463.249.801.663.953 1.167a.977.977 0 001.87 0c.152-.504.49-.918.954-1.167a1.957 1.957 0 011.5-.152.977.977 0 00.562-1.87 3.897 3.897 0 00-2.987.301 3.93 3.93 0 00-.964.727 3.931 3.931 0 00-.964-.727 3.896 3.896 0 00-2.987-.301.977.977 0 10.563 1.87z" fill="#fff"/><path d="M28.795 12.777h-.008a.973.973 0 00-.973.977c0 .54.442.976.98.976a.977.977 0 000-1.953zm-4.138 1.773a5.69 5.69 0 00-1.578 3.942.977.977 0 001.953 0c0-.97.369-1.893 1.039-2.595a.976.976 0 10-1.414-1.348z" fill="#fff"/></svg>