<svg width="50" height="47" fill="none" xmlns="http://www.w3.org/2000/svg"><path d="M33.682 27.567h5.09v-2.53c0-.333-.278-.533-.627-.533H34.24c-.279 0-.558.2-.558.533v2.53zM39.54 29.1h-6.625c-.488 0-.837-.333-.837-.8v-3.262c0-1.132.976-2.064 2.162-2.064h3.905c1.186 0 2.162.932 2.162 2.064V28.3c0 .466-.349.799-.767.799z" fill="#fff"/><path d="M38.285 24.504H34.17c-.418 0-.767-.333-.767-.799V4.328c0-.4.349-.732.767-.732.419 0 .767.333.767.732v18.645h2.51V.733c0-.4.35-.733.837-.733.419 0 .768.333.768.732v22.973c0 .466-.35.8-.767.8zm-26.639 5.66h3.975v-1.998c0-.133-.14-.332-.349-.332h-3.277c-.21 0-.349.2-.349.332v1.998zm4.742 1.532h-5.51c-.418 0-.766-.333-.766-.733v-2.797c0-.998.837-1.797 1.883-1.797h3.277c1.046 0 1.953.799 1.953 1.797v2.797c0 .4-.349.733-.837.733z" fill="#fff"/><path d="M12.692 26.369h1.883V15.115a.916.916 0 00-.907-.932c-.558 0-.976.4-.976.932V26.37zm2.65 1.465h-3.417c-.419 0-.767-.333-.767-.733V15.115c0-1.331 1.116-2.397 2.51-2.397 1.325 0 2.44 1.066 2.44 2.397v11.986c0 .4-.348.733-.766.733zm20.641 18.245c-.348 0-.697-.2-.767-.6l-.976-5.127-1.813 5.26c-.07.267-.349.467-.698.467H26.5c-.209 0-.418-.067-.558-.267-.209-.2-.209-.4-.209-.599l4.184-17.047c.07-.332.349-.599.767-.599h11.088c.349 0 .698.267.767.6l4.115 17.046c.07.2 0 .4-.14.6-.14.199-.349.266-.627.266h-4.742c-.35 0-.698-.2-.767-.533l-1.604-4.861c-.14-.4.14-.799.557-.932.419-.133.837.133.977.466l1.395 4.395h3.207l-3.765-15.515H31.31l-3.766 15.515h3.557l2.58-7.591c.07-.333.418-.533.767-.533.349.067.697.266.697.6l1.604 8.123c.14.4-.14.799-.627.866h-.14zm-31.52-1.465h18.34L21.34 33.627c-.14-1.132-1.116-1.931-2.301-1.931H8.228c-1.185 0-2.161.799-2.3 1.93L4.462 44.615zm19.247 1.465H3.556a.813.813 0 01-.557-.2c-.14-.2-.21-.4-.21-.6l1.534-11.852c.28-1.864 1.953-3.263 3.906-3.263h10.809c1.952 0 3.626 1.398 3.905 3.263l1.534 11.852c0 .2-.07.4-.21.6a.814.814 0 01-.557.2z" fill="#fff"/><path d="M8.229 39.953h-.07c-.418-.067-.767-.467-.697-.866l.418-3.13c.14-1.198 1.255-2.13 2.58-2.13h6.346c1.325 0 2.441.932 2.58 2.13l.419 3.13c.07.4-.279.799-.697.866-.419.066-.837-.267-.907-.666l-.349-3.13c-.07-.466-.558-.865-1.046-.865H10.46c-.488 0-.976.399-.976.865l-.418 3.13c-.07.4-.419.666-.837.666zm41.004 6.126H.767c-.418 0-.767-.333-.767-.733 0-.4.349-.732.767-.732h48.466c.418 0 .767.333.767.732 0 .4-.349.733-.767.733z" fill="#fff"/></svg>