<svg width="50" height="32" fill="none" xmlns="http://www.w3.org/2000/svg"><rect width="50" height="32" rx="3" fill="#EE2A23"/><path d="M8.741 9c1.005 0 1.321.683 1.586 1.366l2.802 7.273c.02.056.006.15-.086.183-.092.034-1.45.534-1.524.56a.147.147 0 01-.187-.083c-.028-.07-.591-1.548-.655-1.713h-3.87c-.062.165-.631 1.646-.657 1.713a.146.146 0 01-.187.084l-1.523-.56a.143.143 0 01-.087-.184c.096-.254 2.668-6.925 2.8-7.273C7.407 9.694 7.733 9 8.74 9zM4.146 21.131a.144.144 0 00-.146.143v1.585c0 .078.065.141.146.141h9.186a.144.144 0 00.148-.141v-1.585a.145.145 0 00-.148-.143H4.146zm4.586-9.917l-1.308 3.725h2.638L8.75 11.214h-.017zm19.633 6.107c-.193.062-.32.077-.471.077-.313 0-.487-.117-.487-.422 0-.317.22-.423.653-.423.106 0 .21.015.259.03v.228c0 .244.014.405.046.51zm1.112.363c-.23-.332-.291-.528-.291-.948v-.851c0-.459-.057-.624-.184-.791-.178-.237-.475-.34-1.02-.34-.386 0-.76.04-1.123.128l.13.605c.246-.033.503-.06.684-.06.58 0 .646.079.646.49v.154a1.77 1.77 0 00-.442-.056c-.871 0-1.332.404-1.332 1.074 0 .627.492.97 1.092.97.223 0 .457-.04.643-.111a1.75 1.75 0 00.305-.163c.087.12.261.243.332.266l.56-.367zm8.623-.363a1.403 1.403 0 01-.471.077c-.315 0-.49-.117-.49-.422 0-.317.223-.423.657-.423.105 0 .21.015.257.03v.228c0 .244.014.405.047.51zm1.113.363c-.233-.332-.292-.528-.292-.948v-.851c0-.459-.058-.624-.186-.791-.176-.237-.473-.34-1.02-.34-.385 0-.762.04-1.125.128l.13.605c.245-.033.503-.06.69-.06.575 0 .643.079.643.49v.154a1.768 1.768 0 00-.443-.056c-.873 0-1.335.404-1.335 1.074 0 .627.493.97 1.095.97.227 0 .459-.04.642-.111.114-.046.16-.074.305-.163.088.12.263.243.334.266l.562-.367zm6.787.303s-.478-.965-.595-1.185c-.132-.247-.254-.418-.522-.48v-.014c.18-.032.323-.136.48-.451.149-.308.193-.375.28-.448.086-.073.204-.047.204-.047l.044-.57a2.295 2.295 0 00-.406-.008c-.237.013-.36.078-.477.19-.092.085-.154.212-.23.358-.082.16-.146.288-.231.45-.084.167-.124.242-.35.242h-.148v-2.522h-.873v4.485h.873v-1.29l.12-.001c.25 0 .294.06.426.31.155.297.451.981.451.981H46zm-24.587 0h1.007l-1.524-4.41a1.927 1.927 0 00-.57-.082c-.232 0-.314.029-.495.082l-1.612 4.41h.967s.13-.386.284-.866h1.67c.149.48.273.866.273.866zm-1.698-1.605l.323-1.023c.11-.357.279-.923.279-.923h.027s.156.587.258.916c.038.132.305 1.03.305 1.03h-1.192zm11.25-.505a.545.545 0 00-.559.53c0 .295.25.531.558.531a.544.544 0 00.558-.53c0-.292-.25-.53-.558-.53zm-7.35-2.375h-.874v4.485h.875v-4.485zm17.386 1.965c.484.01.544.105.544.49v2.03h.867v-2.102c0-.459-.057-.624-.186-.791-.178-.237-.527-.34-1.119-.34-.585 0-.958.06-1.438.195v3.038h.877v-2.481c.23-.032.27-.039.455-.039zM25.78 13.422c-.547 0-.845.103-1.02.34-.129.167-.186.336-.186.796v.39h-.434v.671h.434v2.368h.868l-.002-2.368h.865v-.67h-.865l.002-.36c0-.41.066-.49.646-.49.063 0 .133.002.208.008l.137-.644a5.271 5.271 0 00-.653-.04zm6.962.042c.298-.016.963-.04 1.38-.04.077 0 .156 0 .235.004.82 0 1.291.567 1.291 1.232 0 .453-.218.753-.73.932.602.126.918.572.918 1.118 0 .4-.12.719-.338.936-.283.264-.713.413-1.284.413a32.06 32.06 0 01-1.472-.034v-4.56zm1.38.735c-.144 0-.323.003-.5.009v1.076h.501c.199 0 .359-.052.468-.153a.512.512 0 00.158-.39c0-.345-.197-.54-.562-.542h-.064zm.019 3.086h.038c.455 0 .734-.23.738-.692a.601.601 0 00-.192-.43.76.76 0 00-.537-.19h-.567v1.307c.16.004.337.004.52.005" fill="#fff"/></svg>