<svg width="50" height="32" fill="none" xmlns="http://www.w3.org/2000/svg"><rect width="50" height="32" rx="3" fill="#5485EC"/><g fill="#fff"><path d="M23.972 16.827v4.423h-1.404V10.327h3.722a3.365 3.365 0 012.41.946 3.04 3.04 0 011.006 2.305 3.028 3.028 0 01-1.006 2.318c-.65.62-1.454.93-2.41.93h-2.318v.001zm0-5.155v3.813h2.353a1.856 1.856 0 001.388-.565 1.861 1.861 0 000-2.67 1.829 1.829 0 00-1.388-.579h-2.353zm8.968 1.861c1.037 0 1.855.277 2.456.831.6.554.9 1.314.9 2.28v4.606h-1.343v-1.037h-.061c-.581.854-1.354 1.281-2.318 1.281-.824 0-1.512-.244-2.067-.732a2.339 2.339 0 01-.831-1.83c0-.773.292-1.388.877-1.845.584-.457 1.364-.686 2.34-.687.834 0 1.52.153 2.06.458v-.321a1.598 1.598 0 00-.58-1.242 1.987 1.987 0 00-1.355-.512c-.784 0-1.404.331-1.86.992l-1.236-.778c.68-.976 1.685-1.464 3.018-1.464zm-1.816 5.43a1.12 1.12 0 00.466.915c.31.244.695.373 1.09.366a2.238 2.238 0 001.578-.656c.465-.437.698-.95.698-1.54-.438-.348-1.048-.523-1.83-.523-.57 0-1.046.138-1.426.413-.385.278-.576.617-.576 1.024zM44 13.777l-4.686 10.768h-1.448l1.738-3.768-3.08-7h1.525l2.227 5.369h.03l2.166-5.37H44zm-25.7 2.097a7.467 7.467 0 00-.107-1.276h-5.918v2.417h3.39a2.904 2.904 0 01-1.254 1.907v1.568h2.023c1.184-1.092 1.867-2.707 1.867-4.616z"/><path d="M12.275 22.006c1.694 0 3.12-.556 4.16-1.515l-2.024-1.569c-.563.382-1.288.6-2.136.6-1.637 0-3.026-1.103-3.523-2.59H6.668v1.617a6.276 6.276 0 005.607 3.457z"/><path d="M8.752 16.932a3.76 3.76 0 010-2.402v-1.617H6.668a6.275 6.275 0 000 5.636l2.084-1.617z"/><path d="M12.275 11.94a3.407 3.407 0 012.407.94l1.792-1.79a6.03 6.03 0 00-4.199-1.635 6.276 6.276 0 00-5.607 3.458l2.084 1.617c.497-1.487 1.886-2.59 3.523-2.59z"/></g></svg>