<svg width="50" height="32" fill="none" xmlns="http://www.w3.org/2000/svg"><rect width="50" height="32" rx="3" fill="#0F3560"/><path d="M29.374 23.863h-8.749V8.14h8.75v15.724z" fill="#6C6BBD"/><path d="M21.186 16c0-3.19 1.493-6.03 3.819-7.862A9.956 9.956 0 0018.825 6c-5.522 0-9.999 4.477-9.999 10s4.477 10 9.999 10c2.332 0 4.479-.8 6.18-2.138A9.983 9.983 0 0121.185 16z" fill="#EB001B"/><path d="M41.174 16c0 5.523-4.476 10-9.999 10a9.96 9.96 0 01-6.18-2.138A9.982 9.982 0 0028.815 16c0-3.19-1.494-6.03-3.82-7.862A9.96 9.96 0 0131.175 6c5.523 0 10 4.477 10 10z" fill="#0099DF"/><path d="M34.016 14.29c.143 0 .349.028.506.09l-.22.67c-.15-.063-.3-.083-.444-.083-.464 0-.697.3-.697.84v1.833h-.711v-3.268h.704v.397c.185-.287.452-.479.862-.479zm-2.628.732h-1.162v1.476c0 .328.116.547.472.547.185 0 .417-.062.628-.185l.206.608c-.226.158-.581.254-.889.254-.84 0-1.134-.452-1.134-1.21v-1.49h-.663v-.65h.663v-.99h.718v.99h1.161v.65zm-9.098.697c.076-.472.362-.793.869-.793.457 0 .751.287.826.793H22.29zm2.434.287c-.007-1.018-.636-1.716-1.552-1.716-.957 0-1.627.698-1.627 1.716 0 1.038.697 1.715 1.675 1.715.492 0 .943-.123 1.34-.458l-.35-.526a1.554 1.554 0 01-.949.342c-.458 0-.875-.212-.977-.8h2.426c.007-.089.014-.177.014-.273zm3.123-.8a2.1 2.1 0 00-1.018-.28c-.39 0-.622.144-.622.383 0 .218.246.28.554.32l.335.049c.71.103 1.141.403 1.141.977 0 .622-.547 1.067-1.49 1.067-.533 0-1.025-.137-1.415-.424l.335-.554c.24.184.595.342 1.087.342.485 0 .745-.143.745-.397 0-.184-.184-.287-.574-.341l-.335-.048c-.732-.103-1.128-.43-1.128-.964 0-.649.534-1.046 1.36-1.046.52 0 .992.117 1.333.342l-.308.575zm8.767-.24c-.146 0-.282.025-.408.076a.98.98 0 00-.541.549 1.11 1.11 0 00-.078.426c0 .156.025.297.078.427a.979.979 0 00.541.548c.126.052.261.077.408.077.146 0 .282-.025.407-.077a.977.977 0 00.546-.549c.052-.129.078-.27.078-.426a1.13 1.13 0 00-.078-.426.98.98 0 00-.545-.549 1.075 1.075 0 00-.408-.076zm0-.676c.253 0 .488.044.704.133a1.662 1.662 0 01.93.91c.09.21.134.438.134.684 0 .247-.045.475-.134.685a1.664 1.664 0 01-.93.91c-.216.088-.45.132-.704.132-.254 0-.488-.044-.704-.132a1.702 1.702 0 01-.558-.363 1.683 1.683 0 01-.369-.547 1.738 1.738 0 01-.133-.685c0-.246.044-.475.133-.685a1.68 1.68 0 01.927-.91 1.84 1.84 0 01.704-.132zm-18.477 1.716c0-.574.377-1.046.992-1.046.587 0 .984.451.984 1.046s-.397 1.045-.984 1.045c-.615 0-.992-.47-.992-1.045zm2.645 0v-1.633h-.71v.396c-.226-.294-.567-.479-1.032-.479-.916 0-1.633.718-1.633 1.716s.717 1.716 1.633 1.716c.465 0 .806-.185 1.032-.479v.397h.71v-1.634zm-4.005 1.634v-2.05c0-.773-.492-1.293-1.284-1.3-.417-.007-.848.123-1.149.582-.225-.363-.58-.582-1.08-.582-.348 0-.69.103-.957.486v-.403h-.71v3.267h.717v-1.812c0-.567.315-.868.8-.868.471 0 .71.308.71.861v1.819h.718v-1.812c0-.567.329-.868.8-.868.486 0 .718.308.718.861v1.819h.718z" fill="#fff"/></svg>