<svg width="50" height="32" fill="none" xmlns="http://www.w3.org/2000/svg"><rect width="50" height="32" rx="3" fill="#0F3560"/><path d="M29.363 23.864h-8.749V8.141h8.75v15.723z" fill="#FF5F00"/><path d="M21.175 16.001c0-3.19 1.493-6.03 3.819-7.862a9.956 9.956 0 00-6.18-2.138c-5.522 0-9.999 4.477-9.999 10s4.477 10 10 10a9.956 9.956 0 006.179-2.138 9.983 9.983 0 01-3.82-7.862z" fill="#EB001B"/><path d="M41.163 16.001c0 5.523-4.476 10-9.998 10a9.96 9.96 0 01-6.18-2.138 9.982 9.982 0 003.82-7.862c0-3.19-1.494-6.03-3.82-7.862a9.959 9.959 0 016.18-2.138c5.522 0 9.998 4.477 9.998 10z" fill="#F79E1B"/><path d="M16.34 16.065c0-.437.286-.796.754-.796.447 0 .748.343.748.796 0 .452-.301.795-.748.795-.468 0-.754-.359-.754-.795zm2.012 0v-1.243h-.54v.302c-.172-.224-.432-.364-.785-.364-.697 0-1.244.546-1.244 1.305 0 .759.547 1.305 1.244 1.305.353 0 .613-.14.784-.365v.302h.54v-1.242zm18.26 0c0-.437.286-.796.754-.796.447 0 .748.343.748.796 0 .452-.3.795-.748.795-.468 0-.754-.359-.754-.795zm2.012 0v-2.24h-.54v1.299c-.172-.224-.432-.364-.786-.364-.697 0-1.243.546-1.243 1.305 0 .759.547 1.305 1.243 1.305.354 0 .614-.14.785-.365v.302h.541v-1.242zm-13.565-.822c.348 0 .572.219.63.603h-1.29c.057-.359.275-.603.66-.603zm.01-.483c-.728 0-1.237.53-1.237 1.305 0 .79.53 1.305 1.274 1.305.374 0 .717-.094 1.019-.349l-.265-.4c-.208.166-.474.26-.723.26-.348 0-.665-.161-.743-.609h1.845c.005-.067.01-.135.01-.207-.005-.775-.483-1.305-1.18-1.305zm6.525 1.305c0-.437.287-.796.754-.796.447 0 .749.343.749.796 0 .452-.302.795-.749.795-.467 0-.754-.359-.754-.795zm2.012 0v-1.243h-.54v.302c-.172-.224-.431-.364-.785-.364-.697 0-1.243.546-1.243 1.305 0 .759.546 1.305 1.243 1.305.354 0 .613-.14.785-.365v.302h.54v-1.242zm-5.063 0c0 .754.525 1.305 1.326 1.305.374 0 .623-.084.893-.297l-.259-.436a1.092 1.092 0 01-.65.223c-.432-.005-.75-.317-.75-.795 0-.479.318-.79.75-.796.234 0 .447.078.65.224l.26-.437c-.27-.213-.52-.296-.894-.296-.801 0-1.326.55-1.326 1.305zm6.967-1.305a.734.734 0 00-.656.364v-.302h-.535v2.485h.54v-1.393c0-.411.177-.64.53-.64a.88.88 0 01.339.063l.166-.51a1.15 1.15 0 00-.384-.067zm-14.486.26c-.26-.172-.618-.26-1.013-.26-.63 0-1.035.301-1.035.795 0 .405.302.655.858.733l.255.037c.296.041.436.12.436.26 0 .192-.197.301-.566.301-.375 0-.645-.12-.827-.26l-.255.421c.297.218.671.323 1.076.323.718 0 1.134-.338 1.134-.812 0-.436-.327-.665-.868-.743l-.255-.037c-.234-.03-.421-.077-.421-.244 0-.182.176-.29.473-.29.317 0 .624.119.775.212l.233-.436zm6.973-.26a.732.732 0 00-.655.364v-.302h-.536v2.485h.54v-1.393c0-.411.177-.64.53-.64a.88.88 0 01.339.063l.166-.51a1.15 1.15 0 00-.384-.067zm-4.612.062h-.884v-.754h-.546v.754h-.504v.494h.504v1.134c0 .576.224.92.863.92.234 0 .505-.073.676-.193l-.156-.463a1 1 0 01-.478.14c-.27 0-.359-.166-.359-.415v-1.123h.884v-.494zm-8.08 2.485v-1.56c0-.587-.374-.982-.977-.987-.317-.006-.645.093-.874.442-.171-.276-.441-.442-.821-.442-.265 0-.525.078-.728.369v-.307h-.54v2.485h.545V15.93c0-.432.24-.661.609-.661.359 0 .54.234.54.655v1.383h.546V15.93c0-.432.25-.661.609-.661.368 0 .545.234.545.655v1.383h.547z" fill="#fff"/></svg>