<svg width="50" height="32" fill="none" xmlns="http://www.w3.org/2000/svg"><rect width="50" height="32" rx="3" fill="#1A1919"/><path fill-rule="evenodd" clip-rule="evenodd" d="M14.065 22.714h1.363v4.207h.973v-4.206h1.317v-.82h-3.653v.82zm13.284.697H26.28l-1.254 1.497v-2.906l-.929.339v4.58h.929v-1.716l1.225 1.716h1.104l-1.378-1.888 1.37-1.622zm2.543 2.176c-.034.13-.084.244-.148.343a.65.65 0 01-.57.313c-.252 0-.445-.095-.578-.284-.134-.19-.2-.458-.2-.805 0-.306.064-.562.192-.763a.628.628 0 01.564-.303c.261 0 .459.1.592.3.134.199.2.46.2.782 0 .148-.018.287-.052.417zm.514-1.765a1.49 1.49 0 00-.541-.364 1.847 1.847 0 00-.691-.127 1.848 1.848 0 00-.692.127c-.205.08-.39.203-.544.36-.151.156-.27.348-.353.576a2.264 2.264 0 00-.125.776c0 .278.04.53.122.756.08.226.194.419.341.577.148.159.325.28.534.367.223.09.461.133.702.13.236.002.471-.04.692-.126.205-.08.39-.205.544-.364.152-.16.27-.353.357-.58.085-.229.129-.487.129-.776 0-.277-.042-.53-.126-.756a1.668 1.668 0 00-.35-.577zm-11.75-1.928a.55.55 0 00-.52.335.527.527 0 00-.04.209.548.548 0 00.56.536.537.537 0 00.386-.16.51.51 0 00.165-.377.516.516 0 00-.165-.384.542.542 0 00-.387-.16zm-.473 5.027h.936v-3.519h-.936v3.518zm3.831-3.551c-.68-.051-1.065.323-1.065.323v-.29h-.936v3.517h.936v-2.095c0-.356.296-.645.66-.645.364 0 .66.289.66.645v2.096h.935v-2.082c0-1.103-.635-1.428-1.19-1.47zm9.757-.04v.066h-.561v.721h.56v2.803h.937v-2.803h.56v-.72h-.56v-.074c0-.486.226-.725.668-.654l.146-.729c-1.424-.17-1.75.593-1.75 1.391zm2.415 0v.066h-.561v.721h.561v2.803h.937v-2.803h.559v-.72h-.559v-.074c0-.486.226-.725.667-.654l.147-.729c-1.424-.17-1.75.593-1.75 1.391" fill="#fff"/><path d="M32.969 11.836l.202-.688-.708.02c-.06 0-.485-.02-.91-.323h.101c.425 0 .85-.263 1.011-.627l.304-.668c-.385 0-.728-.04-.728-.04s-.284-.04-.587-.364a1.134 1.134 0 00-.809-.344.872.872 0 00-.344.06c.02-.06.04-.1.04-.161.102-.627-.303-1.112-.303-1.112l-.525-.648-.324.769s-.08.182-.222.263a1.507 1.507 0 00-.385-.728 1.7 1.7 0 00-1.254-.526c-.12 0-.222.02-.242.02l-.647.122c.04-.142.12-.385.262-.607l.344-.546-.91.101-.283-.607-.546.283L25 5l-.485.506-.546-.284-.283.607-.89-.1.344.545c.142.223.222.465.263.607l-.607-.122h-.02c-.04 0-.122-.02-.263-.02a1.7 1.7 0 00-1.254.526 1.352 1.352 0 00-.384.728.643.643 0 01-.223-.263l-.323-.768-.546.667c-.06.081-.385.526-.304 1.092 0 .06.02.101.04.162a.945.945 0 00-.343-.06c-.303 0-.586.12-.809.343-.323.324-.586.364-.586.364s-.284.06-.729.04l.304.668c.162.364.586.627 1.011.627h.101a1.71 1.71 0 01-.91.323l-.728-.04.223.688c.1.343.465.93 1.172.99-.08.324-.242.668-.606.83l-.526.222.283.506c.162.263.546.586 1.092.586.122 0 .243-.02.344-.04.02.121.06.243.101.364.162.485.02.83.02.83l-.263.545.587.162s.182.06.404.06c.101 0 .203-.02.284-.04.06-.02.141-.04.202-.06.08.141.162.262.283.363.384.385.91.587 1.577.587h.486l-.991.404.748.364c.283.142.607.284.93.405l-.1.263.262.121c.02.02.526.243 1.355.283h.607c.829-.04 1.335-.263 1.355-.283l.263-.121-.101-.263a6.96 6.96 0 00.95-.425l.748-.364-.99-.404h.485c.667 0 1.213-.203 1.577-.587.101-.1.203-.242.283-.364.061.02.122.04.203.06.08.021.182.041.283.041.222 0 .404-.04.404-.04l.587-.162-.263-.546c0-.02-.142-.344.02-.83.04-.12.08-.242.101-.363.101.02.223.04.344.04.708 0 1.031-.485 1.092-.606l.283-.506-.526-.223c-.364-.161-.546-.505-.606-.829.687-.04 1.072-.627 1.173-.97zM25 7.083c-.566 0-.99.182-1.071.405L25 7.912l1.071-.424c-.08-.223-.505-.405-1.072-.405zm.02 11.265H25c-.343 0-.808-.061-1.03-.142l-.284.748c.182.061.789.182 1.314.182.526 0 1.153-.12 1.315-.182l-.263-.748c-.222.081-.688.142-1.031.142z" fill="#fff"/><path d="M27.084 17.62c-.203.121-.648.283-.91.364l.222.606a6.563 6.563 0 001.031-.384l-.485-.141.142-.445zm-4.146 0l.141.445-.465.161c.283.142.607.263 1.032.385l.222-.607c-.283-.101-.728-.263-.93-.384zM25 6.375c.424 0 .85.101 1.173.283.02-.1.06-.222.121-.343l-.121.02-.122.02-.06-.121-.162-.344-.303.162-.122.06-.08-.1L25 5.687l-.304.323-.1.081-.122-.06-.303-.162-.162.343-.061.122-.121-.02-.122-.02c.061.12.102.242.122.343A2.775 2.775 0 0125 6.375zm6.491 3.964c.061.02.102.02.162.02a.645.645 0 00.546-.323s-.445-.02-.91-.506a.563.563 0 00-.445-.202.598.598 0 00-.364.121c.587.283.688.769 1.011.89zm-13.145.02c.06 0 .121 0 .162-.02.323-.101.445-.607 1.011-.91 0 0-.162-.121-.364-.121a.563.563 0 00-.445.202c-.465.485-.91.505-.91.505a.62.62 0 00.546.344zm13.307 1.962h.02c.607 0 .81-.647.81-.647h-.02c-.102 0-1.012-.02-1.639-.83-.425-.525-.748-.99-1.436-1.172l-.06-.02-.02-.061c-.02-.101.06-.202.202-.304.93-.606.303-1.375.303-1.375s-.263.627-.85.627h-.04c-.06 0-.142 0-.202-.02l-.101-.02s.162-.465-.243-.89c-.303-.324-.688-.364-.89-.364-.1 0-.182.02-.182.02.202.263.344.708.121.991-.202.243-.707.243-.707.607 0 .141.141.323.384.485.748.465 1.497 1.092 1.8 1.942.384 1.051-.04 1.739-.668 2.143 0 0 .203.182.486.203h.162c.606 0 .91-.284.91-.284s-.061.385-.364.749c-.284.323-.668.525-1.234.525 0 0-.02.263.243.506.162.142.546.202.546.202s-.708.142-.789 1.173c-.04.567-.182.769-.182.769h.02c1.638 0 1.598-1.396 1.598-1.396s.121.425.566.526c.06.02.122.02.162.02.142 0 .283-.04.283-.04s-.243-.506 0-1.213c.202-.587.162-1.012.162-1.012s.222.324.768.344c.445 0 .648-.344.648-.344-1.092-.444-.991-1.92-.991-1.92s.141.08.424.08zm-.323 1.517c-.445-.223-.728-.789-.789-1.011-.08 1.152-.627 1.941-1.294 2.71-.344.404-.466.788-.466.788s.061-.445.364-.788c.607-.729 1.194-1.659 1.234-2.71.02-.749-.162-1.335-.465-1.84.162.505.142 1.152-.425 1.739 0 0 1.113-1.335-.445-2.73-.627-.527-1.314-.85-1.658-1.073 1.274.425 1.901-.04 1.901-.04-.404.344-.93.344-1.254.303.081.04.182.081.283.142 1.072.586 2.043 1.557 2.205 2.872v-.02c.242 1.334.809 1.658.809 1.658zm-10.294 1.456s.384-.04.546-.202c.263-.223.243-.506.243-.506-.567 0-.951-.202-1.234-.526a1.714 1.714 0 01-.364-.748s.303.283.91.283h.162a.891.891 0 00.485-.202c-.627-.405-1.052-1.092-.667-2.144.303-.85 1.051-1.476 1.8-1.941.242-.162.384-.324.384-.486 0-.343-.506-.364-.708-.606-.243-.284-.08-.728.121-.991 0 0-.06-.02-.182-.02-.222 0-.586.06-.89.363-.404.425-.242.89-.242.89l-.122.061c-.06.02-.12.02-.202.02h-.04c-.587 0-.85-.627-.85-.627s-.627.769.304 1.375c.162.102.222.203.202.304l-.02.08-.06.02c-.668.183-1.012.648-1.437 1.174a2.138 2.138 0 01-1.638.83s.202.646.809.646h.02c.283 0 .425-.121.425-.121s.101 1.456-.991 1.921c0 0 .202.344.647.344.546 0 .769-.344.769-.344s-.04.425.161 1.011c.243.708 0 1.214 0 1.214s.122.04.284.04c.06 0 .12 0 .161-.02.465-.101.567-.526.567-.526s-.04 1.396 1.597 1.396h.02s-.141-.203-.181-.769c-.081-1.031-.79-1.193-.79-1.193zm-.263.263c-.647-.769-1.213-1.557-1.294-2.71-.061.202-.344.789-.79 1.011 0 0 .567-.344.81-1.638v.02c.162-1.335 1.132-2.285 2.204-2.872a1.85 1.85 0 01.283-.141c-.323.06-.85.06-1.254-.304 0 0 .627.466 1.901.04-.343.223-1.03.547-1.658 1.073-1.577 1.375-.445 2.73-.445 2.73-.566-.586-.586-1.213-.424-1.74-.304.486-.486 1.093-.466 1.841.04 1.031.627 1.941 1.234 2.69.303.364.364.789.364.789s-.121-.385-.465-.79zm3.034-5.38c.02.02.06.061.08.101l.021.02c.02.041.04.061.06.102 0 0 0 .02.02.02.021.04.062.08.082.121.242.405.607.647.95.647.344 0 .708-.242.95-.647.021-.04.062-.08.082-.121 0 0 0-.02.02-.02.02-.04.04-.06.08-.101l.021-.02c.02-.041.06-.061.08-.102l.021-.02a.904.904 0 01.445-.263l-.121-.04-.324-.203-.344-.202-.91.506-.91-.506-.344.202-.323.203-.081.04c.162.06.303.142.445.283-.02 0-.02 0 0 0zm.829-.04h.768v.263c-.08-.101-.262-.081-.262-.081v.384s0 .182.08.263h-.364c.061-.08.081-.263.081-.263v-.384s-.182-.02-.262.08v-.262h-.041zm.303-.506V8.074l-.99-.344.262 1.497.728.404zm-.222-1.173v.243l-.04-.02s-.081-.02-.203-.122c-.202-.161-.202-.303-.202-.303l.445.202zm1.092.789l.263-1.497-.991.344v1.557l.728-.404zm-.506-.789l.445-.182s0 .142-.202.304c-.121.1-.182.121-.202.121l-.04.02v-.263zm-1.759 4.753c.101.04.202.04.263.04v-.02c0-.02.02-.04.02-.06.02-.082.02-.183.02-.243a.218.218 0 01-.121-.142c-.04-.08-.08-.121-.162-.121-.1 0-.202.06-.242.08-.04.243.1.425.222.466zm2.164-.81c-.182.203-.546.547-.566.567l-.02.02-1.133-.02c0 .121-.02.202-.04.283v.04l1.354.243c.142-.1.526-.384.668-.485a.733.733 0 01-.101-.485c-.061-.061-.101-.122-.162-.162z" fill="#fff"/><path d="M25.87 11.027c-.262.263-.505.364-.728.384H24.9c-.04 0-.081 0-.122-.02a.41.41 0 00.02.303c.041.101.142.182.284.243l.04.02v.06c0 .02.02.345.364.446.06-.061.122-.122.142-.162-.081-.182-.04-.344.08-.445 0 .02-.06.445.304.607l.06.02-.02.06c0 .02-.12.445.304.587l.08.02-.04.081c0 .02-.162.405.223.607h.85v-.668c-.304-.04-.426-.283-.466-.444a.477.477 0 01-.324-.183c-.182-.222-.02-.444-.02-.465 0 0 0 .223.142.364a.37.37 0 00.283.122h.06v.06c0 .02.041.324.324.364v-1.355c0-.202.06-.424.142-.626h-1.74v.02zm-2.265.627l-.02.87.101.02.243-.83-.121-.263-.203.203zm2.67 3.984h.02c.142.04.182.586.445.627h.06c.082 0 .122-.04.162-.081 0 0-.141-.203-.222-.344-.141-.182-.243-.405-.485-.405h-.02c-.081 0-.122.04-.122.04a.506.506 0 00-.283-.08c-.162 0-.263.06-.324.06l-.546-.06c-.08 0-.161-.101-.182-.121v-.061c-.02-.445-.364-.647-.485-.647 0 0 .02-.081-.02-.122l-.122.142-.404-.202.283.323-.243.263c-.02.04-.02.081-.02.081l.101.101.122-.08h.182c.06 0 .1-.02.1-.061-.02.162-.161.445-.06.687l.081.162-.485-.06-.223.384c-.06.121-.08.263-.02.344l.08.1s.122-.12.142-.202l-.04-.04c-.04-.04-.04-.06-.02-.101l.141-.243.567.142.02-.06a.18.18 0 01.162-.082h.08c.102.02.284.04.445.04.182 0 .385-.04.486-.14.202.302.627.363.586.505l-.1.526c.08 0 .14 0 .201-.02l.101-.547c.02-.06.02-.141.02-.141-.04-.04-.14-.122-.201-.243-.081-.142-.041-.222-.102-.404.061.06.081.02.142.02zm-2.144-.769c-.02 0-.04-.02-.04-.06 0-.02.02-.04.06-.04.02 0 .04.02.04.06-.02.02-.04.04-.06.04z" fill="#fff"/><path d="M23.342 16.123s.182-.08.202-.142l-.02-.06c-.02-.04-.02-.081.02-.101l.203-.142.343.06s-.06-.08-.06-.181l-.324-.06-.303.181a.302.302 0 00-.101.364l.04.081zm2.427.89h.202s.182-.506.182-.526c-.101-.04-.303-.162-.384-.202.06.08.182.162.162.243l-.162.485z" fill="#fff"/><path d="M27.427 13.98h-4.854v1.82c0 .748.546 1.213 1.335 1.213.668 0 .85.02 1.092.263.162-.162.304-.243.607-.263v-.02l.162-.465c0-.02-.263-.304-.263-.304-.101.04-.182.04-.324.04-.141 0-.303-.02-.485-.04h-.06c-.02 0-.02 0-.02.02l-.021.04-.06.102-.102-.02-.465-.101-.06.08v.02l.06.061-.02.081a.98.98 0 01-.182.263l-.122.122-.1-.142-.082-.101a.423.423 0 01-.06-.384l-.122.06-.06-.121-.04-.081c-.082-.162-.041-.384.14-.526l.385-.202.364.06c0-.04.02-.161.04-.181h-.02l-.202.08-.202-.141s-.081-.08 0-.142l.182-.283-.486-.606.749.303.04-.06.101-.122.122.101c.04.04.06.06.06.101.203.081.567.324.607.708h-.142c.02.04.04.04.061.04l.526.061c.02 0 .02 0 .04-.02.061-.02.162-.06.284-.06.1 0 .182.02.283.06.04-.02.08-.02.121-.02h.02c.283 0 .425.222.546.384.02.02.04.06.06.08.102.142.223.345.244.365l.06.1-.08.082c-.061.06-.142.141-.284.141h-.1c-.021 0-.061-.02-.082-.02 0 .02 0 .06-.02.081l-.101.485c.566-.141.91-.566.91-1.173l.02-1.82zm-4.854-.142h3.782a.656.656 0 01-.141-.607.362.362 0 01-.142-.101 32.61 32.61 0 00-.708.526l-.02.02-1.476-.263h-.162c-.02.06-.08.121-.142.121h-.02a.11.11 0 01-.1-.06c-.021-.04-.041-.06-.021-.101v-.04a.542.542 0 01-.223-.608v-.02l.02-.02s.02-.02.061-.04l-.1-.02c-.041 0-.062-.041-.062-.082 0-.04.041-.06.081-.06l.263.04.02-.91.385-.404.242.505-.242.87.222.04c.04 0 .06.04.06.081 0 .04-.04.06-.08.06h-.02l-.182-.02v.02c.02.041.06.062.08.082l1.133.02.283-.283a.611.611 0 01-.404-.506.535.535 0 01-.324-.303c-.08-.162-.04-.324-.02-.405a1.497 1.497 0 01-.465-.323h-1.699c.081.202.142.404.142.627v2.164h-.02z" fill="#FCE527"/><path d="M24.13 14.768c-.02 0-.06.02-.06.04s.02.061.04.061.061-.02.061-.04c.02-.04 0-.06-.04-.06zm3.297 3.317l-.283-.122.08-.283.082-.323s-.486.263-1.193.465c-.203.06-.344.08-.344.08v.243s-.364.061-.748.061c-.385 0-.749-.06-.749-.06v-.223s-.141-.02-.344-.08a6.518 6.518 0 01-1.193-.466l.081.324.081.283-.283.1-.303.122c.364.182.849.425 1.294.546l-.101.283s.566.263 1.537.263c.95 0 1.537-.263 1.537-.263l-.101-.283c.445-.121.95-.384 1.294-.546l-.344-.121zm-4.813.121l.465-.162-.142-.445c.203.122.648.284.91.364l-.222.607a3.921 3.921 0 01-1.011-.364zm2.386.93c-.526 0-1.152-.12-1.314-.182l.263-.748c.222.06.687.142 1.031.142H25c.344 0 .81-.061 1.032-.142l.303.748c-.182.061-.789.182-1.335.182zm1.396-.546l-.223-.606c.263-.081.708-.263.93-.364l-.161.444.465.162c-.283.122-.607.263-1.011.364zM25.001 6.557c.566 0 1.031.182 1.274.384 0 0 .081-.444.324-.849l-.465.06-.243-.505-.465.243-.445-.445-.445.445-.425-.243-.242.506-.466-.06c.263.404.324.848.324.848.263-.202.708-.384 1.274-.384zm-1.153-.222l.122.02.06-.121.162-.344.303.162.122.06.08-.1.324-.324.304.323.1.081.122-.06.303-.162.162.343.06.122.122-.02.122-.02a1.37 1.37 0 00-.122.343 2.397 2.397 0 00-1.173-.283c-.425 0-.85.101-1.152.283a1.413 1.413 0 00-.122-.344l.101.04zm7.827 6.188c.728 0 .99-.748.99-.788l.082-.263h-.283c-.102 0-.91-.02-1.477-.749l-.04-.06c-.384-.486-.728-.93-1.375-1.133.02-.02.04-.04.08-.06.344-.223.526-.486.587-.81.08-.465-.223-.849-.243-.87l-.202-.262-.121.303c0 .02-.223.506-.668.506h-.121c.02-.223-.02-.546-.324-.85a1.389 1.389 0 00-1.031-.424c-.121 0-.202.02-.223.02l-.303.06.182.243c.142.203.283.546.122.749-.061.06-.162.1-.263.161-.203.102-.486.223-.486.567 0 .222.162.445.486.647.91.566 1.476 1.173 1.719 1.84.384 1.011-.122 1.598-.587 1.901l-.222.142.182.182c.02.02.263.222.586.263h.182c.223 0 .405-.04.546-.081-.04.08-.1.141-.162.222-.283.324-.606.466-1.092.466h-.182l-.02.181c0 .04-.02.365.303.648.04.04.102.08.162.1-.222.203-.424.527-.465 1.113-.04.485-.142.667-.162.667l-.202.304h.364c.587 0 1.052-.162 1.355-.486.182-.182.283-.404.364-.606.101.08.243.162.405.202.06.02.141.02.222.02.162 0 .303-.04.324-.04l.222-.06-.101-.223c0-.02-.202-.445 0-1.052a4.07 4.07 0 00.162-.688c.141.081.344.142.586.142.566 0 .81-.425.83-.445l.12-.202-.201-.081c-.668-.283-.83-1.031-.85-1.436.06.02.122.02.202.02h.04zm.546 1.598s-.202.344-.647.344c-.546 0-.769-.344-.769-.344s.04.425-.162 1.011c-.242.708 0 1.214 0 1.214s-.12.04-.283.04c-.06 0-.121 0-.162-.02-.465-.101-.566-.526-.566-.526s.04 1.395-1.597 1.395h-.02s.14-.202.181-.768c.081-1.032.79-1.173.79-1.173s-.385-.04-.547-.202c-.263-.223-.243-.506-.243-.506.567 0 .95-.202 1.234-.526.303-.364.364-.748.364-.748s-.303.283-.91.283h-.162a.891.891 0 01-.485-.202c.627-.405 1.051-1.092.667-2.144-.303-.85-1.052-1.476-1.8-1.941-.222-.142-.364-.324-.364-.466 0-.343.506-.364.708-.606.243-.283.081-.728-.121-.991 0 0 .06-.02.182-.02.222 0 .586.06.89.364.404.424.242.89.242.89l.101.02c.061.02.122.02.203.02h.04c.587 0 .85-.627.85-.627s.626.768-.304 1.375c-.162.101-.222.202-.202.304l.02.06.06.02c.668.182 1.012.648 1.437 1.173.627.81 1.516.83 1.638.83h.02s-.202.647-.809.647h-.02c-.283 0-.425-.122-.425-.122s-.121 1.497.97 1.942zM30.4 9.61c.283.142.424.344.566.526.142.162.263.323.465.404.081.02.142.04.223.04.303 0 .606-.181.728-.444l.121-.263-.283-.02c-.02 0-.384-.04-.789-.445a.83.83 0 00-.586-.263c-.263 0-.465.141-.486.141l-.242.162.283.162zm.465-.303c.142 0 .303.04.445.202.465.485.91.505.91.505-.081.182-.303.324-.546.324-.06 0-.122 0-.162-.02-.324-.101-.445-.607-1.011-.91-.02.02.141-.101.364-.101zm-.344 2.892c-.162-1.315-1.132-2.286-2.204-2.872a1.85 1.85 0 00-.283-.142c.323.061.849.061 1.253-.303 0 0-.627.465-1.9.04.343.223 1.03.546 1.658 1.072 1.577 1.375.445 2.73.445 2.73.566-.586.586-1.213.424-1.739.304.486.486 1.092.466 1.84-.04 1.052-.627 1.982-1.234 2.71-.303.365-.364.79-.364.79s.121-.385.465-.79c.647-.768 1.213-1.557 1.294-2.71.061.203.344.79.789 1.012 0 0-.566-.324-.809-1.638zm-8.351 4.935s-.122-.182-.142-.667c-.04-.587-.263-.91-.486-1.112a.438.438 0 00.162-.101c.324-.284.303-.627.303-.648l-.02-.182h-.182c-.485 0-.829-.162-1.092-.465-.06-.08-.121-.141-.162-.222.142.04.344.08.546.08h.182c.344-.02.567-.222.587-.262l.182-.182-.222-.142c-.486-.303-.971-.89-.587-1.901.243-.667.809-1.274 1.719-1.84.303-.203.485-.425.485-.647 0-.344-.283-.466-.485-.567a.83.83 0 01-.263-.162c-.162-.182-.02-.546.121-.748l.182-.242-.303-.061s-.08-.02-.222-.02c-.223 0-.668.06-1.032.424a1.056 1.056 0 00-.323.85h-.122c-.445 0-.667-.486-.667-.506l-.121-.303-.203.263c-.02.02-.323.384-.242.87.04.323.242.586.586.808.04.02.06.04.081.06-.647.203-.991.668-1.375 1.133l-.06.061a1.848 1.848 0 01-1.457.789h-.283l.08.263c0 .04.264.788.992.788h.04c.081 0 .142-.02.202-.02-.04.405-.182 1.153-.849 1.436l-.202.081.121.202s.243.425.81.425c.242 0 .444-.06.586-.142.02.182.06.425.161.688.203.607.02 1.052 0 1.052l-.1.222.222.06c.02 0 .162.041.323.041.081 0 .142 0 .223-.02a.948.948 0 00.404-.202c.06.182.162.404.364.607.324.323.769.485 1.355.485h.364l-.182-.324zm-.183.101c-1.638 0-1.597-1.395-1.597-1.395s-.122.425-.567.526c-.06.02-.121.02-.162.02a1.18 1.18 0 01-.283-.04s.243-.506 0-1.214c-.202-.586-.161-1.011-.161-1.011s-.223.323-.769.344c-.445 0-.647-.344-.647-.344 1.092-.445.99-1.921.99-1.921s-.14.1-.424.121h-.02c-.607 0-.809-.647-.809-.647h.02c.101 0 1.011-.02 1.638-.83.425-.525.749-.99 1.436-1.172l.06-.02.021-.061c.02-.101-.06-.202-.202-.304-.93-.606-.303-1.375-.303-1.375s.263.627.849.627h.04c.061 0 .142 0 .203-.02l.1-.02s-.161-.465.243-.89c.304-.324.688-.364.89-.364.101 0 .182.02.182.02-.202.263-.343.708-.121.991.202.243.708.243.708.607 0 .141-.142.323-.384.485-.749.465-1.497 1.092-1.8 1.942-.385 1.051.04 1.739.667 2.143 0 0-.202.182-.485.203h-.162c-.607 0-.91-.284-.91-.284s.06.385.364.749c.283.323.667.525 1.234.525 0 0 .02.263-.243.506-.162.142-.546.202-.546.202s.708.142.789 1.173c.04.546.181.728.161.728zm-3.64-6.673c.08 0 .162-.02.222-.04.203-.062.344-.223.466-.405a2.05 2.05 0 01.566-.526l.283-.142-.263-.182a.885.885 0 00-.485-.141.757.757 0 00-.587.263c-.404.424-.768.444-.788.444l-.263.02.12.264a.86.86 0 00.729.444zm.364-1.032a.563.563 0 01.445-.202c.202 0 .364.121.364.121-.566.304-.688.789-1.011.91-.06.02-.101.02-.162.02a.645.645 0 01-.546-.323c0-.02.445-.06.91-.526zm.93 3.297a3.121 3.121 0 01.465-1.84c-.161.505-.141 1.152.425 1.739 0 0-1.112-1.335.445-2.73.627-.527 1.315-.85 1.658-1.073-1.274.425-1.9-.04-1.9-.04.404.344.93.344 1.253.303-.08.04-.182.081-.283.142-1.072.586-2.043 1.557-2.204 2.872v-.02c-.243 1.314-.81 1.638-.81 1.638.446-.223.729-.79.79-1.012.08 1.153.626 1.942 1.294 2.71.344.405.465.79.465.79s-.06-.446-.364-.79c-.607-.707-1.193-1.617-1.234-2.69zm4.996-2.69v.263c.1-.101.262-.081.262-.081v.384s0 .182-.08.263h.364c-.061-.08-.081-.263-.081-.263v-.384s.182-.02.262.08v-.262h-.727zm-.162-1.557a.583.583 0 00.202.12l.04.021v-.243l-.444-.182c0-.02 0 .122.202.284zm1.072 0c.202-.162.202-.304.202-.304l-.445.182v.243l.04-.02s.081-.02.203-.101z" fill="#000"/><path d="M26.355 7.568c0-.384-.627-.707-1.335-.707-.707 0-1.334.343-1.334.707l.02.102.283 1.617-.283.162-.748.405s-.162.08-.243.141c-.283.203-.344.465-.182.587a.556.556 0 01.566-.465c.243 0 .425.121.587.323.04.04.08.101.1.162l.122.182h-1.88c.14.283.262.566.262.89v4.146c0 1.01.769 1.476 1.618 1.476.647 0 .728-.02 1.092.324.364-.364.445-.324 1.092-.324.83 0 1.618-.485 1.618-1.476v-4.166c0-.324.122-.607.263-.89h-1.88l.12-.182c.041-.06.082-.101.102-.162.141-.182.344-.324.586-.324.344 0 .526.243.567.466.161-.122.1-.405-.183-.587-.08-.06-.242-.142-.242-.142l-.708-.404-.283-.162.283-1.618.02-.08zm-2.406.182l.99.344v1.557l-.727-.404-.263-1.497zm.202 3.277c.162.162.323.263.465.323a.71.71 0 00.02.405.68.68 0 00.324.303.61.61 0 00.404.506l-.283.283-1.132-.02c-.02-.02-.061-.04-.081-.081v-.02l.182.02h.02c.04 0 .06-.02.08-.061 0-.04-.02-.08-.06-.08l-.222-.041.242-.87-.242-.506-.384.405-.02.91-.264-.04c-.04 0-.08.02-.08.06 0 .04.02.081.06.081l.101.02c-.04.02-.06.04-.06.04l-.04.021v.02c-.062.263.08.486.222.607v.04c0 .04 0 .081.02.101a.11.11 0 00.1.061h.021c.06 0 .122-.04.142-.121h.162l1.476.263.02-.02c.121-.081.566-.405.708-.526.04.04.08.06.141.1-.04.163-.06.405.142.608h-3.762v-2.164c0-.203-.06-.425-.141-.627h1.719zm1.82 2.002c-.142.101-.526.384-.667.485l-1.355-.242v-.04a.963.963 0 00.04-.284l1.133.02.02-.02c.02-.02.384-.364.566-.566.04.06.101.1.162.162 0 .141 0 .323.101.485zm-2.245-.243c.04.06.081.101.122.142 0 .06 0 .161-.02.242 0 .02 0 .04-.021.061v.02c-.06 0-.182 0-.263-.04-.101-.04-.263-.243-.222-.445.04-.02.162-.081.242-.081.081 0 .122.02.162.101zm-.141-.263l.02-.87.202-.202.121.263-.242.83-.101-.02zm2.386 4.49h-.202l.162-.485c.02-.061-.102-.162-.162-.243.08.04.283.162.384.202-.02.02-.182.526-.182.526zm.506-.566l-.102.546c-.06 0-.141.02-.202.02l.101-.526c.04-.162-.384-.202-.586-.505-.101.12-.283.141-.485.141-.183 0-.344-.02-.445-.04h-.081a.184.184 0 00-.162.08l-.04.061-.567-.162-.141.243c-.02.04-.02.06.02.101l.04.04c-.02.082-.141.203-.141.203l-.081-.101c-.06-.081-.06-.223.02-.344l.223-.384.485.06-.081-.161c-.101-.223.06-.506.06-.688 0 .04-.06.06-.1.06h-.183l-.12.082-.102-.102c-.02-.02-.02-.06.02-.08l.243-.263-.283-.324.404.202.122-.141c.04.04.02.121.02.121.121 0 .465.202.485.647v.06c.02.041.101.122.182.122l.546.06c.06 0 .182-.06.324-.06.08 0 .182.02.283.081 0 0 .04-.04.121-.04h.02c.243 0 .344.222.486.404.101.142.222.344.222.344a.184.184 0 01-.161.08h-.061c-.263-.04-.303-.586-.445-.626h-.02c-.04 0-.06.04-.06.04.06.182.02.263.1.405.06.101.162.182.203.242-.061-.04-.081.041-.081.102zm-2.953-.506l.02.06c-.02.061-.202.142-.202.142l-.04-.1a.302.302 0 01.1-.365l.304-.182.323.06c0 .102.061.183.061.183l-.344-.06-.202.14c-.02.02-.02.082-.02.122zm2.993 1.031l.101-.485c0-.02.02-.06.02-.08.02.02.061.02.081.02h.101c.142 0 .223-.081.284-.142l.08-.081-.06-.101s-.142-.223-.243-.364c-.02-.02-.04-.06-.06-.081-.122-.162-.264-.384-.547-.384h-.02c-.04 0-.08.02-.121.02a.647.647 0 00-.283-.06c-.122 0-.223.04-.284.06-.02.02-.04.02-.06.02l-.526-.06s-.02-.02-.06-.041l.12-.04c-.04-.385-.404-.627-.606-.708 0-.04-.02-.081-.06-.101l-.122-.102-.101.122-.04.04-.749-.303.486.607-.182.283a.105.105 0 000 .141l.202.142.202-.081h.02c0 .04-.02.162-.04.182l-.344-.04-.384.202a.41.41 0 00-.142.526l.04.08.061.122.122-.06c-.04.14-.02.303.06.383l.081.102.101.141.122-.121a.981.981 0 00.182-.263l.02-.081-.06-.06v-.02l.06-.102.465.101.101.02.06-.1.021-.041c0-.02 0-.02.02-.02h.06c.183.04.345.04.486.04.142 0 .223 0 .324-.04 0 0 .242.283.263.303l-.162.465v.02c-.283.02-.425.081-.607.263-.242-.242-.424-.263-1.092-.263-.789 0-1.335-.465-1.335-1.213v-1.82h4.854v1.82c0 .667-.344 1.092-.91 1.233zm1.052-5.945a1.663 1.663 0 00-.142.627v1.355c-.283-.04-.323-.364-.323-.364v-.061h-.061a.603.603 0 01-.283-.121c-.142-.142-.142-.364-.142-.364 0 .02-.162.222.02.465a.48.48 0 00.324.182c.04.162.162.404.465.445v.667h-.85c-.384-.222-.222-.587-.222-.607l.04-.08-.06-.061c-.425-.162-.303-.566-.303-.587l.02-.06-.06-.02c-.345-.162-.304-.587-.304-.607-.101.08-.142.263-.081.445-.04.04-.101.1-.142.161-.343-.1-.343-.445-.343-.445v-.06l-.04-.02c-.142-.061-.244-.122-.284-.243a.406.406 0 01-.02-.303c.04 0 .08.02.121.02h.243c.222-.02.465-.122.728-.384h1.699v.02zM26.254 9.65l.324.203.08.04c-.181.06-.323.142-.444.263l-.02.02c-.02.02-.061.061-.081.101 0 0 0 .02-.02.02-.02.041-.041.061-.082.102 0 0 0 .02-.02.02-.02.04-.06.08-.08.121-.243.405-.607.647-.951.647s-.708-.242-.95-.647c-.021-.04-.061-.08-.082-.121l-.02-.02c-.02-.04-.04-.06-.06-.101l-.02-.02c-.021-.041-.061-.061-.082-.102l-.02-.02a.904.904 0 00-.445-.263l.081-.04.324-.203.343-.202.91.506.91-.506.405.202zm-.445-.404l-.728.384V8.074l.991-.344-.263 1.517zM25 7.912l-1.072-.424c.101-.223.506-.405 1.072-.405.567 0 .991.182 1.072.405L25 7.912z" fill="#000"/></svg>