<svg width="36" height="36" viewBox="0 0 36 36" fill="none" xmlns="http://www.w3.org/2000/svg">
<path d="M17.3001 1.6858L1.74946 16.9235C1.10962 17.5505 1.55353 18.6378 2.44934 18.6378H3.5C4.05228 18.6378 4.5 19.0855 4.5 19.6378V34.5C4.5 35.0523 4.94771 35.5 5.5 35.5H30C30.5523 35.5 31 35.0523 31 34.5V19.6378C31 19.0855 31.4477 18.6378 32 18.6378H33.5507C34.4465 18.6378 34.8904 17.5505 34.2505 16.9235L18.6999 1.6858C18.3111 1.30481 17.6889 1.30481 17.3001 1.6858Z" stroke="white"/>
<rect x="8.5" y="19.5" width="7" height="7" rx="0.5" stroke="white"/>
<path d="M19 20C19 19.7239 19.2239 19.5 19.5 19.5H26.5C26.7761 19.5 27 19.7239 27 20V35C27 35.2761 26.7761 35.5 26.5 35.5H19.5C19.2239 35.5 19 35.2761 19 35V20Z" stroke="white"/>
</svg>
