<svg width="50" height="32" viewBox="0 0 50 32" fill="none" xmlns="http://www.w3.org/2000/svg">
<g id="Alfa-Bank (&#208;&#144;&#208;&#187;&#209;&#140;&#209;&#132;&#208;&#176;-&#208;&#177;&#208;&#176;&#208;&#189;&#208;&#186;)">
<g id="Alfa-Bank (&#208;&#144;&#208;&#187;&#209;&#140;&#209;&#132;&#208;&#176;-&#208;&#177;&#208;&#176;&#208;&#189;&#208;&#186;)_2">
<rect id="Rectangle" width="50" height="32" rx="3" fill="#EE2A23"/>
<path id="path134" d="M8.74136 9C9.74635 9 10.0621 9.68334 10.3271 10.3656C10.4384 10.6553 13.05 17.4352 13.1285 17.6387C13.1494 17.6955 13.1353 17.7887 13.0432 17.8224C12.9506 17.8556 11.5936 18.3558 11.5185 18.3826C11.4434 18.4099 11.3592 18.3703 11.3321 18.2991C11.3038 18.2289 10.7406 16.7508 10.6773 16.5859H6.80652C6.7455 16.7508 6.1755 18.2321 6.15008 18.2991C6.12409 18.3671 6.04331 18.4131 5.96309 18.3826C5.88287 18.3526 4.52085 17.8524 4.43951 17.8224C4.36155 17.7935 4.32596 17.7094 4.35307 17.6387C4.44911 17.3849 7.02118 10.7137 7.15225 10.3656C7.40759 9.69352 7.73411 9 8.74136 9ZM4.14631 21.1315C4.06497 21.1315 4 21.1958 4 21.274V22.8586C4 22.9368 4.06497 23 4.14631 23H13.3325C13.4155 23 13.4805 22.9368 13.4805 22.8586V21.274C13.4805 21.1958 13.4155 21.1315 13.3325 21.1315H4.14631ZM8.73232 11.2139L7.42397 14.9386H10.0621L8.74927 11.2139H8.73232V11.2139ZM28.3649 17.3212C28.1723 17.3828 28.0452 17.3978 27.8938 17.3978C27.5808 17.3978 27.4074 17.2805 27.4074 16.9763C27.4074 16.6592 27.6277 16.5532 28.0604 16.5532C28.1661 16.5532 28.27 16.5677 28.3186 16.5837V16.8108C28.3186 17.0555 28.3327 17.2162 28.3649 17.3212V17.3212ZM29.4773 17.6843C29.2462 17.3517 29.1858 17.1557 29.1858 16.7364V15.8849C29.1858 15.4264 29.1293 15.261 29.0016 15.0939C28.8236 14.8572 28.5271 14.7543 27.9819 14.7543C27.5961 14.7543 27.2215 14.794 26.8589 14.8818L26.9899 15.487C27.2351 15.4543 27.4921 15.4264 27.6735 15.4264C28.2525 15.4264 28.3186 15.5057 28.3186 15.9175V16.0712C28.1898 16.0386 28.0452 16.015 27.8774 16.015C27.0057 16.015 26.5453 16.4193 26.5453 17.0887C26.5453 17.7164 27.0374 18.0586 27.6368 18.0586C27.8605 18.0586 28.0943 18.0195 28.2796 17.9477C28.3915 17.9017 28.4401 17.8744 28.5847 17.7855C28.6717 17.9054 28.8462 18.0281 28.9174 18.0511L29.4773 17.6843V17.6843ZM38.0996 17.3212C37.9058 17.3828 37.781 17.3978 37.6285 17.3978C37.3144 17.3978 37.1387 17.2805 37.1387 16.9763C37.1387 16.6592 37.3618 16.5532 37.7957 16.5532C37.9013 16.5532 38.0058 16.5677 38.0533 16.5837V16.8108C38.0533 17.0555 38.0668 17.2162 38.0996 17.3212V17.3212ZM39.2131 17.6843C38.9803 17.3517 38.921 17.1557 38.921 16.7364V15.8849C38.921 15.4264 38.8634 15.261 38.7346 15.0939C38.5589 14.8572 38.2617 14.7543 37.7149 14.7543C37.3296 14.7543 36.9528 14.794 36.5902 14.8818L36.7195 15.487C36.9653 15.4543 37.2229 15.4264 37.4093 15.4264C37.9849 15.4264 38.0533 15.5057 38.0533 15.9175V16.0712C37.9245 16.0386 37.781 16.015 37.6098 16.015C36.737 16.015 36.2749 16.4193 36.2749 17.0887C36.2749 17.7164 36.7681 18.0586 37.3703 18.0586C37.5968 18.0586 37.8285 18.0195 38.0121 17.9477C38.1256 17.9017 38.1725 17.8744 38.3171 17.7855C38.4052 17.9054 38.5798 18.0281 38.6515 18.0511L39.2131 17.6843V17.6843ZM46 17.9874C46 17.9874 45.5221 17.0218 45.4051 16.8022C45.2735 16.5548 45.1515 16.384 44.8826 16.3224V16.3085C45.0628 16.2758 45.2063 16.1724 45.3633 15.8565C45.5119 15.5485 45.556 15.4821 45.6435 15.4088C45.7294 15.3359 45.8469 15.3622 45.8469 15.3622L45.891 14.7929C45.7661 14.7768 45.6277 14.7763 45.4848 14.7838C45.2475 14.7972 45.1249 14.862 45.008 14.9734C44.9165 15.0585 44.8543 15.186 44.7775 15.3322C44.6962 15.4918 44.6318 15.6203 44.547 15.7826C44.4629 15.9491 44.4233 16.0241 44.1968 16.0241H44.0493V13.5023H43.1765V17.9874H44.0493V16.6978L44.1685 16.6957C44.4188 16.6957 44.4629 16.7551 44.595 17.0052C44.7498 17.3035 45.0464 17.9874 45.0464 17.9874H46V17.9874ZM21.4125 17.9874H22.4197L20.8961 13.5772C20.7357 13.5264 20.5374 13.4948 20.3256 13.4948C20.0945 13.4948 20.0121 13.5237 19.8313 13.5772L18.219 17.9874H19.1856C19.1856 17.9874 19.3161 17.6007 19.4697 17.1214H21.1396C21.2888 17.6002 21.4125 17.9874 21.4125 17.9874ZM19.7149 16.3818C19.7149 16.3818 19.994 15.4966 20.0375 15.359C20.1482 15.0023 20.3165 14.4357 20.3165 14.4357H20.3442C20.3442 14.4357 20.5001 15.0226 20.6018 15.3525C20.6402 15.4837 20.9069 16.3818 20.9069 16.3818H19.7149ZM30.9641 15.8774C30.6562 15.8774 30.406 16.1157 30.406 16.4075C30.406 16.7016 30.6562 16.9383 30.9641 16.9383C31.2726 16.9383 31.5217 16.7016 31.5217 16.4075C31.5217 16.1157 31.2726 15.8774 30.9641 15.8774ZM23.6157 13.5023H22.7406V17.9868H23.6157V13.5023V13.5023ZM41.001 15.4671C41.4846 15.4768 41.5445 15.5716 41.5445 15.9561V17.9874H42.4116V15.8849C42.4116 15.4264 42.3551 15.261 42.2263 15.0939C42.0484 14.8572 41.6987 14.7543 41.1072 14.7543C40.522 14.7543 40.1491 14.8133 39.6695 14.9487V17.9874H40.5457V15.5057C40.7756 15.4741 40.8163 15.4671 41.001 15.4671V15.4671ZM25.7799 13.4225C25.233 13.4225 24.9353 13.5253 24.7602 13.7615C24.6314 13.9291 24.5743 14.0983 24.5743 14.5578V14.9487H24.1399V15.6192H24.5743V17.9874H25.442L25.4398 15.6192H26.3047V14.9487H25.4398L25.442 14.5894C25.442 14.1781 25.5081 14.0983 26.0878 14.0983C26.1505 14.0983 26.2211 14.1015 26.2962 14.1069L26.4329 13.4626C26.2188 13.4358 25.9996 13.4225 25.7799 13.4225V13.4225ZM32.7419 13.4642C33.0396 13.4476 33.7051 13.4241 34.1226 13.4241C34.1989 13.4241 34.2779 13.4246 34.357 13.4284C35.1779 13.4284 35.6484 13.995 35.6484 14.6601C35.6484 15.1126 35.4298 15.4131 34.9174 15.5919C35.5202 15.7183 35.836 16.1644 35.836 16.7101C35.836 17.1107 35.7168 17.4288 35.4982 17.6457C35.2146 17.9103 34.7852 18.0586 34.2135 18.0586C33.7051 18.0586 33.0668 18.0436 32.7419 18.0254V13.4642V13.4642ZM34.1226 14.199C33.978 14.199 33.7989 14.2017 33.6215 14.2076V15.2845H34.1232C34.322 15.2845 34.4819 15.232 34.5909 15.1308C34.6949 15.0355 34.7491 14.9005 34.7491 14.7404C34.7491 14.3961 34.5525 14.2011 34.187 14.199H34.1226V14.199ZM34.1407 17.2853H34.1785C34.6344 17.2853 34.9135 17.0555 34.9169 16.5928C34.9123 16.4268 34.8451 16.2737 34.7248 16.1628C34.5932 16.0375 34.4067 15.9722 34.1881 15.9722H33.6215V17.2805C33.7814 17.2837 33.9576 17.2842 34.1407 17.2853" fill="white"/>
</g>
</g>
</svg>
