<svg width="50" height="32" viewBox="0 0 50 32" fill="none" xmlns="http://www.w3.org/2000/svg">
<g id="Google Pay">
<g id="Google Pay_2">
<rect id="Rectangle" width="50" height="32" rx="3" fill="#5485EC"/>
<g id="Group">
<path id="Vector" d="M23.9716 16.8272V21.2504H22.5684V10.327H26.2899C26.7342 10.3177 27.1758 10.3965 27.5895 10.5588C28.0031 10.7211 28.3805 10.9638 28.6998 11.2727C29.0224 11.5628 29.2791 11.9187 29.4528 12.3163C29.6264 12.7139 29.7129 13.1441 29.7065 13.578C29.7157 14.0141 29.6305 14.4471 29.4568 14.8473C29.283 15.2474 29.0248 15.6053 28.6998 15.8963C28.0491 16.5169 27.2458 16.8269 26.2899 16.8263H23.9716V16.8272ZM23.9716 11.6719V15.485H26.3248C26.5828 15.4926 26.8395 15.4463 27.0786 15.3491C27.3177 15.2518 27.5338 15.1057 27.7132 14.9202C27.8917 14.7467 28.0335 14.5392 28.1304 14.3099C28.2272 14.0806 28.2771 13.8343 28.2771 13.5854C28.2771 13.3365 28.2272 13.0901 28.1304 12.8609C28.0335 12.6316 27.8917 12.4241 27.7132 12.2506C27.5361 12.0611 27.3207 11.9114 27.0813 11.8115C26.842 11.7116 26.5841 11.6637 26.3248 11.671H23.9716V11.6719Z" fill="white"/>
<path id="Vector_2" d="M32.9397 13.5327C33.9769 13.5327 34.7955 13.8098 35.3958 14.3641C35.996 14.9184 36.2958 15.6784 36.2952 16.6441V21.2504H34.953V20.2132H34.892C34.311 21.0673 33.5382 21.4944 32.5736 21.4944C31.7503 21.4944 31.0615 21.2504 30.5071 20.7623C30.2411 20.5383 30.0285 20.2577 29.8846 19.9411C29.7408 19.6245 29.6694 19.2797 29.6757 18.932C29.6757 18.1586 29.9679 17.5436 30.5525 17.0869C31.137 16.6302 31.9173 16.4013 32.8935 16.4001C33.7267 16.4001 34.4129 16.5526 34.9521 16.8577V16.5369C34.9537 16.2999 34.9025 16.0655 34.8023 15.8506C34.702 15.6358 34.5552 15.446 34.3725 15.295C34.0015 14.9602 33.5179 14.7775 33.0181 14.7834C32.2343 14.7834 31.614 15.114 31.1573 15.7752L29.9215 14.9969C30.6013 14.0207 31.6074 13.5327 32.9397 13.5327ZM31.1242 18.9625C31.1233 19.1411 31.165 19.3173 31.246 19.4765C31.3269 19.6357 31.4448 19.7732 31.5896 19.8777C31.9 20.1218 32.2852 20.2511 32.68 20.2437C33.2721 20.2427 33.8397 20.007 34.2584 19.5883C34.7232 19.1508 34.9556 18.6374 34.9556 18.0482C34.5181 17.6996 33.908 17.5253 33.1253 17.5253C32.5553 17.5253 32.08 17.6627 31.6995 17.9375C31.3151 18.2164 31.1242 18.5555 31.1242 18.9625Z" fill="white"/>
<path id="Vector_3" d="M43.9997 13.7767L39.3142 24.5449H37.8656L39.6044 20.7771L36.5234 13.7767H38.0487L40.2755 19.1456H40.306L42.4719 13.7767H43.9997Z" fill="white"/>
<g id="Group_2">
<path id="Vector_4" d="M18.3009 15.8737C18.3014 15.4461 18.2653 15.0192 18.1928 14.5977H12.2749V17.0146H15.6644C15.5951 17.4006 15.4483 17.7685 15.2329 18.0963C15.0175 18.424 14.7379 18.7048 14.4111 18.9216V20.4904H16.434C17.6185 19.3983 18.3009 17.7833 18.3009 15.8737Z" fill="white"/>
<path id="Vector_5" d="M12.2752 22.006C13.9687 22.006 15.3946 21.45 16.4344 20.4912L14.4114 18.9224C13.8484 19.3042 13.1233 19.5221 12.2752 19.5221C10.6384 19.5221 9.24916 18.4187 8.75237 16.9318H6.66846V18.5485C7.19076 19.5878 7.99165 20.4615 8.98172 21.0721C9.97178 21.6826 11.1121 22.006 12.2752 22.006Z" fill="white"/>
<path id="Vector_6" d="M8.75212 16.9318C8.48948 16.1527 8.48948 15.3089 8.75212 14.5298V12.913H6.6682C6.22883 13.7873 6 14.7523 6 15.7308C6 16.7093 6.22883 17.6743 6.6682 18.5486L8.75212 16.9318Z" fill="white"/>
<path id="Vector_7" d="M12.2752 11.9395C13.1702 11.9248 14.0349 12.263 14.6825 12.8807L16.4736 11.0897C15.3378 10.0229 13.8333 9.43729 12.2752 9.45549C11.1121 9.45554 9.97178 9.77889 8.98172 10.3894C7.99165 11 7.19076 11.8737 6.66846 12.913L8.75237 14.5297C9.24916 13.0429 10.6384 11.9395 12.2752 11.9395Z" fill="white"/>
</g>
</g>
</g>
</g>
</svg>
