<svg width="50" height="32" viewBox="0 0 50 32" fill="none" xmlns="http://www.w3.org/2000/svg">
<g id="Tinkoff (&#208;&#162;&#208;&#184;&#208;&#189;&#209;&#140;&#208;&#186;&#208;&#190;&#209;&#132;&#209;&#132;)">
<g id="Tinkoff (&#208;&#162;&#208;&#184;&#208;&#189;&#209;&#140;&#208;&#186;&#208;&#190;&#209;&#132;&#209;&#132;)_2">
<rect id="Rectangle" width="50" height="32" rx="3" fill="#1A1919"/>
<g id="Group">
<g id="Group_2">
<path id="Vector" fill-rule="evenodd" clip-rule="evenodd" d="M14.0645 22.7143H15.4281V26.9205H16.4008V22.7148H17.7182V21.8943H14.0645V22.7143ZM27.3485 23.411H26.2809L25.0266 24.9085V22.002L24.098 22.3407V26.9205H25.0266V25.2045L26.2517 26.9205H27.3559L25.9779 25.0328L27.3485 23.411ZM29.8919 25.5873C29.8579 25.7172 29.8078 25.8314 29.7445 25.9295C29.6792 26.0285 29.5994 26.1057 29.5035 26.1602C29.4029 26.2165 29.2891 26.2451 29.1739 26.243C28.9219 26.243 28.7292 26.148 28.5958 25.9587C28.4624 25.7691 28.3953 25.501 28.3953 25.1544C28.3953 24.8475 28.4602 24.592 28.5879 24.391C28.7174 24.1888 28.9045 24.0881 29.1516 24.0881C29.4132 24.0881 29.6107 24.1883 29.7437 24.3871C29.8775 24.5868 29.9438 24.8475 29.9438 25.1697C29.9438 25.3179 29.9263 25.4574 29.8923 25.5873H29.8919ZM30.4059 23.8217C30.2546 23.6619 30.0699 23.5376 29.8649 23.4577C29.6448 23.3717 29.4102 23.3288 29.1739 23.3312C28.9373 23.3287 28.7024 23.3716 28.482 23.4577C28.2771 23.5377 28.0917 23.6605 27.9379 23.8178C27.7867 23.9738 27.6681 24.1665 27.5848 24.3941C27.502 24.6221 27.4597 24.8811 27.4597 25.1697C27.4597 25.4478 27.5002 25.7002 27.5818 25.926C27.662 26.1523 27.7758 26.3446 27.9235 26.5028C28.0705 26.6615 28.2479 26.7836 28.4567 26.8703C28.6799 26.9594 28.9184 27.0034 29.1586 26.9998C29.3951 27.0022 29.63 26.9594 29.8505 26.8738C30.056 26.7931 30.2415 26.6689 30.3946 26.5098C30.5471 26.3507 30.6657 26.1575 30.7516 25.9295C30.8375 25.7015 30.8807 25.4426 30.8807 25.1544C30.8807 24.8767 30.8388 24.6234 30.7547 24.398C30.6789 24.184 30.5602 23.9877 30.4059 23.8212V23.8217ZM18.6551 21.8939C18.496 21.8939 18.363 21.9479 18.2558 22.0526C18.2043 22.1025 18.1637 22.1624 18.1361 22.2286C18.1086 22.2948 18.0949 22.3658 18.0958 22.4375C18.0958 22.5827 18.1502 22.7074 18.2558 22.8146C18.3634 22.9201 18.496 22.9733 18.6551 22.9733C18.8042 22.9733 18.9332 22.9201 19.0422 22.8146C19.0943 22.7666 19.1358 22.7083 19.1641 22.6434C19.1924 22.5784 19.2069 22.5083 19.2066 22.4375C19.2066 22.2871 19.1521 22.1594 19.0422 22.0526C18.9914 22.0018 18.9311 21.9616 18.8646 21.9343C18.7981 21.9071 18.7269 21.8933 18.6551 21.8939ZM18.1829 26.9205H19.1189V23.4023H18.1829V26.9205ZM22.0141 23.3696C21.334 23.3186 20.9491 23.6935 20.9491 23.6935V23.4032H20.0131V26.92H20.9491V24.8248C20.9491 24.4686 21.2447 24.1796 21.6091 24.1796C21.9732 24.1796 22.2687 24.4686 22.2687 24.8248V26.9205H23.2043V24.8392C23.2043 23.7362 22.5687 23.4106 22.0141 23.3696ZM31.7709 23.3308V23.3962H31.2098V24.1173H31.7709V26.9205H32.7069V24.1173H33.2662V23.3962H32.7078V23.3225C32.7078 22.8373 32.9331 22.5984 33.3752 22.6686L33.5208 21.9405C32.0974 21.7696 31.7709 22.5326 31.7709 23.3312V23.3308ZM34.1861 23.3308V23.3962H33.625V24.1173H34.1861V26.9205H35.1225V24.1173H35.6819V23.3962H35.123V23.3225C35.123 22.8373 35.3488 22.5984 35.79 22.6686L35.9365 21.9405C34.5126 21.7696 34.1861 22.5326 34.1861 23.3312" fill="white"/>
</g>
<g id="Group_3">
<path id="Vector_2" d="M32.9686 11.8356L33.1709 11.148L32.463 11.1682C32.4024 11.1682 31.9777 11.148 31.553 10.8447H31.6541C32.0788 10.8447 32.5035 10.5818 32.6653 10.2177L32.9686 9.55035C32.5844 9.55035 32.2406 9.5099 32.2406 9.5099C32.2406 9.5099 31.9575 9.46945 31.6541 9.14587C31.4316 8.92341 31.1485 8.80207 30.8451 8.80207C30.7036 8.80207 30.6025 8.82229 30.5013 8.86274C30.5216 8.80207 30.5418 8.76162 30.5418 8.70095C30.6429 8.07401 30.2384 7.58864 30.2384 7.58864L29.7126 6.94148L29.389 7.70998C29.389 7.70998 29.3081 7.892 29.1666 7.97289C29.1261 7.75043 29.0048 7.48752 28.7823 7.24484C28.3374 6.77969 27.8116 6.71902 27.5284 6.71902C27.4071 6.71902 27.306 6.73924 27.2858 6.73924L26.6386 6.86059C26.6791 6.71902 26.7599 6.47633 26.9015 6.25387L27.2453 5.70783L26.3352 5.80895L26.0521 5.20224L25.5061 5.48537L25.0005 5L24.5151 5.50559L23.9691 5.22246L23.6859 5.82917L22.7961 5.72806L23.1399 6.2741C23.2815 6.49656 23.3624 6.73924 23.4028 6.88081L22.7961 6.75947H22.7759C22.7354 6.75947 22.6545 6.73924 22.513 6.73924C22.2298 6.73924 21.704 6.79991 21.2591 7.26506C21.0164 7.50775 20.9153 7.77066 20.8748 7.99312C20.7333 7.91222 20.6524 7.73021 20.6524 7.73021L20.3288 6.96171L19.7827 7.62909C19.7221 7.70998 19.3985 8.15491 19.4794 8.72117C19.4794 8.78184 19.4996 8.82229 19.5198 8.88296C19.4187 8.84252 19.2974 8.82229 19.176 8.82229C18.8727 8.82229 18.5895 8.94363 18.3671 9.1661C18.0435 9.48968 17.7806 9.53012 17.7806 9.53012C17.7806 9.53012 17.4975 9.59079 17.0525 9.57057L17.3559 10.238C17.5177 10.602 17.9424 10.8649 18.3671 10.8649H18.4682C18.0435 11.1682 17.6188 11.1885 17.5581 11.1885L16.8301 11.148L17.0525 11.8356C17.1537 12.1794 17.5177 12.7659 18.2255 12.8266C18.1446 13.1502 17.9828 13.494 17.6188 13.6558L17.093 13.8782L17.3761 14.3838C17.5379 14.6467 17.9222 14.9703 18.4682 14.9703C18.5895 14.9703 18.7109 14.9501 18.812 14.9299C18.8322 15.0512 18.8727 15.1726 18.9131 15.2939C19.0749 15.7793 18.9333 16.1231 18.9333 16.1231L18.6704 16.6691L19.2569 16.8309C19.2569 16.8309 19.4389 16.8916 19.6614 16.8916C19.7625 16.8916 19.8636 16.8713 19.9445 16.8511C20.0052 16.8309 20.0861 16.8107 20.1468 16.7905C20.2277 16.932 20.3086 17.0534 20.4299 17.1545C20.8142 17.5387 21.34 17.741 22.0074 17.741H22.4927L21.5018 18.1454L22.25 18.5095C22.5332 18.651 22.8568 18.7926 23.1803 18.9139L23.0792 19.1769L23.3421 19.2982C23.3624 19.3184 23.8679 19.5409 24.6971 19.5813H25.3038C26.133 19.5409 26.6386 19.3184 26.6588 19.2982L26.9217 19.1769L26.8206 18.9139C27.1644 18.7926 27.5082 18.6308 27.7711 18.4892L28.5194 18.1252L27.5284 17.7207H28.0138C28.6812 17.7207 29.2272 17.5185 29.5913 17.1343C29.6924 17.0331 29.7935 16.8916 29.8744 16.7702C29.9351 16.7905 29.9957 16.8107 30.0766 16.8309C30.1575 16.8511 30.2587 16.8713 30.3598 16.8713C30.5822 16.8713 30.7643 16.8309 30.7643 16.8309L31.3507 16.6691L31.0878 16.1231C31.0878 16.1028 30.9463 15.7793 31.1081 15.2939C31.1485 15.1726 31.1889 15.0512 31.2092 14.9299C31.3103 14.9501 31.4316 14.9703 31.553 14.9703C32.2608 14.9703 32.5844 14.4849 32.6451 14.3636L32.9282 13.858L32.4024 13.6355C32.0383 13.4738 31.8563 13.13 31.7957 12.8064C32.4833 12.7659 32.8675 12.1794 32.9686 11.8356ZM25.0005 7.08305C24.4342 7.08305 24.0095 7.26506 23.9286 7.48752L25.0005 7.91222L26.0723 7.48752C25.9914 7.26506 25.5667 7.08305 25.0005 7.08305ZM25.0207 18.3477H25.0005C24.6567 18.3477 24.1915 18.287 23.9691 18.2061L23.6859 18.9544C23.8679 19.0151 24.4747 19.1364 25.0005 19.1364C25.5263 19.1364 26.1532 19.0151 26.315 18.9544L26.0521 18.2061C25.8297 18.287 25.3645 18.3477 25.0207 18.3477Z" fill="white"/>
<path id="Vector_3" d="M27.0837 17.6196C26.8815 17.741 26.4365 17.9028 26.1736 17.9837L26.3961 18.5904C26.8006 18.469 27.1444 18.3477 27.4275 18.2061L26.9421 18.0646L27.0837 17.6196ZM22.9378 17.6196L23.0794 18.0646L22.6143 18.2264C22.8974 18.3679 23.221 18.4893 23.6457 18.6106L23.8681 18.0039C23.585 17.9028 23.1401 17.741 22.9378 17.6196ZM25.0007 6.37523C25.4254 6.37523 25.8501 6.47635 26.1736 6.65836C26.1939 6.55724 26.2343 6.4359 26.295 6.31456L26.1736 6.33478L26.0523 6.35501L25.9916 6.23366L25.8298 5.88986L25.5265 6.05165L25.4051 6.11232L25.3242 6.0112L25.0007 5.68762L24.6973 6.0112L24.5962 6.0921L24.4748 6.03143L24.1715 5.86964L24.0097 6.21344L23.949 6.33478L23.8277 6.31456L23.7063 6.29434C23.767 6.41568 23.8075 6.53702 23.8277 6.63814C24.1715 6.47635 24.576 6.37523 25.0007 6.37523ZM31.4925 10.3391C31.5532 10.3593 31.5936 10.3593 31.6543 10.3593C31.897 10.3593 32.1194 10.1975 32.2003 10.0357C32.2003 10.0357 31.7554 10.0155 31.2902 9.53014C31.1487 9.36835 30.9869 9.3279 30.8453 9.3279C30.6229 9.3279 30.4813 9.44924 30.4813 9.44924C31.0678 9.73238 31.1689 10.2177 31.4925 10.3391ZM18.347 10.3593C18.4077 10.3593 18.4684 10.3593 18.5088 10.3391C18.8324 10.238 18.9537 9.73238 19.52 9.42902C19.52 9.42902 19.3582 9.30768 19.156 9.30768C19.0144 9.30768 18.8526 9.34812 18.7111 9.50991C18.2459 9.99528 17.801 10.0155 17.801 10.0155C17.8819 10.1975 18.1044 10.3593 18.347 10.3593ZM31.6543 12.321H31.6745C32.2812 12.321 32.4834 11.6739 32.4834 11.6739H32.4632C32.3621 11.6739 31.452 11.6536 30.8251 10.8447C30.4004 10.3189 30.0768 9.85372 29.3892 9.6717L29.3285 9.65148L29.3083 9.59081C29.2881 9.48969 29.369 9.38857 29.5106 9.28745C30.4408 8.68074 29.8139 7.91224 29.8139 7.91224C29.8139 7.91224 29.551 8.53917 28.9645 8.53917H28.9241C28.8634 8.53917 28.7825 8.53917 28.7218 8.51895L28.6207 8.49873C28.6207 8.49873 28.7825 8.03358 28.378 7.60888C28.0747 7.2853 27.6904 7.24485 27.4882 7.24485C27.3871 7.24485 27.3062 7.26508 27.3062 7.26508C27.5084 7.52798 27.65 7.97291 27.4275 8.25604C27.2253 8.49873 26.7197 8.49873 26.7197 8.86275C26.7197 9.00432 26.8612 9.18633 27.1039 9.34812C27.8522 9.81327 28.6005 10.4402 28.9038 11.2896C29.2881 12.3412 28.8634 13.0288 28.2365 13.4333C28.2365 13.4333 28.4387 13.6153 28.7218 13.6356H28.8836C29.4903 13.6356 29.7937 13.3524 29.7937 13.3524C29.7937 13.3524 29.733 13.7367 29.4297 14.1007C29.1465 14.4243 28.7623 14.6265 28.196 14.6265C28.196 14.6265 28.1758 14.8894 28.4387 15.1321C28.6005 15.2737 28.9847 15.3344 28.9847 15.3344C28.9847 15.3344 28.2769 15.4759 28.196 16.5073C28.1556 17.0736 28.014 17.2758 28.014 17.2758H28.0342C29.6723 17.2758 29.6319 15.8804 29.6319 15.8804C29.6319 15.8804 29.7532 16.3051 30.1982 16.4062C30.2588 16.4264 30.3195 16.4264 30.36 16.4264C30.5015 16.4264 30.6431 16.386 30.6431 16.386C30.6431 16.386 30.4004 15.8804 30.6431 15.1726C30.8453 14.5861 30.8049 14.1614 30.8049 14.1614C30.8049 14.1614 31.0273 14.485 31.5734 14.5052C32.0183 14.5052 32.2205 14.1614 32.2205 14.1614C31.1285 13.7165 31.2296 12.2401 31.2296 12.2401C31.2296 12.2401 31.3711 12.321 31.6543 12.321ZM31.3307 13.8378C30.8858 13.6153 30.6026 13.0491 30.542 12.8266C30.4611 13.9794 29.915 14.7681 29.2476 15.5366C28.9038 15.9411 28.7825 16.3253 28.7825 16.3253C28.7825 16.3253 28.8432 15.8804 29.1465 15.5366C29.7532 14.8085 30.3397 13.8782 30.3802 12.8266C30.4004 12.0783 30.2184 11.4918 29.915 10.9862C30.0768 11.4918 30.0566 12.139 29.4903 12.7255C29.4903 12.7255 30.6026 11.3907 29.0454 9.99528C28.4185 9.46947 27.7309 9.14589 27.3871 8.92342C28.6612 9.34812 29.2881 8.88298 29.2881 8.88298C28.8836 9.22678 28.3578 9.22678 28.0342 9.18633C28.1151 9.22678 28.2162 9.26723 28.3174 9.3279C29.3892 9.91439 30.36 10.8851 30.5217 12.1997V12.1795C30.7644 13.5142 31.3307 13.8378 31.3307 13.8378ZM21.0368 15.2939C21.0368 15.2939 21.421 15.2535 21.5828 15.0917C21.8457 14.8692 21.8255 14.5861 21.8255 14.5861C21.2593 14.5861 20.875 14.3838 20.5919 14.0603C20.2885 13.6962 20.2278 13.312 20.2278 13.312C20.2278 13.312 20.5312 13.5951 21.1379 13.5951H21.2997C21.5828 13.5749 21.7851 13.3929 21.7851 13.3929C21.1581 12.9884 20.7334 12.3008 21.1177 11.2492C21.421 10.3998 22.1693 9.77282 22.9176 9.30768C23.1603 9.14589 23.3019 8.9841 23.3019 8.82231C23.3019 8.4785 22.7963 8.45828 22.594 8.21559C22.3513 7.93246 22.5131 7.48754 22.7154 7.22463C22.7154 7.22463 22.6547 7.2044 22.5334 7.2044C22.3109 7.2044 21.9469 7.26508 21.6435 7.56843C21.239 7.99313 21.4008 8.45828 21.4008 8.45828L21.2795 8.51895C21.2188 8.53917 21.1581 8.53917 21.0772 8.53917H21.0368C20.4503 8.53917 20.1874 7.91224 20.1874 7.91224C20.1874 7.91224 19.5605 8.68074 20.4908 9.28745C20.6525 9.38857 20.7132 9.48969 20.693 9.59081L20.6728 9.6717L20.6121 9.69193C19.9447 9.87394 19.6009 10.3391 19.1762 10.8649C18.5493 11.6739 17.6594 11.6941 17.5381 11.6941C17.5381 11.6941 17.7403 12.3412 18.347 12.3412H18.3673C18.6504 12.3412 18.792 12.2199 18.792 12.2199C18.792 12.2199 18.8931 13.676 17.801 14.1412C17.801 14.1412 18.0032 14.485 18.4482 14.485C18.9942 14.485 19.2167 14.1412 19.2167 14.1412C19.2167 14.1412 19.1762 14.5659 19.3784 15.1523C19.6211 15.8602 19.3784 16.3658 19.3784 16.3658C19.3784 16.3658 19.4998 16.4062 19.6616 16.4062C19.7223 16.4062 19.7829 16.4062 19.8234 16.386C20.2885 16.2849 20.3896 15.8602 20.3896 15.8602C20.3896 15.8602 20.3492 17.2556 21.9873 17.2556H22.0075C22.0075 17.2556 21.866 17.0534 21.8255 16.4871C21.7446 15.4557 21.0368 15.2939 21.0368 15.2939ZM20.7739 15.5568C20.1267 14.7883 19.5605 13.9996 19.4796 12.8468C19.4189 13.0491 19.1358 13.6356 18.6908 13.858C18.6908 13.858 19.2571 13.5142 19.4998 12.2199V12.2401C19.6616 10.9054 20.6323 9.95484 21.7042 9.36835C21.8053 9.30768 21.8862 9.26723 21.9873 9.22678C21.6637 9.28745 21.1379 9.28745 20.7334 8.92342C20.7334 8.92342 21.3604 9.38857 22.6345 8.96387C22.2907 9.18633 21.6031 9.50991 20.9761 10.0357C19.3987 11.4109 20.5312 12.7659 20.5312 12.7659C19.9649 12.1795 19.9447 11.5525 20.1065 11.0267C19.8031 11.5121 19.6211 12.1188 19.6414 12.8671C19.6818 13.8985 20.2683 14.8085 20.875 15.5568C21.1784 15.9208 21.239 16.3455 21.239 16.3455C21.239 16.3455 21.1177 15.9613 20.7739 15.5568Z" fill="white"/>
<path id="Vector_4" d="M23.8069 10.1773C23.8271 10.1975 23.8675 10.238 23.8878 10.2784L23.908 10.2986C23.9282 10.3391 23.9484 10.3593 23.9687 10.3998C23.9687 10.3998 23.9687 10.42 23.9889 10.42C24.0091 10.4604 24.0496 10.5009 24.0698 10.5413C24.3125 10.9458 24.6765 11.1885 25.0203 11.1885C25.3641 11.1885 25.7281 10.9458 25.9708 10.5413C25.991 10.5009 26.0315 10.4604 26.0517 10.42C26.0517 10.42 26.0517 10.3998 26.0719 10.3998C26.0922 10.3593 26.1124 10.3391 26.1528 10.2986L26.1731 10.2784C26.1933 10.238 26.2337 10.2177 26.2539 10.1773L26.2742 10.1571C26.3955 10.0357 26.5371 9.93461 26.7191 9.89417L26.5978 9.85372L26.2742 9.65148L25.9304 9.44924L25.0203 9.95484L24.1102 9.44924L23.7664 9.65148L23.4428 9.85372L23.3619 9.89417C23.5237 9.95484 23.6653 10.0357 23.8069 10.1773C23.7866 10.1773 23.7866 10.1773 23.8069 10.1773ZM24.636 10.1369H25.4045V10.3998C25.3237 10.2986 25.1416 10.3189 25.1416 10.3189V10.7031C25.1416 10.7031 25.1416 10.8851 25.2225 10.966H24.8585C24.9192 10.8851 24.9394 10.7031 24.9394 10.7031V10.3189C24.9394 10.3189 24.7574 10.2986 24.6765 10.3998V10.1369H24.636ZM24.9394 9.63126V8.07403L23.9484 7.73022L24.2113 9.22678L24.9394 9.63126ZM24.7169 8.45828V8.70097L24.6765 8.68074C24.6765 8.68074 24.5956 8.66052 24.4743 8.5594C24.272 8.39761 24.272 8.25604 24.272 8.25604L24.7169 8.45828ZM25.809 9.24701L26.0719 7.75045L25.081 8.09425V9.65148L25.809 9.24701ZM25.3034 8.45828L25.7484 8.27627C25.7484 8.27627 25.7484 8.41783 25.5461 8.57962C25.4248 8.68074 25.3641 8.70097 25.3439 8.70097L25.3034 8.72119V8.45828ZM23.544 13.2109C23.6451 13.2513 23.7462 13.2513 23.8069 13.2513V13.2311C23.8069 13.2109 23.8271 13.1906 23.8271 13.1704C23.8473 13.0895 23.8473 12.9884 23.8473 12.9277C23.8069 12.9075 23.7462 12.8671 23.726 12.7862C23.6855 12.7053 23.6451 12.6648 23.5642 12.6648C23.4631 12.6648 23.3619 12.7255 23.3215 12.7457C23.2811 12.9884 23.4226 13.1704 23.544 13.2109ZM25.7079 12.4019C25.5259 12.6042 25.1619 12.948 25.1416 12.9682L25.1214 12.9884L23.9889 12.9682C23.9889 13.0895 23.9687 13.1704 23.9484 13.2513V13.2918L25.3034 13.5344C25.445 13.4333 25.8292 13.1502 25.9708 13.0491C25.8697 12.8873 25.8495 12.7053 25.8697 12.5637C25.809 12.503 25.7686 12.4424 25.7079 12.4019Z" fill="white"/>
<path id="Vector_5" d="M25.8705 11.0267C25.6076 11.2896 25.3649 11.3907 25.1424 11.4109H24.8997C24.8593 11.4109 24.8188 11.4109 24.7784 11.3907C24.7582 11.4514 24.7379 11.5727 24.7986 11.6941C24.8391 11.7952 24.9402 11.8761 25.0817 11.9368L25.1222 11.957V12.0177C25.1222 12.0379 25.1424 12.3615 25.4862 12.4626C25.5469 12.4019 25.6076 12.3412 25.6278 12.3008C25.5469 12.1188 25.5873 11.957 25.7087 11.8559C25.7087 11.8761 25.648 12.3008 26.012 12.4626L26.0727 12.4828L26.0525 12.5435C26.0525 12.5637 25.9311 12.9884 26.3558 13.13L26.4367 13.1502L26.3963 13.2311C26.3963 13.2513 26.2345 13.6356 26.6187 13.8378H27.4681V13.1704C27.1648 13.13 27.0434 12.8873 27.003 12.7255C26.8614 12.7053 26.7603 12.6446 26.6794 12.5435C26.4974 12.321 26.6592 12.0986 26.6592 12.0783C26.6592 12.0783 26.6592 12.3008 26.8008 12.4424C26.8614 12.503 26.9423 12.5637 27.0839 12.5637H27.1446V12.6244C27.1446 12.6446 27.185 12.948 27.4681 12.9884V11.6334C27.4681 11.4312 27.5288 11.2087 27.6097 11.0065H25.8705V11.0267ZM23.6054 11.6536L23.5852 12.5233L23.6863 12.5435L23.929 11.7143L23.8076 11.4514L23.6054 11.6536ZM26.2749 15.6377H26.2952C26.4367 15.6782 26.4772 16.2242 26.7401 16.2646H26.8008C26.8816 16.2646 26.9221 16.2242 26.9625 16.1838C26.9625 16.1838 26.821 15.9815 26.7401 15.8399C26.5985 15.6579 26.4974 15.4355 26.2547 15.4355H26.2345C26.1536 15.4355 26.1131 15.4759 26.1131 15.4759C26.012 15.4153 25.9311 15.395 25.83 15.395C25.6682 15.395 25.5671 15.4557 25.5064 15.4557L24.9604 15.395C24.8795 15.395 24.7986 15.2939 24.7784 15.2737V15.213C24.7582 14.7681 24.4144 14.5659 24.293 14.5659C24.293 14.5659 24.3132 14.485 24.2728 14.4445L24.1514 14.5861L23.747 14.3838L24.0301 14.7074L23.7874 14.9703C23.7672 15.0108 23.7672 15.0512 23.7672 15.0512L23.8683 15.1523L23.9897 15.0714H24.1717C24.2323 15.0714 24.2728 15.0512 24.2728 15.0108C24.2526 15.1726 24.111 15.4557 24.2121 15.6984L24.293 15.8602L23.8076 15.7995L23.5852 16.1838C23.5245 16.3051 23.5043 16.4467 23.565 16.5276L23.6458 16.6287C23.6458 16.6287 23.7672 16.5073 23.7874 16.4264L23.747 16.386C23.7065 16.3455 23.7065 16.3253 23.7267 16.2849L23.8683 16.0422L24.4346 16.1838L24.4548 16.1231C24.4952 16.0624 24.5559 16.0422 24.6166 16.0422H24.6975C24.7986 16.0624 24.9806 16.0826 25.1424 16.0826C25.3244 16.0826 25.5267 16.0422 25.6278 15.9411C25.83 16.2444 26.2547 16.3051 26.2143 16.4467L26.1131 16.9725C26.194 16.9725 26.2547 16.9725 26.3154 16.9523L26.4165 16.4062C26.4367 16.3455 26.4367 16.2646 26.4367 16.2646C26.3963 16.2242 26.2952 16.1433 26.2345 16.022C26.1536 15.8804 26.194 15.7995 26.1334 15.6175C26.194 15.6782 26.2143 15.6377 26.2749 15.6377ZM24.1312 14.8692C24.111 14.8692 24.0908 14.849 24.0908 14.8085C24.0908 14.7883 24.111 14.7681 24.1514 14.7681C24.1717 14.7681 24.1919 14.7883 24.1919 14.8288C24.1717 14.849 24.1514 14.8692 24.1312 14.8692Z" fill="white"/>
<path id="Vector_6" d="M23.342 16.1231C23.342 16.1231 23.5241 16.0422 23.5443 15.9815L23.5241 15.9209C23.5038 15.8804 23.5038 15.84 23.5443 15.8197L23.7465 15.6782L24.0903 15.7388C24.0903 15.7388 24.0296 15.6579 24.0296 15.5568L23.7061 15.4962L23.4027 15.6782C23.2611 15.7793 23.2611 15.9411 23.3016 16.0422L23.342 16.1231ZM25.7689 17.0129H25.9711C25.9711 17.0129 26.1531 16.5073 26.1531 16.4871C26.052 16.4467 25.8498 16.3253 25.7689 16.2849C25.8296 16.3658 25.9509 16.4467 25.9307 16.5276L25.7689 17.0129Z" fill="white"/>
<path id="Vector_7" d="M27.4272 13.9793H22.5735V15.7995C22.5735 16.5477 23.1195 17.0129 23.9083 17.0129C24.5756 17.0129 24.7577 17.0331 25.0003 17.2758C25.1621 17.114 25.3037 17.0331 25.6071 17.0129V16.9927L25.7688 16.5275C25.7688 16.5073 25.5059 16.2242 25.5059 16.2242C25.4048 16.2646 25.3239 16.2646 25.1824 16.2646C25.0408 16.2646 24.879 16.2444 24.697 16.2242H24.6363C24.6161 16.2242 24.6161 16.2242 24.6161 16.2444L24.5959 16.2848L24.5352 16.3859L24.4341 16.3657L23.9689 16.2646L23.9083 16.3455V16.3657L23.9689 16.4264L23.9487 16.5073C23.9083 16.6084 23.8071 16.7298 23.7667 16.7702L23.6454 16.8915L23.5442 16.75L23.4633 16.6489C23.3824 16.5477 23.3622 16.4062 23.4027 16.2646L23.2813 16.3253L23.2207 16.2039L23.1802 16.123C23.0993 15.9612 23.1398 15.7388 23.3218 15.5972L23.706 15.395L24.07 15.4557C24.07 15.4152 24.0903 15.2939 24.1105 15.2736H24.0903L23.888 15.3545L23.6858 15.213C23.6858 15.213 23.6049 15.1321 23.6858 15.0714L23.8678 14.7883L23.3824 14.1816L24.1307 14.4849L24.1712 14.4242L24.2723 14.3029L24.3936 14.404C24.4341 14.4445 24.4543 14.4647 24.4543 14.5051C24.6565 14.586 25.0206 14.8287 25.061 15.213H24.9194C24.9397 15.2534 24.9599 15.2534 24.9801 15.2534L25.5059 15.3141C25.5262 15.3141 25.5262 15.3141 25.5464 15.2939C25.6071 15.2736 25.7082 15.2332 25.8295 15.2332C25.9306 15.2332 26.0115 15.2534 26.1127 15.2939C26.1531 15.2736 26.1935 15.2736 26.234 15.2736H26.2542C26.5373 15.2736 26.6789 15.4961 26.8003 15.6579C26.8205 15.6781 26.8407 15.7186 26.8609 15.7388C26.962 15.8804 27.0834 16.0826 27.1036 16.1028L27.1643 16.2039L27.0834 16.2848C27.0227 16.3455 26.9418 16.4264 26.8003 16.4264H26.6991C26.6789 16.4264 26.6385 16.4062 26.6182 16.4062C26.6182 16.4264 26.6182 16.4668 26.598 16.4871L26.4969 16.9724C27.0632 16.8309 27.407 16.4062 27.407 15.7995L27.4272 13.9793ZM22.5735 13.8378H26.3553C26.1733 13.6355 26.1733 13.3928 26.2138 13.231C26.1531 13.2108 26.1126 13.1704 26.0722 13.1299C25.9306 13.231 25.4655 13.5748 25.3644 13.6557L25.3441 13.676L23.8678 13.4131H23.706C23.6858 13.4737 23.6251 13.5344 23.5645 13.5344H23.5442C23.5038 13.5344 23.4633 13.5142 23.4431 13.4737C23.4229 13.4333 23.4027 13.4131 23.4229 13.3726V13.3322C23.2611 13.231 23.1195 12.9884 23.2004 12.7254V12.7052L23.2207 12.685C23.2207 12.685 23.2409 12.6648 23.2813 12.6446L23.1802 12.6243C23.1398 12.6243 23.1195 12.5839 23.1195 12.5434C23.1195 12.503 23.16 12.4828 23.2004 12.4828L23.4633 12.5232L23.4836 11.6131L23.8678 11.2087L24.1105 11.7143L23.8678 12.5839L24.0903 12.6243C24.1307 12.6243 24.1509 12.6648 24.1509 12.7052C24.1509 12.7457 24.1105 12.7659 24.07 12.7659H24.0498L23.8678 12.7457V12.7659C23.888 12.8063 23.9285 12.8266 23.9487 12.8468L25.0812 12.867L25.3644 12.5839C25.0812 12.4828 24.9801 12.2401 24.9599 12.0783C24.7981 12.0176 24.697 11.9165 24.6363 11.7749C24.5554 11.6131 24.5959 11.4514 24.6161 11.3705C24.4745 11.3098 24.3127 11.2087 24.1509 11.0469H22.4521C22.533 11.2491 22.5937 11.4514 22.5937 11.6738V13.8378H22.5735Z" fill="#FCE527"/>
<path id="Vector_8" d="M24.1307 14.7681C24.1105 14.7681 24.07 14.7883 24.07 14.8085C24.07 14.8287 24.0902 14.8692 24.1105 14.8692C24.1307 14.8692 24.1711 14.849 24.1711 14.8287C24.1914 14.7883 24.1711 14.7681 24.1307 14.7681ZM27.4272 18.0848L27.144 17.9634L27.2249 17.6803L27.3058 17.3567C27.3058 17.3567 26.8204 17.6196 26.1126 17.8219C25.9104 17.8825 25.7688 17.9028 25.7688 17.9028V18.1454C25.7688 18.1454 25.4048 18.2061 25.0205 18.2061C24.6363 18.2061 24.2723 18.1454 24.2723 18.1454V17.923C24.2723 17.923 24.1307 17.9028 23.9284 17.8421C23.2206 17.6398 22.7352 17.3769 22.7352 17.3769L22.8161 17.7005L22.897 17.9836L22.6139 18.0848L22.3105 18.2061C22.6746 18.3881 23.1599 18.6308 23.6049 18.7521L23.5037 19.0353C23.5037 19.0353 24.07 19.2982 25.0408 19.2982C25.9913 19.2982 26.5778 19.0353 26.5778 19.0353L26.4766 18.7521C26.9216 18.6308 27.4272 18.3679 27.771 18.2061L27.4272 18.0848ZM22.6139 18.2061L23.079 18.0443L22.9375 17.5994C23.1397 17.7207 23.5846 17.8825 23.8476 17.9634L23.6251 18.5701C23.2206 18.4892 22.897 18.3477 22.6139 18.2061ZM25.0003 19.1364C24.4745 19.1364 23.8476 19.0151 23.6858 18.9544L23.9487 18.2061C24.1711 18.2668 24.6363 18.3477 24.9801 18.3477H25.0003C25.3441 18.3477 25.8093 18.287 26.0317 18.2061L26.3351 18.9544C26.1531 19.0151 25.5463 19.1364 25.0003 19.1364ZM26.3957 18.5904L26.1733 17.9836C26.4362 17.9027 26.8811 17.7207 27.1036 17.6196L26.9418 18.0645L27.4069 18.2263C27.1238 18.3477 26.8002 18.4892 26.3957 18.5904Z" fill="black"/>
<path id="Vector_9" d="M25.001 6.55719C25.5673 6.55719 26.0324 6.73921 26.2751 6.94144C26.2751 6.94144 26.356 6.49652 26.5987 6.09205L26.1335 6.15272L25.8908 5.64712L25.4257 5.88981L24.9808 5.44489L24.5359 5.88981L24.1112 5.64712L23.8685 6.15272L23.4033 6.09205C23.6662 6.49652 23.7269 6.94144 23.7269 6.94144C23.9898 6.73921 24.4347 6.55719 25.001 6.55719ZM23.8482 6.33473L23.9696 6.35495L24.0303 6.23361L24.192 5.88981L24.4954 6.0516L24.6167 6.11227L24.6976 6.01115L25.0212 5.68757L25.3246 6.01115L25.4257 6.09205L25.547 6.03137L25.8504 5.86958L26.0122 6.21339L26.0729 6.33473L26.1942 6.31451L26.3155 6.29428C26.2549 6.41563 26.2144 6.53697 26.1942 6.63809C25.8706 6.45607 25.4661 6.35495 25.0212 6.35495C24.5965 6.35495 24.1718 6.45607 23.8685 6.63809C23.8482 6.53697 23.8078 6.41563 23.7471 6.29428L23.8482 6.33473ZM31.6748 12.5232C32.4029 12.5232 32.6658 11.7749 32.6658 11.7345L32.7467 11.4716H32.4636C32.3624 11.4716 31.5535 11.4513 30.9872 10.7233L30.9468 10.6626C30.5625 10.1772 30.2187 9.73232 29.5716 9.53009C29.5918 9.50986 29.612 9.48964 29.6525 9.46941C29.9963 9.24695 30.1783 8.98404 30.239 8.66046C30.3198 8.19532 30.0165 7.81107 29.9963 7.79084L29.794 7.52793L29.6727 7.83129C29.6727 7.85151 29.4502 8.33688 29.0053 8.33688H28.884C28.9042 8.11442 28.8637 7.79084 28.5604 7.48749C28.1964 7.10323 27.7514 7.06279 27.529 7.06279C27.4076 7.06279 27.3267 7.08301 27.3065 7.08301L27.0031 7.14368L27.1852 7.38637C27.3267 7.5886 27.4683 7.93241 27.3065 8.13465C27.2458 8.19532 27.1447 8.23576 27.0436 8.29644C26.8414 8.39755 26.5582 8.5189 26.5582 8.8627C26.5582 9.08516 26.72 9.30762 27.0436 9.50986C27.9537 10.0761 28.5199 10.6828 28.7626 11.3502C29.1469 12.3614 28.6413 12.9479 28.1761 13.2513L27.9537 13.3928L28.1357 13.5748C28.1559 13.5951 28.3986 13.7973 28.7222 13.8377H28.9042C29.1266 13.8377 29.3087 13.7973 29.4502 13.7569C29.4098 13.8377 29.3491 13.8984 29.2884 13.9793C29.0053 14.3029 28.6817 14.4445 28.1964 14.4445H28.0143L27.9941 14.6265C27.9941 14.6669 27.9739 14.9905 28.2975 15.2736C28.3379 15.3141 28.3986 15.3545 28.4593 15.3748C28.2368 15.577 28.0346 15.9006 27.9941 16.4871C27.9537 16.9724 27.8525 17.1544 27.8323 17.1544L27.6301 17.4578H27.9941C28.5806 17.4578 29.0458 17.296 29.3491 16.9724C29.5311 16.7904 29.6322 16.568 29.7131 16.3657C29.8143 16.4466 29.9558 16.5275 30.1176 16.568C30.1783 16.5882 30.2592 16.5882 30.3401 16.5882C30.5019 16.5882 30.6434 16.5477 30.6637 16.5477L30.8861 16.4871L30.785 16.2646C30.785 16.2444 30.5828 15.8197 30.785 15.213C30.8659 14.9501 30.9266 14.7074 30.9468 14.5254C31.0884 14.6062 31.2906 14.6669 31.5333 14.6669C32.0995 14.6669 32.3422 14.2422 32.3624 14.222L32.4838 14.0198L32.2816 13.9389C31.6142 13.6557 31.4524 12.9075 31.4322 12.503C31.4928 12.5232 31.5535 12.5232 31.6344 12.5232H31.6748ZM32.2209 14.1209C32.2209 14.1209 32.0186 14.4647 31.5737 14.4647C31.0277 14.4647 30.8052 14.1209 30.8052 14.1209C30.8052 14.1209 30.8457 14.5456 30.6434 15.1321C30.4007 15.8399 30.6434 16.3455 30.6434 16.3455C30.6434 16.3455 30.5221 16.3859 30.3603 16.3859C30.2996 16.3859 30.239 16.3859 30.1985 16.3657C29.7334 16.2646 29.6322 15.8399 29.6322 15.8399C29.6322 15.8399 29.6727 17.2353 28.0346 17.2353H28.0143C28.0143 17.2353 28.1559 17.0331 28.1964 16.4668C28.2772 15.4354 28.9851 15.2939 28.9851 15.2939C28.9851 15.2939 28.6008 15.2534 28.439 15.0916C28.1761 14.8692 28.1964 14.586 28.1964 14.586C28.7626 14.586 29.1469 14.3838 29.43 14.0602C29.7334 13.6962 29.794 13.3119 29.794 13.3119C29.794 13.3119 29.4907 13.5951 28.884 13.5951H28.7222C28.439 13.5748 28.2368 13.3928 28.2368 13.3928C28.8637 12.9883 29.2884 12.3007 28.9042 11.2491C28.6008 10.3997 27.8525 9.77277 27.1043 9.30762C26.8818 9.16606 26.7402 8.98404 26.7402 8.84248C26.7402 8.49867 27.2458 8.47845 27.4481 8.23576C27.6908 7.95263 27.529 7.50771 27.3267 7.2448C27.3267 7.2448 27.3874 7.22458 27.5087 7.22458C27.7312 7.22458 28.0952 7.28525 28.3986 7.5886C28.8031 8.0133 28.6413 8.47845 28.6413 8.47845L28.7424 8.49867C28.8031 8.5189 28.8637 8.5189 28.9446 8.5189H28.9851C29.5716 8.5189 29.8345 7.89196 29.8345 7.89196C29.8345 7.89196 30.4614 8.66046 29.5311 9.26718C29.3693 9.36829 29.3087 9.46941 29.3289 9.57053L29.3491 9.6312L29.4098 9.65143C30.0772 9.83344 30.421 10.2986 30.8457 10.8244C31.4726 11.6334 32.3624 11.6536 32.4838 11.6536H32.504C32.504 11.6536 32.3018 12.3007 31.6951 12.3007H31.6748C31.3917 12.3007 31.2501 12.1794 31.2501 12.1794C31.2501 12.1794 31.1288 13.676 32.2209 14.1209ZM30.4007 9.61098C30.6839 9.75255 30.8254 9.95478 30.967 10.1368C31.1086 10.2986 31.2299 10.4604 31.4322 10.5413C31.513 10.5615 31.5737 10.5817 31.6546 10.5817C31.958 10.5817 32.2613 10.3997 32.3827 10.1368L32.504 9.87389L32.2209 9.85367C32.2007 9.85367 31.8366 9.81322 31.4322 9.40874C31.2704 9.24695 31.0681 9.14583 30.8457 9.14583C30.5828 9.14583 30.3805 9.2874 30.3603 9.2874L30.1176 9.44919L30.4007 9.61098ZM30.8659 9.30762C31.0075 9.30762 31.1692 9.34807 31.3108 9.50986C31.776 9.99523 32.2209 10.0155 32.2209 10.0155C32.14 10.1975 31.9175 10.339 31.6748 10.339C31.6142 10.339 31.5535 10.339 31.513 10.3188C31.1895 10.2177 31.0681 9.7121 30.5019 9.40874C30.4816 9.42897 30.6434 9.30762 30.8659 9.30762ZM30.5221 12.1996C30.3603 10.8851 29.3896 9.91434 28.3177 9.32785C28.2166 9.26718 28.1357 9.22673 28.0346 9.18628C28.3581 9.24695 28.884 9.24695 29.2884 8.88292C29.2884 8.88292 28.6615 9.34807 27.3874 8.92337C27.7312 9.14583 28.4188 9.46941 29.0458 9.99523C30.6232 11.3704 29.4907 12.7254 29.4907 12.7254C30.0569 12.139 30.0772 11.512 29.9154 10.9862C30.2187 11.4716 30.4007 12.0783 30.3805 12.8266C30.3401 13.8782 29.7536 14.8085 29.1469 15.5365C28.8435 15.9006 28.7828 16.3253 28.7828 16.3253C28.7828 16.3253 28.9042 15.941 29.248 15.5365C29.8951 14.768 30.4614 13.9793 30.5423 12.8266C30.603 13.0288 30.8861 13.6153 31.331 13.8377C31.331 13.8377 30.7648 13.5142 30.5221 12.1996Z" fill="black"/>
<path id="Vector_10" d="M22.1693 17.1343C22.1693 17.1343 22.0479 16.9522 22.0277 16.4669C21.9872 15.8804 21.7648 15.5568 21.5423 15.3546C21.603 15.3343 21.6637 15.2939 21.7041 15.2535C22.0277 14.9703 22.0075 14.6265 22.0075 14.6063L21.9872 14.4243H21.8052C21.3199 14.4243 20.9761 14.2625 20.7131 13.9591C20.6525 13.8782 20.5918 13.8176 20.5514 13.7367C20.6929 13.7771 20.8952 13.8176 21.0974 13.8176H21.2794C21.6232 13.7973 21.8457 13.5951 21.8659 13.5547L22.0479 13.3726L21.8255 13.2311C21.3401 12.9277 20.8547 12.3412 21.239 11.33C21.4816 10.6627 22.0479 10.0559 22.958 9.48968C23.2613 9.28744 23.4434 9.06498 23.4434 8.84252C23.4434 8.49871 23.1602 8.37737 22.958 8.27625C22.8569 8.2358 22.7557 8.17513 22.6951 8.11446C22.5333 7.93245 22.6749 7.56842 22.8164 7.36618L22.9984 7.1235L22.6951 7.06283C22.6951 7.06283 22.6142 7.0426 22.4726 7.0426C22.2502 7.0426 21.8052 7.10327 21.4412 7.4673C21.1378 7.77066 21.0974 8.11446 21.1176 8.3167H20.9963C20.5514 8.3167 20.3289 7.83133 20.3289 7.81111L20.2076 7.50775L20.0053 7.77066C19.9851 7.79088 19.6817 8.15491 19.7626 8.64028C19.8031 8.96386 20.0053 9.22677 20.3491 9.44923C20.3896 9.46945 20.4098 9.48968 20.43 9.5099C19.7829 9.71214 19.439 10.1773 19.0548 10.6424L18.9941 10.7031C18.4481 11.4716 17.6391 11.4918 17.538 11.4918H17.2549L17.3358 11.7547C17.3358 11.7952 17.5987 12.5435 18.3267 12.5435H18.3672C18.4481 12.5435 18.5088 12.5232 18.5694 12.5232C18.529 12.9277 18.3874 13.676 17.72 13.9591L17.5178 14.04L17.6391 14.2423C17.6391 14.2423 17.8818 14.667 18.4481 14.667C18.6908 14.667 18.893 14.6063 19.0346 14.5254C19.0548 14.7074 19.0952 14.9501 19.1964 15.213C19.3986 15.8197 19.2166 16.2646 19.1964 16.2646L19.0952 16.4871L19.3177 16.5478C19.3379 16.5478 19.4795 16.5882 19.6413 16.5882C19.7222 16.5882 19.7829 16.5882 19.8637 16.568C20.0458 16.5275 20.1671 16.4467 20.2682 16.3658C20.3289 16.5478 20.43 16.7702 20.6323 16.9725C20.9558 17.2961 21.4008 17.4578 21.9872 17.4578H22.3513L22.1693 17.1343ZM21.9872 17.2354C20.3491 17.2354 20.3896 15.8399 20.3896 15.8399C20.3896 15.8399 20.2682 16.2646 19.8233 16.3658C19.7626 16.386 19.702 16.386 19.6615 16.386C19.5199 16.386 19.3784 16.3455 19.3784 16.3455C19.3784 16.3455 19.6211 15.8399 19.3784 15.1321C19.1761 14.5456 19.2166 14.1209 19.2166 14.1209C19.2166 14.1209 18.9941 14.4445 18.4481 14.4647C18.0032 14.4647 17.8009 14.1209 17.8009 14.1209C18.893 13.676 18.7919 12.1997 18.7919 12.1997C18.7919 12.1997 18.6503 12.3008 18.3672 12.321H18.347C17.7403 12.321 17.538 11.6738 17.538 11.6738H17.5582C17.6594 11.6738 18.5694 11.6536 19.1964 10.8447C19.6211 10.3189 19.9446 9.85371 20.6323 9.67169L20.6929 9.65147L20.7131 9.5908C20.7334 9.48968 20.6525 9.38856 20.5109 9.28744C19.5806 8.68073 20.2076 7.91222 20.2076 7.91222C20.2076 7.91222 20.4705 8.53916 21.0569 8.53916H21.0974C21.1581 8.53916 21.239 8.53916 21.2996 8.51894L21.4008 8.49871C21.4008 8.49871 21.239 8.03357 21.6434 7.60887C21.9468 7.28529 22.331 7.24484 22.5333 7.24484C22.6344 7.24484 22.7153 7.26506 22.7153 7.26506C22.5131 7.52797 22.3715 7.9729 22.594 8.25603C22.7962 8.49871 23.3018 8.49871 23.3018 8.86274C23.3018 9.00431 23.1602 9.18632 22.9175 9.34811C22.1693 9.81326 21.421 10.4402 21.1176 11.2896C20.7334 12.3412 21.1581 13.0288 21.785 13.4333C21.785 13.4333 21.5828 13.6153 21.2996 13.6355H21.1378C20.5311 13.6355 20.2278 13.3524 20.2278 13.3524C20.2278 13.3524 20.2884 13.7367 20.5918 14.1007C20.8749 14.4243 21.2592 14.6265 21.8255 14.6265C21.8255 14.6265 21.8457 14.8894 21.5828 15.1321C21.421 15.2737 21.0367 15.3343 21.0367 15.3343C21.0367 15.3343 21.7446 15.4759 21.8255 16.5073C21.8659 17.0534 22.0075 17.2354 21.9872 17.2354ZM18.347 10.5615C18.4279 10.5615 18.5088 10.5413 18.5694 10.5211C18.7717 10.4604 18.9132 10.2986 19.0346 10.1166C19.1761 9.9346 19.3379 9.75259 19.6008 9.5908L19.884 9.44923L19.6211 9.26722C19.6008 9.24699 19.3986 9.12565 19.1357 9.12565C18.9132 9.12565 18.711 9.20655 18.5492 9.38856C18.1447 9.81326 17.7807 9.83348 17.7605 9.83348L17.4976 9.85371L17.6189 10.1166C17.7403 10.3593 18.0436 10.5615 18.347 10.5615ZM18.711 9.53013C18.8526 9.36834 19.0144 9.32789 19.1559 9.32789C19.3582 9.32789 19.5199 9.44923 19.5199 9.44923C18.9537 9.75259 18.8323 10.238 18.5088 10.3593C18.4481 10.3795 18.4076 10.3795 18.347 10.3795C18.1043 10.3795 17.8818 10.2177 17.8009 10.0559C17.8009 10.0357 18.2458 9.99527 18.711 9.53013ZM19.6413 12.8266C19.6008 12.0783 19.8031 11.4918 20.1064 10.9862C19.9446 11.4918 19.9649 12.139 20.5311 12.7255C20.5311 12.7255 19.4188 11.3907 20.9761 9.99527C21.603 9.46945 22.2906 9.14587 22.6344 8.92341C21.3603 9.34811 20.7334 8.88297 20.7334 8.88297C21.1378 9.22677 21.6637 9.22677 21.9872 9.18632C21.9063 9.22677 21.8052 9.26722 21.7041 9.32789C20.6323 9.91438 19.6615 10.8851 19.4997 12.1997V12.1794C19.257 13.494 18.6908 13.8176 18.6908 13.8176C19.1357 13.5951 19.4188 13.0288 19.4795 12.8064C19.5604 13.9591 20.1064 14.7479 20.7738 15.5164C21.1176 15.9208 21.239 16.3051 21.239 16.3051C21.239 16.3051 21.1783 15.8602 20.8749 15.5164C20.2682 14.8085 19.6817 13.8985 19.6413 12.8266Z" fill="black"/>
<path id="Vector_11" d="M24.6365 10.1368V10.3997C24.7376 10.2986 24.8994 10.3188 24.8994 10.3188V10.7031C24.8994 10.7031 24.8994 10.8851 24.8185 10.966H25.1825C25.1219 10.8851 25.1016 10.7031 25.1016 10.7031V10.3188C25.1016 10.3188 25.2836 10.2986 25.3645 10.3997V10.1368H24.6365ZM24.4747 8.5796C24.596 8.68072 24.6769 8.70094 24.6769 8.70094L24.7174 8.72117V8.47848L24.2725 8.29647C24.2725 8.27624 24.2725 8.41781 24.4747 8.5796ZM25.5466 8.5796C25.7488 8.41781 25.7488 8.27625 25.7488 8.27625L25.3039 8.45826V8.70094L25.3443 8.68072C25.3443 8.68072 25.4252 8.6605 25.5466 8.5796Z" fill="black"/>
<path id="Vector_12" d="M26.3552 7.56843C26.3552 7.18418 25.7283 6.8606 25.0205 6.8606C24.3126 6.8606 23.6857 7.2044 23.6857 7.56843L23.7059 7.66955L23.989 9.28745L23.7059 9.44924L22.9576 9.85371C22.9576 9.85371 22.7958 9.93461 22.715 9.99528C22.4318 10.1975 22.3711 10.4604 22.5329 10.5818C22.5734 10.3593 22.7554 10.1166 23.0992 10.1166C23.3419 10.1166 23.5239 10.238 23.6857 10.4402C23.7261 10.4807 23.7666 10.5413 23.7868 10.602L23.9082 10.784H22.0273C22.1689 11.0671 22.2903 11.3503 22.2903 11.6739V15.8197C22.2903 16.8309 23.0588 17.2961 23.9082 17.2961C24.5553 17.2961 24.6362 17.2758 25.0002 17.6196C25.3643 17.2556 25.4452 17.2961 26.0923 17.2961C26.9215 17.2961 27.7102 16.8107 27.7102 15.8197V11.6536C27.7102 11.33 27.8316 11.0469 27.9731 10.7638H26.0923L26.2137 10.5818C26.2541 10.5211 26.2946 10.4806 26.3148 10.42C26.4563 10.238 26.6586 10.0964 26.9013 10.0964C27.2451 10.0964 27.4271 10.3391 27.4675 10.5615C27.6293 10.4402 27.5687 10.1571 27.2855 9.97506C27.2046 9.91438 27.0428 9.83349 27.0428 9.83349L26.335 9.42901L26.0519 9.26722L26.335 7.64932L26.3552 7.56843ZM23.9486 7.75044L24.9396 8.09425V9.65148L24.2115 9.247L23.9486 7.75044ZM24.1508 11.0267C24.3126 11.1885 24.4744 11.2896 24.616 11.3503C24.5958 11.4312 24.5755 11.593 24.6362 11.7547C24.6969 11.8761 24.798 11.9772 24.9598 12.0581C24.98 12.2199 25.0811 12.4626 25.3643 12.5637L25.0811 12.8468L23.9486 12.8266C23.9284 12.8064 23.8879 12.7862 23.8677 12.7457V12.7255L24.0497 12.7457H24.0699C24.1104 12.7457 24.1306 12.7255 24.1508 12.685C24.1508 12.6446 24.1306 12.6041 24.0902 12.6041L23.8677 12.5637L24.1104 11.6941L23.8677 11.1885L23.4835 11.593L23.4632 12.503L23.2003 12.4626C23.1599 12.4626 23.1194 12.4828 23.1194 12.5233C23.1194 12.5637 23.1397 12.6041 23.1801 12.6041L23.2812 12.6244C23.2408 12.6446 23.2205 12.6648 23.2205 12.6648L23.1801 12.685V12.7053C23.1194 12.9682 23.261 13.1906 23.4026 13.312V13.3524C23.4026 13.3929 23.4026 13.4333 23.4228 13.4535C23.443 13.494 23.4835 13.5142 23.5239 13.5142H23.5441C23.6048 13.5142 23.6655 13.4738 23.6857 13.3929H23.8475L25.3238 13.6558L25.344 13.6356C25.4654 13.5547 25.9103 13.2311 26.0519 13.1097C26.0923 13.1502 26.1328 13.1704 26.1934 13.2109C26.153 13.3726 26.1328 13.6153 26.335 13.8176H22.5734V11.6536C22.5734 11.4514 22.5127 11.2289 22.4318 11.0267H24.1508ZM25.971 13.0288C25.8294 13.13 25.4452 13.4131 25.3036 13.5142L23.9486 13.2715V13.2311C23.9688 13.1704 23.989 13.0693 23.989 12.9479L25.1216 12.9682L25.1418 12.9479C25.162 12.9277 25.5261 12.5839 25.7081 12.3817C25.7485 12.4424 25.8092 12.4828 25.8699 12.5435C25.8699 12.685 25.8699 12.8671 25.971 13.0288ZM23.7261 12.7862C23.7666 12.8468 23.807 12.8873 23.8475 12.9277C23.8475 12.9884 23.8475 13.0895 23.8273 13.1704C23.8273 13.1906 23.8273 13.2109 23.807 13.2311V13.2513C23.7464 13.2513 23.625 13.2513 23.5441 13.2109C23.443 13.1704 23.2812 12.9682 23.3217 12.7659C23.3621 12.7457 23.4835 12.685 23.5643 12.685C23.6452 12.685 23.6857 12.7053 23.7261 12.7862ZM23.5846 12.5233L23.6048 11.6536L23.807 11.4514L23.9284 11.7143L23.6857 12.5435L23.5846 12.5233ZM25.971 17.0129H25.7687L25.9305 16.5276C25.9508 16.4669 25.8294 16.3658 25.7687 16.2849C25.8496 16.3253 26.0519 16.4467 26.153 16.4871C26.1328 16.5073 25.971 17.0129 25.971 17.0129ZM26.4766 16.4467L26.3755 16.9927C26.3148 16.9927 26.2339 17.0129 26.1732 17.0129L26.2743 16.4871C26.3148 16.3253 25.8901 16.2849 25.6878 15.9815C25.5867 16.1029 25.4047 16.1231 25.2025 16.1231C25.0205 16.1231 24.8587 16.1029 24.7576 16.0826H24.6767C24.616 16.0826 24.5553 16.1029 24.5149 16.1635L24.4744 16.2242L23.9082 16.0624L23.7666 16.3051C23.7464 16.3455 23.7464 16.3658 23.7868 16.4062L23.8273 16.4467C23.807 16.5276 23.6857 16.6489 23.6857 16.6489L23.6048 16.5478C23.5441 16.4669 23.5441 16.3253 23.625 16.204L23.8475 15.8197L24.3329 15.8804L24.252 15.7186C24.1508 15.4961 24.3126 15.213 24.3126 15.031C24.3126 15.0714 24.252 15.0917 24.2115 15.0917H24.0295L23.9082 15.1726L23.807 15.0714C23.7868 15.0512 23.7868 15.0108 23.8273 14.9906L24.0699 14.7276L23.7868 14.4041L24.1913 14.6063L24.3126 14.4647C24.3531 14.5052 24.3329 14.5861 24.3329 14.5861C24.4542 14.5861 24.798 14.7883 24.8182 15.2332V15.2939C24.8384 15.3344 24.9193 15.4152 25.0002 15.4152L25.5463 15.4759C25.6069 15.4759 25.7283 15.4152 25.8699 15.4152C25.9508 15.4152 26.0519 15.4355 26.153 15.4961C26.153 15.4961 26.1934 15.4557 26.2743 15.4557H26.2946C26.5372 15.4557 26.6384 15.6782 26.7799 15.8602C26.881 16.0017 27.0024 16.204 27.0024 16.204C26.9619 16.2646 26.9013 16.2849 26.8406 16.2849H26.7799C26.517 16.2444 26.4766 15.6984 26.335 15.6579H26.3148C26.2743 15.6579 26.2541 15.6984 26.2541 15.6984C26.3148 15.8804 26.2743 15.9613 26.3552 16.1029C26.4159 16.204 26.517 16.2849 26.5575 16.3455C26.4968 16.3051 26.4766 16.386 26.4766 16.4467ZM23.5239 15.9411L23.5441 16.0017C23.5239 16.0624 23.3419 16.1433 23.3419 16.1433L23.3014 16.0422C23.261 15.9411 23.261 15.7793 23.4026 15.6782L23.7059 15.4961L24.0295 15.5568C24.0295 15.6579 24.0902 15.7388 24.0902 15.7388L23.7464 15.6782L23.5441 15.8197C23.5239 15.8399 23.5239 15.9006 23.5239 15.9411ZM26.517 16.9725L26.6181 16.4871C26.6181 16.4669 26.6384 16.4264 26.6384 16.4062C26.6586 16.4264 26.699 16.4264 26.7193 16.4264H26.8204C26.9619 16.4264 27.0428 16.3455 27.1035 16.2849L27.1844 16.204L27.1237 16.1029C27.1237 16.1029 26.9822 15.8804 26.881 15.7388C26.8608 15.7186 26.8406 15.6782 26.8204 15.6579C26.699 15.4961 26.5575 15.2737 26.2743 15.2737H26.2541C26.2137 15.2737 26.1732 15.2939 26.1328 15.2939C26.0519 15.2535 25.9508 15.2332 25.8496 15.2332C25.7283 15.2332 25.6272 15.2737 25.5665 15.2939C25.5463 15.3141 25.5261 15.3141 25.5058 15.3141L24.98 15.2535C24.98 15.2535 24.9598 15.2332 24.9193 15.213L25.0407 15.1726C25.0002 14.7883 24.6362 14.5456 24.434 14.4647C24.434 14.4243 24.4137 14.3838 24.3733 14.3636L24.252 14.2625L24.1508 14.3838L24.1104 14.4243L23.3621 14.1209L23.8475 14.7276L23.6655 15.0108C23.6048 15.0917 23.6655 15.1523 23.6655 15.1523L23.8677 15.2939L24.0699 15.213H24.0902C24.0902 15.2535 24.0699 15.3748 24.0497 15.395L23.7059 15.3546L23.3217 15.5568C23.1194 15.6984 23.0992 15.9411 23.1801 16.0826L23.2205 16.1635L23.2812 16.2849L23.4026 16.2242C23.3621 16.3658 23.3823 16.5276 23.4632 16.6085L23.5441 16.7096L23.6452 16.8511L23.7666 16.7298C23.807 16.6893 23.9082 16.568 23.9486 16.4669L23.9688 16.386L23.9082 16.3253V16.3051L23.9688 16.204L24.434 16.3051L24.5351 16.3253L24.5958 16.2242L24.616 16.1838C24.616 16.1635 24.616 16.1635 24.6362 16.1635H24.6969C24.8789 16.204 25.0407 16.204 25.1823 16.204C25.3238 16.204 25.4047 16.204 25.5058 16.1635C25.5058 16.1635 25.7485 16.4467 25.7687 16.4669L25.607 16.932V16.9523C25.3238 16.9725 25.1823 17.0332 25.0002 17.2152C24.7576 16.9725 24.5755 16.9523 23.9082 16.9523C23.1194 16.9523 22.5734 16.4871 22.5734 15.7388V13.9187H27.4271V15.7388C27.4271 16.4062 27.0833 16.8309 26.517 16.9725ZM27.5687 11.0267C27.4878 11.2289 27.4271 11.4312 27.4271 11.6536V13.0086C27.144 12.9682 27.1035 12.6446 27.1035 12.6446V12.5839H27.0428C26.9215 12.5637 26.8406 12.5233 26.7597 12.4626C26.6181 12.321 26.6181 12.0986 26.6181 12.0986C26.6181 12.1188 26.4563 12.321 26.6384 12.5637C26.7193 12.6648 26.8204 12.7255 26.9619 12.7457C27.0024 12.9075 27.1237 13.1502 27.4271 13.1906V13.858H26.5777C26.1934 13.6356 26.3552 13.2715 26.3552 13.2513L26.3957 13.1704L26.335 13.1097C25.9103 12.9479 26.0316 12.5435 26.0316 12.5233L26.0519 12.4626L25.9912 12.4424C25.6474 12.2806 25.6878 11.8559 25.6878 11.8356C25.5867 11.9165 25.5463 12.0986 25.607 12.2806C25.5665 12.321 25.5058 12.3817 25.4654 12.4424C25.1216 12.3412 25.1216 11.9974 25.1216 11.9974V11.9368L25.0811 11.9165C24.9396 11.8559 24.8384 11.7952 24.798 11.6739C24.7373 11.5525 24.7576 11.4312 24.7778 11.3705C24.8182 11.3705 24.8587 11.3907 24.8991 11.3907H25.1418C25.3643 11.3705 25.6069 11.2694 25.8699 11.0065H27.5687V11.0267ZM26.2541 9.65148L26.5777 9.85371L26.6586 9.89416C26.4766 9.95483 26.335 10.0357 26.2137 10.1571L26.1934 10.1773C26.1732 10.1975 26.1328 10.238 26.1125 10.2784C26.1125 10.2784 26.1125 10.2986 26.0923 10.2986C26.0721 10.3391 26.0519 10.3593 26.0114 10.3998C26.0114 10.3998 26.0114 10.42 25.9912 10.42C25.971 10.4604 25.9305 10.5009 25.9103 10.5413C25.6676 10.9458 25.3036 11.1885 24.9598 11.1885C24.616 11.1885 24.252 10.9458 24.0093 10.5413C23.989 10.5009 23.9486 10.4604 23.9284 10.42L23.9082 10.3998C23.8879 10.3593 23.8677 10.3391 23.8475 10.2986L23.8273 10.2784C23.807 10.238 23.7666 10.2177 23.7464 10.1773L23.7261 10.1571C23.6048 10.0357 23.4632 9.93461 23.2812 9.89416L23.3621 9.85371L23.6857 9.65148L24.0295 9.44924L24.9396 9.95483L25.8496 9.44924L26.2541 9.65148ZM25.8092 9.247L25.0811 9.63125V8.07402L26.0721 7.73022L25.8092 9.247ZM25.0002 7.91223L23.9284 7.48753C24.0295 7.26507 24.434 7.08306 25.0002 7.08306C25.5665 7.08306 25.9912 7.26507 26.0721 7.48753L25.0002 7.91223Z" fill="black"/>
</g>
</g>
</g>
</g>
</svg>
